SplineFontDB: 3.2
FontName: dimm-city
FullName: dimm city
FamilyName: dimm city
Weight: Book
Copyright: 
Version: 1.00 March 18, 2022
ItalicAngle: 0
UnderlinePosition: -292
UnderlineWidth: 150
Ascent: 1638
Descent: 410
InvalidEm: 0
sfntRevision: 0x00010000
LayerCount: 2
Layer: 0 1 "Back" 1
Layer: 1 1 "Fore" 0
XUID: [1021 821 -500678990 4291709]
StyleMap: 0x0040
FSType: 0
OS2Version: 3
OS2_WeightWidthSlopeOnly: 0
OS2_UseTypoMetrics: 0
CreationTime: 1459417307
ModificationTime: 1647615042
PfmFamily: 17
TTFWeight: 400
TTFWidth: 5
LineGap: 1062
VLineGap: 0
Panose: 2 0 5 0 0 0 0 0 0 0
OS2TypoAscent: 1475
OS2TypoAOffset: 0
OS2TypoDescent: -399
OS2TypoDOffset: 0
OS2TypoLinegap: 205
OS2WinAscent: 2803
OS2WinAOffset: 0
OS2WinDescent: 863
OS2WinDOffset: 0
HheadAscent: 2803
HheadAOffset: 0
HheadDescent: -863
HheadDOffset: 0
OS2SubXSize: 1434
OS2SubYSize: 1331
OS2SubXOff: 0
OS2SubYOff: 283
OS2SupXSize: 1434
OS2SupYSize: 1331
OS2SupXOff: 0
OS2SupYOff: 977
OS2StrikeYSize: 102
OS2StrikeYPos: 530
OS2CapHeight: 1708
OS2XHeight: 1564
OS2Vendor: 'HL  '
OS2CodePages: 20000001.00000000
OS2UnicodeRanges: 800000a7.5000004a.00000000.00000000
Lookup: 258 0 0 "'kern' Horizontal Kerning in Latin lookup 0" { "'kern' Horizontal Kerning in Latin lookup 0 subtable"  } ['kern' ('latn' <'dflt' > ) ]
MarkAttachClasses: 1
DEI: 91125
KernClass2: 84 74 "'kern' Horizontal Kerning in Latin lookup 0 subtable"
 20 A Agrave Acircumflex
 1 B
 1 C
 5 D Eth
 30 E Egrave Ecircumflex Edieresis
 1 F
 1 G
 1 H
 20 I Igrave Icircumflex
 1 J
 1 K
 1 L
 1 M
 1 N
 44 O Ograve Ocircumflex Otilde Odieresis Oslash
 1 P
 1 Q
 1 R
 1 S
 1 T
 30 U Ugrave Ucircumflex Udieresis
 1 V
 1 W
 1 X
 1 Y
 1 Z
 13 a acircumflex
 1 b
 1 c
 1 d
 23 e ae egrave ecircumflex
 1 f
 1 g
 1 h
 1 i
 1 j
 1 k
 1 l
 1 m
 1 n
 30 o ograve ocircumflex odieresis
 7 p thorn
 1 q
 1 r
 1 s
 1 t
 30 u ugrave ucircumflex udieresis
 1 v
 1 w
 1 x
 11 y ydieresis
 1 z
 11 ordfeminine
 12 ordmasculine
 6 Aacute
 6 Atilde
 9 Adieresis
 5 Aring
 2 AE

StartChar: .notdef
Encoding: 65536 -1 0
Width: 1024
GlyphClass: 2
Flags: W
LayerCount: 2
Fore
SplineSet
100 0 m 1,0,-1
 100 1434 l 1,1,-1
 924 1434 l 1,2,-1
 924 0 l 1,3,-1
 100 0 l 1,0,-1
150 50 m 1,4,-1
 874 50 l 1,5,-1
 874 1384 l 1,6,-1
 150 1384 l 1,7,-1
 150 50 l 1,4,-1
325 1148 m 1,8,9
 356 1176 356 1176 383 1191 c 0,10,11
 436 1221 436 1221 495 1221 c 0,12,13
 587 1221 587 1221 643 1173.5 c 128,-1,14
 699 1126 699 1126 699 1046 c 0,15,16
 699 997 699 997 676 947.5 c 128,-1,17
 653 898 653 898 589 818 c 0,18,19
 526 738 526 738 490 686 c 128,-1,20
 454 634 454 634 454 587 c 0,21,22
 454 549 454 549 478 454 c 1,23,-1
 446 454 l 1,24,25
 411 551 411 551 411 602 c 0,26,27
 411 678 411 678 492.5 820 c 128,-1,28
 574 962 574 962 574 1037 c 0,29,30
 574 1094 574 1094 541 1127 c 128,-1,31
 508 1160 508 1160 450 1160 c 0,32,33
 412 1160 412 1160 381 1143 c 0,34,35
 355 1128 355 1128 325 1103 c 1,36,-1
 325 1148 l 1,8,9
389 334 m 2,37,-1
 446 392 l 2,38,39
 457 402 457 402 466 402 c 0,40,41
 476 402 476 402 488 391 c 2,42,-1
 544 331 l 2,43,44
 553 320 553 320 553 311 c 0,45,46
 553 300 553 300 543 289 c 2,47,-1
 487 227 l 2,48,49
 473 213 473 213 466 213 c 0,50,51
 455 213 455 213 446 223 c 2,52,-1
 385 294 l 2,53,54
 378 303 378 303 378 312 c 0,55,56
 378 322 378 322 389 334 c 2,37,-1
EndSplineSet
Validated: 1
EndChar

StartChar: exclam
Encoding: 33 33 4
Width: 672
GlyphClass: 2
Flags: W
LayerCount: 2
Fore
SplineSet
190 346 m 0,0,1
 206 340 206 340 206 334 c 1,2,3
 210 334 210 334 210 338 c 1,4,5
 232 334 232 334 242 334 c 1,6,-1
 250 338 l 1,7,8
 270 338 270 338 270 309 c 1,9,-1
 278 313 l 1,10,-1
 282 313 l 1,11,12
 306 307 306 307 306 263 c 0,13,14
 306 127 306 127 218 28 c 1,15,16
 176 15 176 15 150 -9 c 1,17,-1
 146 -1 l 1,18,-1
 138 -5 l 1,19,20
 114 32 114 32 94 32 c 1,21,22
 36 -13 36 -13 30 -13 c 1,23,-1
 30 -9 l 1,24,25
 34 -1 34 -1 34 3 c 1,26,27
 26 3 26 3 26 -9 c 1,28,-1
 18 -9 l 1,29,-1
 14 12 l 1,30,31
 14 60 14 60 6 144 c 1,32,33
 41 270 41 270 54 284 c 1,34,35
 70 284 70 284 70 309 c 1,36,-1
 78 313 l 1,37,-1
 78 301 l 1,38,-1
 90 301 l 2,39,40
 98 301 98 301 98 313 c 1,41,-1
 106 313 l 1,42,43
 108 296 108 296 118 296 c 0,44,45
 134 296 134 296 134 329 c 1,46,-1
 150 329 l 1,47,48
 168 313 168 313 170 313 c 2,49,-1
 174 313 l 1,50,-1
 174 317 l 1,51,-1
 170 338 l 1,52,53
 183 346 183 346 190 346 c 0,0,1
379 1667 m 1,54,-1
 391 1667 l 1,55,56
 417 1647 417 1647 435 1647 c 1,57,58
 452 1663 452 1663 491 1663 c 2,59,-1
 495 1663 l 1,60,61
 495 1650 495 1650 507 1650 c 1,62,63
 508 1657 508 1657 515 1657 c 1,64,65
 515 1640 515 1640 519 1640 c 2,66,-1
 539 1643 l 1,67,68
 539 1636 539 1636 559 1633 c 1,69,-1
 563 1640 l 1,70,71
 587 1638 587 1638 587 1633 c 1,72,-1
 603 1640 l 1,73,74
 603 1637 603 1637 607 1637 c 1,75,-1
 603 1630 l 1,76,-1
 623 1616 l 1,77,78
 615 1615 615 1615 607 1600 c 1,79,80
 627 1600 627 1600 631 1560 c 1,81,82
 631 1491 631 1491 419 655 c 1,83,-1
 287 316 l 1,84,-1
 279 316 l 1,85,-1
 279 319 l 1,86,-1
 283 349 l 1,87,-1
 283 353 l 1,88,-1
 279 353 l 1,89,90
 271 332 271 332 271 319 c 1,91,-1
 263 319 l 1,92,93
 255 346 255 346 255 353 c 2,94,-1
 255 406 l 1,95,96
 231 461 231 461 231 527 c 2,97,-1
 231 655 l 2,98,99
 231 661 231 661 223 661 c 1,100,-1
 175 524 l 1,101,-1
 167 524 l 1,102,103
 167 531 167 531 179 581 c 1,104,-1
 179 584 l 1,105,-1
 175 584 l 1,106,-1
 159 534 l 1,107,-1
 151 534 l 1,108,109
 151 542 151 542 147 584 c 1,110,111
 199 1080 199 1080 267 1325 c 0,112,113
 299 1439 299 1439 331 1640 c 1,114,115
 356 1640 356 1640 371 1663 c 1,116,-1
 379 1667 l 1,54,-1
EndSplineSet
Validated: 5
EndChar

StartChar: quotedbl
Encoding: 34 34 5
Width: 803
GlyphClass: 2
Flags: W
LayerCount: 2
Fore
SplineSet
57 1843 m 1,0,1
 59 1839 59 1839 79 1827 c 1,2,-1
 93 1843 l 1,3,4
 105 1843 105 1843 111 1827 c 1,5,-1
 118 1831 l 1,6,-1
 130 1831 l 1,7,8
 146 1818 146 1818 151 1803 c 1,9,10
 191 1792 191 1792 208 1743 c 2,11,-1
 211 1735 l 2,12,13
 224 1698 224 1698 224 1643 c 0,14,15
 224 1570 224 1570 201 1467 c 0,16,17
 201 1458 201 1458 148 1379 c 1,18,19
 119 1315 119 1315 114 1315 c 1,20,-1
 112 1323 l 1,21,-1
 112 1328 l 2,22,23
 112 1332 112 1332 111 1335 c 1,24,-1
 77 1295 l 1,25,-1
 73 1295 l 2,26,27
 65 1295 65 1295 63 1303 c 1,28,29
 66 1303 66 1303 66 1305 c 0,30,31
 66 1306 66 1306 65 1307 c 2,32,-1
 61 1307 l 1,33,-1
 61 1305 l 2,34,35
 61 1300 61 1300 53 1295 c 1,36,-1
 45 1295 l 1,37,-1
 44 1299 l 2,38,39
 43 1303 43 1303 43 1314 c 0,40,41
 43 1346 43 1346 56 1435 c 1,42,43
 50 1442 50 1442 47 1451 c 1,44,45
 53 1451 53 1451 53 1455 c 0,46,47
 53 1457 53 1457 52 1459 c 2,48,-1
 51 1463 l 1,49,-1
 39 1451 l 1,50,-1
 35 1451 l 1,51,-1
 32 1459 l 1,52,53
 -5 1646 -5 1646 -5 1735 c 1,54,-1
 -12 1743 l 1,55,-1
 -13 1747 l 1,56,-1
 -13 1748 l 2,57,58
 -13 1754 -13 1754 4 1767 c 1,59,60
 6 1761 6 1761 20 1755 c 1,61,62
 18 1762 18 1762 18 1770 c 0,63,64
 18 1781 18 1781 22 1795 c 1,65,66
 18 1795 18 1795 17 1799 c 1,67,68
 27 1799 27 1799 38 1831 c 1,69,70
 48 1831 48 1831 57 1843 c 1,0,1
471 1803 m 2,71,-1
 475 1803 l 1,72,73
 493 1791 493 1791 500 1791 c 1,74,-1
 502 1783 l 1,75,-1
 501 1775 l 1,76,77
 555 1775 555 1775 594 1715 c 1,78,79
 600 1715 600 1715 612 1687 c 0,80,81
 620 1664 620 1664 620 1634 c 0,82,83
 620 1557 620 1557 563 1439 c 1,84,85
 532 1410 532 1410 418 1259 c 1,86,87
 412 1259 412 1259 402 1271 c 1,88,89
 406 1314 406 1314 406 1332 c 0,90,91
 406 1340 406 1340 405 1343 c 1,92,-1
 382 1315 l 1,93,-1
 378 1315 l 1,94,-1
 377 1319 l 1,95,-1
 386 1351 l 1,96,-1
 384 1355 l 1,97,-1
 364 1323 l 1,98,-1
 360 1323 l 1,99,-1
 358 1327 l 1,100,101
 370 1636 370 1636 404 1767 c 1,102,-1
 424 1767 l 1,103,104
 423 1769 423 1769 423 1771 c 0,105,106
 423 1783 423 1783 445 1799 c 0,107,108
 449 1799 449 1799 450 1795 c 1,109,110
 461 1803 461 1803 471 1803 c 2,71,-1
EndSplineSet
Validated: 1
EndChar

StartChar: numbersign
Encoding: 35 35 6
Width: 2085
GlyphClass: 2
Flags: W
LayerCount: 2
Fore
SplineSet
1557 1467 m 1,0,1
 1597 1456 1597 1456 1628 1456 c 1,2,-1
 1628 1445 l 1,3,-1
 1618 1391 l 1,4,-1
 1638 1402 l 1,5,-1
 1669 1402 l 1,6,7
 1669 1367 1669 1367 1628 1208 c 1,8,-1
 1638 1208 l 1,9,10
 1750 1197 1750 1197 1832 1197 c 2,11,-1
 1842 1197 l 1,12,-1
 1842 1176 l 1,13,-1
 1832 1176 l 1,14,-1
 1730 1165 l 1,15,-1
 1730 1154 l 1,16,-1
 1832 1154 l 1,17,-1
 1832 1132 l 1,18,19
 1738 1083 1738 1083 1537 1025 c 1,20,21
 1531 1000 1531 1000 1404 766 c 1,22,-1
 1425 766 l 2,23,24
 1480 766 1480 766 1710 776 c 1,25,-1
 1710 755 l 1,26,-1
 1638 744 l 1,27,-1
 1638 733 l 1,28,-1
 1679 733 l 1,29,-1
 1730 744 l 1,30,-1
 1730 723 l 1,31,32
 1645 659 1645 659 1242 475 c 1,33,34
 1150 267 1150 267 896 0 c 1,35,-1
 896 11 l 1,36,-1
 906 65 l 1,37,-1
 865 22 l 1,38,-1
 855 22 l 1,39,-1
 855 32 l 2,40,41
 855 43 855 43 865 43 c 1,42,-1
 855 65 l 1,43,-1
 855 86 l 2,44,45
 855 129 855 129 906 377 c 1,46,-1
 896 377 l 1,47,48
 661 322 661 322 661 237 c 1,49,-1
 550 108 l 1,50,-1
 550 129 l 1,51,-1
 580 194 l 1,52,-1
 580 205 l 1,53,-1
 570 205 l 1,54,55
 570 179 570 179 519 140 c 1,56,-1
 519 270 l 1,57,-1
 529 291 l 1,58,-1
 519 291 l 1,59,60
 180 270 180 270 132 270 c 1,61,-1
 132 280 l 1,62,-1
 112 270 l 1,63,64
 38 270 38 270 10 334 c 1,65,66
 0 334 0 334 0 345 c 0,67,68
 0 372 0 372 41 377 c 1,69,-1
 41 388 l 1,70,71
 0 388 0 388 0 410 c 1,72,73
 62 496 62 496 346 572 c 1,74,75
 611 626 611 626 611 647 c 0,76,77
 621 703 621 703 692 863 c 1,78,79
 555 852 555 852 488 852 c 2,80,-1
 458 852 l 1,81,82
 429 884 429 884 377 895 c 1,83,-1
 377 917 l 1,84,-1
 519 949 l 1,85,-1
 519 960 l 1,86,-1
 397 960 l 1,87,-1
 397 981 l 1,88,89
 804 1057 804 1057 804 1100 c 1,90,91
 874 1261 874 1261 936 1337 c 1,92,93
 981 1294 981 1294 987 1294 c 1,94,95
 987 1348 987 1348 1008 1348 c 0,96,97
 1140 1330 1140 1330 1140 1197 c 2,98,-1
 1140 1154 l 1,99,100
 1344 1154 1344 1154 1374 1251 c 1,101,102
 1460 1392 1460 1392 1557 1467 c 1,0,1
977 723 m 1,103,-1
 1038 723 l 1,104,105
 1076 746 1076 746 1181 949 c 1,106,-1
 1181 960 l 1,107,108
 1057 960 1057 960 1038 852 c 1,109,-1
 977 723 l 1,103,-1
EndSplineSet
Validated: 1
EndChar

StartChar: quotesingle
Encoding: 39 39 10
Width: 595
GlyphClass: 2
Flags: W
LayerCount: 2
Fore
SplineSet
105 1154 m 1,0,1
 105 1154 l 2,2,3
 94 1154 94 1154 94 1165 c 24,4,5
 94 1195.72727273 94 1195.72727273 57 1411 c 0,6,7
 46 1475 46 1475 205 1735 c 1,8,-1
 200 1746 l 1,9,-1
 200 1751 l 2,10,11
 200 1759 200 1759 232 1778 c 1,12,13
 232 1770 232 1770 248 1762 c 1,14,15
 248 1782 248 1782 269 1815 c 1,16,17
 264 1815 264 1815 264 1820 c 1,18,19
 277 1820 277 1820 306 1862 c 1,20,21
 320 1862 320 1862 337 1878 c 1,22,23
 337 1873 337 1873 359 1857 c 1,24,-1
 385 1878 l 1,25,26
 401 1878 401 1878 401 1857 c 1,27,-1
 411 1862 l 1,28,-1
 427 1862 l 1,29,30
 443 1844 443 1844 443 1825 c 1,31,32
 491 1810 491 1810 491 1746 c 2,33,-1
 491 1735 l 2,34,35
 491 1620 491 1620 353 1381 c 1,36,37
 353 1373 353 1373 242 1265 c 1,38,39
 150 1154 150 1154 105 1154 c 1,0,1
EndSplineSet
Validated: 524325
EndChar

StartChar: asterisk
Encoding: 42 42 13
Width: 1024
GlyphClass: 2
Flags: W
LayerCount: 2
Fore
SplineSet
656 1530 m 1,0,-1
 664 1530 l 1,1,-1
 656 1518 l 1,2,-1
 676 1530 l 1,3,-1
 676 1526 l 1,4,5
 642 1460 642 1460 560 1334 c 1,6,-1
 564 1334 l 1,7,8
 644 1362 644 1362 725 1390 c 1,9,-1
 809 1408 l 1,10,-1
 755 1342 l 1,11,-1
 572 1202 l 1,12,13
 612 1135 612 1135 612 1130 c 1,14,-1
 608 1130 l 1,15,-1
 588 1146 l 1,16,-1
 588 1142 l 1,17,18
 604 1124 604 1124 604 1122 c 2,19,-1
 604 1118 l 1,20,-1
 596 1118 l 1,21,22
 596 1115 596 1115 628 1030 c 1,23,-1
 608 1050 l 1,24,-1
 608 1046 l 1,25,26
 612 1041 612 1041 612 1026 c 1,27,28
 494 1097 494 1097 420 1162 c 1,29,30
 333 1070 333 1070 268 1018 c 1,31,-1
 264 1018 l 2,32,33
 254 1018 254 1018 252 1034 c 1,34,-1
 244 1034 l 1,35,-1
 244 1018 l 1,36,37
 201 1018 201 1018 192 1074 c 1,38,-1
 192 1078 l 1,39,40
 196 1120 196 1120 252 1182 c 1,41,42
 128 1274 128 1274 72 1266 c 1,43,-1
 72 1282 l 1,44,-1
 80 1286 l 1,45,46
 80 1282 80 1282 84 1282 c 1,47,48
 84 1301 84 1301 100 1306 c 0,49,50
 104 1307 104 1307 104 1302 c 1,51,-1
 233 1299 l 1,52,-1
 256 1334 l 1,53,-1
 256 1342 l 1,54,55
 220 1391 220 1391 220 1450 c 2,56,-1
 220 1474 l 1,57,58
 233 1509 233 1509 260 1518 c 1,59,60
 305 1518 305 1518 324 1490 c 1,61,62
 335 1495 335 1495 336 1494 c 2,63,-1
 448 1378 l 1,64,-1
 452 1378 l 1,65,66
 487 1409 487 1409 656 1530 c 1,0,-1
EndSplineSet
Validated: 33
EndChar

StartChar: plus
Encoding: 43 43 14
Width: 1334
GlyphClass: 2
Flags: W
LayerCount: 2
Fore
SplineSet
735 1312 m 1,0,-1
 740 1312 l 1,1,-1
 740 1308 l 1,2,3
 735 1300 735 1300 735 1296 c 1,4,5
 745 1296 745 1296 745 1308 c 1,6,-1
 755 1308 l 1,7,8
 765 1265 765 1265 775 1164 c 1,9,10
 765 1071 765 1071 740 1000 c 1,11,12
 916 1044 916 1044 995 1044 c 0,13,14
 1006 1044 1006 1044 1051 1040 c 1,15,16
 1108 1044 1108 1044 1161 1044 c 1,17,-1
 1161 1036 l 1,18,-1
 1136 1032 l 1,19,-1
 1136 1028 l 1,20,-1
 1161 1028 l 1,21,-1
 1161 1024 l 1,22,23
 1118 984 1118 984 915 888 c 1,24,-1
 905 888 l 1,25,-1
 905 884 l 1,26,-1
 935 884 l 1,27,-1
 935 880 l 1,28,-1
 930 872 l 1,29,-1
 935 872 l 2,30,31
 944 872 944 872 1015 880 c 1,32,-1
 1015 872 l 1,33,34
 984 864 984 864 980 864 c 1,35,-1
 980 860 l 1,36,-1
 985 860 l 1,37,-1
 1015 864 l 1,38,-1
 1021 864 l 1,39,40
 964 812 964 812 745 716 c 1,41,42
 694 716 694 716 694 644 c 1,43,44
 654 507 654 507 629 376 c 1,45,46
 590 324 590 324 559 324 c 1,47,-1
 549 328 l 2,48,49
 544 328 544 328 544 324 c 1,50,51
 484 324 484 324 469 376 c 1,52,-1
 464 376 l 1,53,-1
 449 336 l 1,54,-1
 438 336 l 1,55,56
 444 372 444 372 449 380 c 1,57,-1
 449 384 l 1,58,-1
 444 384 l 1,59,60
 433 359 433 359 433 352 c 1,61,-1
 428 352 l 2,62,63
 418 352 418 352 418 372 c 1,64,-1
 413 372 l 1,65,-1
 398 364 l 1,66,-1
 393 364 l 1,67,-1
 393 372 l 1,68,-1
 378 364 l 1,69,70
 362 364 362 364 343 532 c 1,71,72
 348 595 348 595 348 624 c 1,73,74
 353 624 353 624 353 628 c 1,75,76
 348 628 348 628 348 632 c 1,77,78
 170 604 170 604 132 592 c 1,79,80
 72 592 72 592 52 632 c 1,81,-1
 37 652 l 1,82,-1
 42 660 l 1,83,-1
 37 668 l 1,84,-1
 37 680 l 1,85,-1
 22 688 l 1,86,-1
 27 696 l 1,87,-1
 27 700 l 1,88,-1
 12 716 l 1,89,90
 42 720 42 720 42 724 c 2,91,-1
 37 744 l 1,92,93
 45 744 45 744 57 760 c 1,94,-1
 57 804 l 1,95,-1
 47 800 l 1,96,-1
 37 800 l 2,97,98
 30 800 30 800 22 812 c 1,99,-1
 27 832 l 1,100,101
 17 832 17 832 17 840 c 0,102,103
 17 881 17 881 102 912 c 1,104,105
 198 932 198 932 403 960 c 1,106,107
 428 1083 428 1083 428 1108 c 1,108,109
 418 1108 418 1108 418 1120 c 1,110,-1
 413 1120 l 1,111,-1
 403 1116 l 1,112,-1
 398 1124 l 1,113,114
 500 1246 500 1246 524 1260 c 0,115,116
 597 1300 597 1300 679 1300 c 1,117,118
 680 1295 680 1295 704 1284 c 1,119,-1
 735 1312 l 1,0,-1
469 392 m 1,120,-1
 469 384 l 1,121,-1
 474 384 l 1,122,-1
 474 392 l 1,123,-1
 469 392 l 1,120,-1
EndSplineSet
Validated: 1
EndChar

StartChar: comma
Encoding: 44 44 15
Width: 557
GlyphClass: 2
Flags: W
LayerCount: 2
Fore
SplineSet
112 389 m 1,0,1
 112 377 112 377 124 377 c 1,2,-1
 140 389 l 1,3,4
 147 383 147 383 156 383 c 1,5,6
 164 389 164 389 168 389 c 2,7,-1
 172 377 l 1,8,9
 180 377 180 377 200 389 c 1,10,11
 229 346 229 346 248 340 c 1,12,-1
 244 328 l 1,13,14
 268 286 268 286 268 255 c 1,15,16
 291 322 291 322 330 322 c 0,17,18
 353 322 353 322 381 300 c 1,19,20
 382 287 382 287 382 275 c 0,21,22
 382 122 382 122 301 43 c 1,23,24
 289 -47 289 -47 136 -286 c 1,25,26
 129 -306 129 -306 40 -389 c 1,27,-1
 32 -389 l 1,28,-1
 32 -371 l 1,29,-1
 20 -383 l 1,30,-1
 16 -383 l 1,31,-1
 16 -365 l 2,32,33
 16 -354 16 -354 28 -219 c 1,34,-1
 20 -225 l 1,35,-1
 16 -213 l 1,36,37
 -7 -231 -7 -231 -24 -231 c 1,38,39
 -49 -213 -49 -213 -72 -170 c 1,40,-1
 -72 -146 l 1,41,-1
 -64 -103 l 2,42,43
 -64 -98 -64 -98 -68 -55 c 1,44,45
 -64 -27 -64 -27 47 127 c 1,46,47
 78 389 78 389 112 389 c 1,0,1
15 -88 m 1,48,-1
 19 -98 l 1,49,-1
 27 -93 l 1,50,-1
 23 -83 l 1,51,-1
 15 -88 l 1,48,-1
EndSplineSet
Validated: 1
EndChar

StartChar: hyphen
Encoding: 45 45 16
AltUni2: 0000ad.ffffffff.0
Width: 1681
GlyphClass: 2
Flags: W
LayerCount: 2
Fore
SplineSet
1070 1140 m 2,0,-1
 1139 1140 l 2,1,2
 1201 1140 1201 1140 1450 1124 c 1,3,-1
 1450 1116 l 1,4,-1
 1406 1116 l 1,5,-1
 1406 1108 l 1,6,-1
 1444 1108 l 1,7,-1
 1444 1100 l 1,8,9
 1388 1080 1388 1080 1164 1028 c 1,10,-1
 1164 1024 l 1,11,-1
 1195 1024 l 2,12,13
 1243 1024 1243 1024 1369 1020 c 1,14,15
 1369 1012 1369 1012 1388 1012 c 1,16,-1
 1388 1004 l 1,17,18
 1209 952 1209 952 1201 952 c 1,19,-1
 1201 944 l 1,20,-1
 1263 948 l 1,21,-1
 1269 948 l 1,22,-1
 1269 940 l 1,23,24
 1223 932 1223 932 1213 932 c 1,25,-1
 1213 928 l 1,26,-1
 1244 928 l 1,27,-1
 1276 932 l 1,28,-1
 1276 924 l 1,29,30
 857 778 857 778 553 760 c 1,31,32
 166 728 166 728 86 728 c 1,33,-1
 61 736 l 1,34,35
 49 732 49 732 43 732 c 1,36,-1
 18 764 l 1,37,-1
 24 772 l 1,38,39
 -1 796 -1 796 -1 808 c 1,40,41
 51 848 51 848 68 848 c 2,42,-1
 74 848 l 1,43,-1
 61 860 l 1,44,45
 82 908 82 908 99 908 c 1,46,47
 86 921 86 921 86 932 c 1,48,-1
 105 932 l 1,49,-1
 105 940 l 1,50,-1
 92 952 l 1,51,52
 101 968 101 968 155 992 c 1,53,54
 155 1009 155 1009 398 1040 c 1,55,-1
 908 1124 l 1,56,57
 1031 1140 1031 1140 1070 1140 c 2,0,-1
EndSplineSet
Validated: 1
EndChar

StartChar: period
Encoding: 46 46 17
Width: 557
GlyphClass: 2
Flags: W
LayerCount: 2
Fore
SplineSet
206 338 m 0,0,1
 222 332 222 332 222 326 c 1,2,3
 226 326 226 326 226 330 c 1,4,5
 248 326 248 326 258 326 c 1,6,-1
 266 330 l 1,7,8
 286 330 286 330 286 301 c 1,9,-1
 294 305 l 1,10,-1
 298 305 l 1,11,12
 322 299 322 299 322 255 c 0,13,14
 322 119 322 119 234 20 c 1,15,16
 192 7 192 7 166 -17 c 1,17,-1
 162 -9 l 1,18,-1
 154 -13 l 1,19,20
 130 24 130 24 110 24 c 1,21,22
 52 -21 52 -21 46 -21 c 1,23,-1
 46 -17 l 1,24,25
 50 -9 50 -9 50 -5 c 1,26,27
 42 -5 42 -5 42 -17 c 1,28,-1
 34 -17 l 1,29,-1
 30 4 l 1,30,31
 30 52 30 52 22 136 c 1,32,33
 57 262 57 262 70 276 c 1,34,35
 86 276 86 276 86 301 c 1,36,-1
 94 305 l 1,37,-1
 94 293 l 1,38,-1
 106 293 l 2,39,40
 114 293 114 293 114 305 c 1,41,-1
 122 305 l 1,42,43
 124 288 124 288 134 288 c 0,44,45
 150 288 150 288 150 321 c 1,46,-1
 166 321 l 1,47,48
 184 305 184 305 186 305 c 2,49,-1
 190 305 l 1,50,-1
 190 309 l 1,51,-1
 186 330 l 1,52,53
 199 338 199 338 206 338 c 0,0,1
EndSplineSet
Validated: 1
EndChar

StartChar: slash
Encoding: 47 47 18
Width: 1057
GlyphClass: 2
Flags: W
LayerCount: 2
Fore
SplineSet
1213 2191 m 1,0,1
 1223 2182 1223 2182 1223 2169 c 0,2,3
 1223 2164 1223 2164 1222 2160 c 1,4,-1
 1226 2160 l 1,5,6
 1229 2173 1229 2173 1237 2173 c 0,7,8
 1250 2166 1250 2166 1250 2161 c 2,9,-1
 1250 2160 l 1,10,11
 1246 2160 1246 2160 1245 2155 c 1,12,13
 1256 2155 1256 2155 1258 2102 c 0,14,15
 1261 2102 1261 2102 1261 2099 c 2,16,-1
 1261 2097 l 1,17,-1
 1256 2075 l 2,18,19
 1255 2070 1255 2070 1251 2070 c 1,20,-1
 1253 2061 l 1,21,22
 1213 1948 1213 1948 1193 1909 c 1,23,-1
 1193 1908 l 2,24,25
 1193 1905 1193 1905 1196 1905 c 1,26,27
 767 800 767 800 386 112 c 0,28,29
 383 111 383 111 317 -9 c 1,30,-1
 309 -9 l 1,31,-1
 346 72 l 1,32,-1
 347 76 l 1,33,-1
 343 76 l 1,34,35
 239 -151 239 -151 42 -554 c 1,36,-1
 34 -554 l 1,37,38
 40 -545 40 -545 61 -482 c 1,39,-1
 62 -478 l 1,40,-1
 58 -478 l 1,41,42
 35 -530 35 -530 33 -541 c 1,43,-1
 25 -541 l 1,44,45
 27 -528 27 -528 27 -491 c 1,46,-1
 83 -286 l 1,47,-1
 82 -268 l 1,48,49
 88 -258 88 -258 99 -228 c 1,50,-1
 100 -223 l 1,51,-1
 96 -223 l 1,52,53
 79 -263 79 -263 71 -263 c 2,54,-1
 67 -263 l 1,55,-1
 71 -246 l 1,56,-1
 67 -246 l 1,57,58
 35 -300 35 -300 34 -308 c 1,59,-1
 26 -308 l 1,60,-1
 52 -241 l 1,61,62
 43 -241 43 -241 26 -290 c 1,63,-1
 18 -290 l 1,64,65
 20 -274 20 -274 20 -265 c 0,66,67
 20 -254 20 -254 17 -254 c 1,68,69
 255 474 255 474 404 805 c 1,70,71
 558 1228 558 1228 716 1561 c 1,72,73
 800 1753 800 1753 819 1842 c 1,74,-1
 823 1842 l 1,75,-1
 821 1851 l 2,76,77
 822 1857 822 1857 848 1865 c 1,78,-1
 851 1878 l 1,79,-1
 861 1869 l 1,80,-1
 865 1869 l 1,81,-1
 933 1963 l 1,82,83
 939 1963 939 1963 950 1972 c 1,84,-1
 966 1972 l 2,85,86
 973 1971 973 1971 973 1965 c 2,87,-1
 973 1963 l 1,88,-1
 994 1967 l 1,89,-1
 998 1967 l 1,90,91
 1013 1941 1013 1941 1024 1941 c 1,92,-1
 1033 1945 l 1,93,94
 1039 1941 1039 1941 1048 1941 c 1,95,96
 1081 1984 1081 1984 1137 2137 c 1,97,98
 1153 2155 1153 2155 1157 2155 c 2,99,-1
 1177 2155 l 1,100,101
 1179 2165 1179 2165 1213 2191 c 1,0,1
EndSplineSet
Validated: 1
EndChar

StartChar: zero
Encoding: 48 48 19
Width: 1242
GlyphClass: 2
Flags: W
LayerCount: 2
Fore
SplineSet
995 1792 m 2,0,-1
 1024 1792 l 2,1,2
 1123 1792 1123 1792 1189 1670 c 1,3,-1
 1189 1662 l 1,4,-1
 1183 1662 l 1,5,6
 1183 1664 1183 1664 1177 1673 c 1,7,-1
 1174 1673 l 1,8,-1
 1174 1670 l 2,9,10
 1174 1664 1174 1664 1235 1607 c 1,11,12
 1261 1550 1261 1550 1261 1508 c 0,13,14
 1261 1505 1261 1505 1258 1485 c 1,15,-1
 1253 1485 l 1,16,-1
 1253 1499 l 1,17,-1
 1250 1499 l 1,18,-1
 1250 1482 l 1,19,-1
 1244 1482 l 1,20,21
 1243 1495 1243 1495 1209 1525 c 1,22,-1
 1209 1522 l 1,23,24
 1276 1423 1276 1423 1276 1291 c 0,25,26
 1276 1177 1276 1177 1192 798 c 1,27,28
 1096 419 1096 419 986 197 c 1,29,30
 936 67 936 67 905 67 c 1,31,32
 839 -28 839 -28 794 -72 c 1,33,-1
 792 -72 l 1,34,-1
 792 -69 l 1,35,-1
 809 -43 l 1,36,-1
 809 -40 l 1,37,38
 807 -40 807 -40 786 -64 c 1,39,-1
 783 -64 l 1,40,41
 789 -39 789 -39 789 -35 c 1,42,-1
 786 -35 l 1,43,44
 635 -139 635 -139 507 -139 c 2,45,-1
 473 -139 l 2,46,47
 328 -139 328 -139 238 -64 c 1,48,49
 224 -58 224 -58 203 -58 c 1,50,-1
 203 -55 l 2,51,52
 203 -49 203 -49 212 -49 c 1,53,-1
 212 -46 l 1,54,55
 200 -46 200 -46 194 -32 c 1,56,57
 90 49 90 49 75 99 c 1,58,59
 68 104 68 104 12 194 c 1,60,-1
 12 200 l 1,61,62
 30 183 30 183 32 183 c 1,63,-1
 32 186 l 2,64,65
 32 188 32 188 20 203 c 1,66,-1
 20 206 l 1,67,-1
 35 203 l 1,68,-1
 38 203 l 1,69,70
 0 326 0 326 0 444 c 2,71,-1
 0 482 l 2,72,73
 0 643 0 643 101 928 c 0,74,75
 112 951 112 951 116 951 c 1,76,-1
 116 945 l 1,77,78
 110 927 110 927 110 922 c 2,79,-1
 110 919 l 1,80,-1
 113 919 l 1,81,82
 113 936 113 936 133 963 c 1,83,84
 188 1126 188 1126 264 1264 c 0,85,86
 331 1390 331 1390 470 1549 c 1,87,88
 595 1679 595 1679 606 1679 c 2,89,-1
 609 1679 l 1,90,91
 609 1675 609 1675 577 1641 c 1,92,-1
 577 1638 l 1,93,94
 580 1638 580 1638 612 1667 c 1,95,-1
 615 1667 l 1,96,-1
 615 1665 l 2,97,98
 615 1657 615 1657 522 1520 c 0,99,100
 513 1508 513 1508 478 1447 c 1,101,-1
 478 1444 l 1,102,103
 782 1792 782 1792 995 1792 c 2,0,-1
1113 1685 m 1,104,105
 1113 1678 1113 1678 1151 1667 c 1,106,107
 1132 1685 1132 1685 1113 1685 c 1,104,105
542 1157 m 1,108,-1
 544 1152 l 1,109,110
 544 1140 544 1140 508 1102 c 1,111,112
 467 1017 467 1017 467 1010 c 1,113,114
 472 1009 472 1009 472 1005 c 2,115,-1
 472 1000 l 1,116,-1
 465 991 l 1,117,-1
 465 986 l 1,118,119
 477 986 477 986 477 971 c 1,120,121
 472 971 472 971 465 954 c 1,122,-1
 438 940 l 1,123,124
 387 813 387 813 387 669 c 2,125,-1
 387 652 l 2,126,127
 387 509 387 509 501 413 c 1,128,129
 559 382 559 382 576 382 c 0,130,131
 588 382 588 382 614 389 c 1,132,-1
 614 387 l 2,133,134
 614 379 614 379 605 379 c 1,135,-1
 605 377 l 1,136,-1
 612 377 l 1,137,138
 613 382 613 382 617 382 c 2,139,-1
 619 382 l 1,140,-1
 619 379 l 1,141,-1
 612 365 l 1,142,-1
 624 362 l 1,143,-1
 631 362 l 1,144,-1
 629 367 l 1,145,-1
 631 372 l 2,146,147
 629 376 629 376 629 382 c 0,148,149
 629 384 629 384 631 384 c 1,150,-1
 629 389 l 2,151,152
 629 392 629 392 648 406 c 1,153,-1
 660 406 l 1,154,155
 660 419 660 419 687 435 c 1,156,157
 765 518 765 518 812 546 c 0,158,159
 887 593 887 593 887 626 c 1,160,161
 921 700 921 700 933 744 c 1,162,163
 929 744 929 744 924 754 c 0,164,165
 924 759 924 759 931 759 c 1,166,167
 926 768 926 768 926 773 c 0,168,169
 969 815 969 815 977 860 c 1,170,171
 991 891 991 891 1001 966 c 1,172,173
 1057 1134 1057 1134 1076 1242 c 1,174,-1
 1076 1264 l 2,175,176
 1076 1366 1076 1366 1023 1454 c 1,177,178
 976 1488 976 1488 938 1491 c 0,179,180
 865 1491 865 1491 810 1442 c 1,181,182
 810 1415 810 1415 771 1406 c 0,183,184
 771 1404 771 1404 738 1365 c 1,185,186
 738 1320 738 1320 643 1285 c 1,187,188
 569 1208 569 1208 542 1157 c 1,108,-1
EndSplineSet
Validated: 1
EndChar

StartChar: one
Encoding: 49 49 20
Width: 924
GlyphClass: 2
Flags: W
LayerCount: 2
Fore
SplineSet
675 1848 m 1,0,1
 706 1848 706 1848 725 1814 c 1,2,3
 776 1814 776 1814 776 1775 c 1,4,-1
 787 1781 l 1,5,6
 809 1770 809 1770 826 1770 c 1,7,8
 854 1786 854 1786 871 1786 c 2,9,-1
 877 1786 l 1,10,11
 927 1714 927 1714 961 1714 c 1,12,13
 975 1686 975 1686 983 1686 c 0,14,15
 996 1682 996 1682 1011 1646 c 0,16,17
 1011 1641 1011 1641 1005 1641 c 1,18,-1
 1011 1601 l 1,19,20
 1011 1552 1011 1552 714 980 c 1,21,22
 555 584 555 584 271 150 c 1,23,24
 231 65 231 65 171 -18 c 1,25,-1
 171 -12 l 1,26,-1
 182 27 l 1,27,28
 60 -137 60 -137 -87 -393 c 1,29,-1
 -87 -382 l 2,30,31
 -87 -375 -87 -375 -65 -315 c 1,32,-1
 -65 -309 l 1,33,-1
 -70 -309 l 1,34,35
 -98 -372 -98 -372 -98 -376 c 1,36,-1
 -109 -376 l 1,37,-1
 -109 -359 l 2,38,39
 -109 -354 -109 -354 -104 -354 c 1,40,-1
 -109 -343 l 1,41,42
 -109 -299 -109 -299 47 201 c 1,43,44
 47 345 47 345 384 996 c 1,45,-1
 490 1237 l 1,46,-1
 479 1237 l 1,47,48
 344 1164 344 1164 316 1164 c 1,49,-1
 327 1181 l 1,50,-1
 322 1181 l 1,51,52
 234 1114 234 1114 210 1114 c 2,53,-1
 193 1114 l 2,54,55
 185 1114 185 1114 176 1136 c 1,56,-1
 165 1131 l 1,57,58
 136 1131 136 1131 131 1148 c 1,59,-1
 143 1164 l 1,60,61
 116 1164 116 1164 109 1209 c 1,62,63
 117 1228 117 1228 131 1243 c 1,64,-1
 126 1254 l 1,65,-1
 260 1433 l 1,66,67
 260 1460 260 1460 524 1792 c 0,68,69
 555 1831 555 1831 602 1831 c 1,70,71
 613 1818 613 1818 613 1809 c 1,72,-1
 619 1809 l 1,73,-1
 675 1848 l 1,0,1
EndSplineSet
Validated: 1
EndChar

StartChar: two
Encoding: 50 50 21
Width: 1205
GlyphClass: 2
Flags: W
LayerCount: 2
Fore
SplineSet
797 1744 m 0,0,1
 970 1744 970 1744 1115 1496 c 1,2,3
 1138 1428 1138 1428 1144 1363 c 1,4,-1
 1138 1351 l 2,5,6
 1138 1345 1138 1345 1144 1334 c 1,7,8
 1144 1123 1144 1123 768 623 c 1,9,-1
 607 375 l 1,10,-1
 607 369 l 1,11,-1
 612 369 l 1,12,13
 723 392 723 392 843 404 c 0,14,15
 849 404 849 404 849 398 c 1,16,17
 914 410 914 410 999 410 c 1,18,19
 1082 392 1082 392 1103 392 c 0,20,21
 1131 392 1131 392 1490 467 c 1,22,-1
 1490 456 l 1,23,-1
 1432 439 l 1,24,-1
 1432 433 l 1,25,-1
 1444 433 l 1,26,-1
 1484 444 l 1,27,-1
 1484 439 l 1,28,29
 1448 394 1448 394 1271 283 c 1,30,-1
 1242 260 l 1,31,-1
 1271 260 l 1,32,33
 1241 222 1241 222 1028 127 c 1,34,35
 965 94 965 94 734 -6 c 1,36,37
 521 -133 521 -133 416 -133 c 1,38,39
 217 -265 217 -265 69 -289 c 1,40,41
 69 -283 69 -283 12 -260 c 1,42,-1
 12 -237 l 1,43,-1
 -29 -237 l 2,44,45
 -45 -237 -45 -237 -46 -208 c 1,46,-1
 -52 -208 l 1,47,48
 -52 -226 -52 -226 -64 -226 c 1,49,50
 -104 -185 -104 -185 -104 -168 c 0,51,52
 -104 -155 -104 -155 -110 -145 c 1,53,54
 -104 -135 -104 -135 -104 -122 c 1,55,56
 -127 -122 -127 -122 -127 -110 c 2,57,-1
 -127 -93 l 1,58,-1
 -121 -93 l 1,59,-1
 -104 -104 l 1,60,-1
 -104 -99 l 1,61,-1
 -110 -58 l 1,62,63
 -21 48 -21 48 64 167 c 1,64,65
 142 250 142 250 243 415 c 1,66,67
 336 509 336 509 514 831 c 0,68,69
 751 1261 751 1261 751 1461 c 0,70,71
 751 1488 751 1488 716 1501 c 1,72,73
 542 1341 542 1341 526 1241 c 1,74,75
 487 1137 487 1137 456 930 c 1,76,77
 404 867 404 867 358 860 c 1,78,79
 358 869 358 869 341 878 c 1,80,81
 323 851 323 851 323 843 c 1,82,-1
 295 849 l 1,83,-1
 295 837 l 1,84,-1
 248 837 l 1,85,86
 232 853 232 853 191 860 c 1,87,88
 144 912 144 912 144 970 c 2,89,-1
 144 1005 l 1,90,91
 121 1005 121 1005 121 1028 c 1,92,-1
 110 1022 l 1,93,94
 95 1022 95 1022 75 1091 c 1,95,96
 75 1421 75 1421 468 1680 c 0,97,98
 550 1738 550 1738 751 1738 c 1,99,100
 751 1744 751 1744 797 1744 c 0,0,1
EndSplineSet
Validated: 1
EndChar

StartChar: three
Encoding: 51 51 22
Width: 1785
GlyphClass: 2
Flags: W
LayerCount: 2
Fore
SplineSet
1545 1848 m 0,0,1
 1581 1848 1581 1848 1609 1822 c 1,2,-1
 1609 1816 l 1,3,-1
 1593 1795 l 1,4,-1
 1593 1790 l 1,5,-1
 1619 1758 l 1,6,-1
 1619 1753 l 1,7,-1
 1614 1726 l 1,8,9
 1624 1725 1624 1725 1624 1716 c 1,10,-1
 1603 1705 l 1,11,12
 1603 1700 1603 1700 1609 1700 c 1,13,14
 1609 1649 1609 1649 1318 1361 c 1,15,-1
 1260 1287 l 1,16,17
 1408 1287 1408 1287 1498 1319 c 1,18,19
 1535 1305 1535 1305 1646 1277 c 1,20,21
 1726 1244 1726 1244 1757 1150 c 1,22,23
 1820 1102 1820 1102 1820 1012 c 2,24,-1
 1820 981 l 2,25,26
 1820 708 1820 708 1408 341 c 0,27,28
 1019 -7 1019 -7 736 -109 c 1,29,30
 452 -241 452 -241 250 -288 c 1,31,-1
 250 -278 l 1,32,33
 262 -278 262 -278 329 -251 c 1,34,-1
 329 -241 l 1,35,36
 292 -257 292 -257 255 -262 c 1,37,-1
 255 -251 l 1,38,39
 265 -251 265 -251 345 -188 c 1,40,41
 352 -188 352 -188 488 -109 c 1,42,-1
 488 -103 l 1,43,-1
 482 -103 l 1,44,45
 450 -124 450 -124 345 -172 c 1,46,-1
 345 -167 l 1,47,-1
 398 -124 l 1,48,-1
 392 -124 l 1,49,50
 336 -156 336 -156 329 -156 c 1,51,-1
 329 -151 l 1,52,53
 378 -92 378 -92 413 -56 c 1,54,55
 408 -56 408 -56 408 -50 c 1,56,57
 443 -36 443 -36 450 -19 c 1,58,-1
 445 -19 l 1,59,60
 424 -29 424 -29 408 -29 c 1,61,62
 463 26 463 26 646 150 c 1,63,64
 755 261 755 261 1233 685 c 1,65,66
 1382 842 1382 842 1402 981 c 1,67,-1
 1392 986 l 1,68,69
 1383 981 1383 981 1371 981 c 1,70,-1
 1371 986 l 1,71,-1
 1360 981 l 1,72,-1
 1328 981 l 2,73,74
 1211 981 1211 981 1101 923 c 1,75,76
 1003 891 1003 891 916 870 c 1,77,78
 916 863 916 863 884 849 c 1,79,-1
 858 849 l 2,80,81
 840 849 840 849 831 854 c 1,82,83
 777 849 777 849 710 833 c 1,84,-1
 710 843 l 1,85,86
 641 822 641 822 625 822 c 0,87,88
 621 822 621 822 503 849 c 1,89,-1
 503 854 l 1,90,-1
 509 864 l 1,91,92
 493 864 493 864 493 870 c 0,93,94
 493 875 493 875 514 901 c 1,95,96
 509 911 509 911 509 923 c 1,97,98
 515 923 515 923 551 965 c 1,99,-1
 546 965 l 1,100,101
 481 944 481 944 472 944 c 1,102,-1
 472 954 l 1,103,104
 488 954 488 954 503 975 c 1,105,-1
 498 975 l 1,106,-1
 461 960 l 1,107,-1
 461 965 l 2,108,109
 461 984 461 984 715 1203 c 1,110,111
 819 1279 819 1279 842 1314 c 1,112,-1
 905 1383 l 1,113,-1
 900 1383 l 1,114,115
 682 1256 682 1256 276 1145 c 1,116,-1
 276 1155 l 1,117,-1
 308 1166 l 1,118,-1
 308 1171 l 1,119,-1
 302 1171 l 1,120,-1
 123 1134 l 1,121,-1
 123 1145 l 1,122,-1
 165 1161 l 1,123,-1
 165 1166 l 1,124,-1
 160 1166 l 1,125,126
 120 1155 120 1155 117 1155 c 1,127,-1
 117 1161 l 1,128,129
 141 1197 141 1197 287 1287 c 1,130,-1
 287 1293 l 1,131,132
 177 1272 177 1272 138 1240 c 1,133,-1
 112 1240 l 1,134,-1
 59 1235 l 1,135,136
 59 1245 59 1245 49 1245 c 2,137,-1
 17 1245 l 1,138,-1
 17 1256 l 1,139,-1
 27 1256 l 1,140,-1
 27 1261 l 1,141,-1
 17 1261 l 1,142,143
 17 1256 17 1256 12 1256 c 1,144,-1
 12 1261 l 1,145,-1
 33 1287 l 1,146,147
 27 1287 27 1287 27 1293 c 1,148,149
 38 1298 38 1298 43 1298 c 1,150,-1
 43 1303 l 1,151,-1
 33 1303 l 1,152,-1
 33 1309 l 1,153,-1
 96 1351 l 1,154,155
 27 1367 27 1367 27 1377 c 1,156,-1
 33 1388 l 1,157,158
 21 1388 21 1388 12 1430 c 1,159,160
 1 1430 1 1430 1 1441 c 1,161,-1
 22 1462 l 1,162,-1
 12 1462 l 1,163,-1
 12 1467 l 1,164,165
 17 1490 17 1490 144 1531 c 1,166,167
 149 1568 149 1568 160 1568 c 1,168,-1
 160 1557 l 1,169,-1
 165 1557 l 1,170,-1
 165 1568 l 1,171,172
 160 1568 160 1568 160 1573 c 1,173,-1
 165 1573 l 1,174,175
 217 1547 217 1547 228 1547 c 1,176,177
 241 1568 241 1568 382 1594 c 1,178,179
 945 1742 945 1742 1159 1742 c 1,180,181
 1461 1848 1461 1848 1545 1848 c 0,0,1
EndSplineSet
Validated: 1
EndChar

StartChar: four
Encoding: 52 52 23
Width: 1444
GlyphClass: 2
Flags: W
LayerCount: 2
Fore
SplineSet
1480 1836 m 0,0,1
 1491 1836 1491 1836 1491 1804 c 1,2,-1
 1533 1804 l 2,3,4
 1549 1804 1549 1804 1549 1725 c 1,5,-1
 1543 1704 l 1,6,7
 1554 1702 1554 1702 1554 1694 c 0,8,9
 1554 1655 1554 1655 1222 1108 c 1,10,-1
 1179 1018 l 1,11,-1
 1190 1018 l 1,12,13
 1305 1039 1305 1039 1322 1039 c 1,14,-1
 1322 1029 l 1,15,16
 1269 1020 1269 1020 1269 1008 c 1,17,-1
 1274 1008 l 1,18,19
 1319 1018 1319 1018 1332 1018 c 1,20,21
 1301 992 1301 992 1301 987 c 1,22,-1
 1311 987 l 1,23,-1
 1427 1008 l 1,24,-1
 1427 997 l 1,25,26
 1383 981 1383 981 1380 981 c 1,27,-1
 1380 976 l 1,28,-1
 1385 976 l 1,29,30
 1425 987 1425 987 1433 987 c 1,31,-1
 1433 981 l 1,32,33
 1384 926 1384 926 1195 834 c 1,34,35
 1016 732 1016 732 1016 723 c 1,36,37
 666 53 666 53 430 -285 c 1,38,39
 212 -574 212 -574 193 -586 c 1,40,41
 188 -575 188 -575 188 -570 c 1,42,-1
 177 -575 l 1,43,-1
 172 -575 l 1,44,45
 172 -559 172 -559 167 -538 c 1,46,47
 181 -468 181 -468 261 -269 c 1,48,-1
 261 -264 l 1,49,-1
 256 -264 l 1,50,51
 184 -401 184 -401 151 -433 c 1,52,-1
 151 -422 l 1,53,54
 167 -392 167 -392 182 -348 c 1,55,56
 172 -348 172 -348 140 -422 c 1,57,-1
 130 -422 l 1,58,59
 130 -358 130 -358 272 16 c 1,60,61
 344 251 344 251 509 538 c 1,62,-1
 509 549 l 1,63,64
 271 475 271 475 203 475 c 0,65,66
 162 475 162 475 145 507 c 1,67,68
 151 516 151 516 151 528 c 1,69,70
 129 528 129 528 108 522 c 1,71,-1
 82 528 l 1,72,73
 13 501 13 501 -23 501 c 0,74,75
 -45 501 -45 501 -55 522 c 1,76,-1
 -55 528 l 1,77,-1
 -50 538 l 1,78,79
 -80 538 -80 538 -92 565 c 1,80,-1
 -81 580 l 1,81,-1
 -92 596 l 1,82,83
 -92 606 -92 606 -55 654 c 1,84,-1
 325 1229 l 1,85,86
 399 1317 399 1317 515 1509 c 1,87,88
 688 1751 688 1751 726 1783 c 1,89,90
 749 1762 749 1762 752 1762 c 2,91,-1
 773 1778 l 1,92,-1
 794 1778 l 1,93,-1
 826 1746 l 1,94,95
 862 1778 862 1778 889 1778 c 1,96,97
 891 1767 891 1767 900 1767 c 1,98,-1
 916 1778 l 1,99,100
 947 1764 947 1764 947 1757 c 1,101,102
 942 1757 942 1757 942 1752 c 1,103,-1
 953 1746 l 1,104,105
 962 1752 962 1752 974 1752 c 1,106,-1
 974 1720 l 1,107,108
 984 1711 984 1711 990 1646 c 1,109,110
 982 1646 982 1646 963 1583 c 1,111,112
 958 1583 958 1583 942 1562 c 1,113,-1
 947 1551 l 1,114,-1
 947 1546 l 1,115,116
 594 1076 594 1076 504 971 c 2,117,-1
 425 881 l 1,118,-1
 436 881 l 1,119,120
 687 981 687 981 810 981 c 1,121,122
 1067 1419 1067 1419 1317 1767 c 1,123,-1
 1338 1783 l 1,124,-1
 1343 1783 l 1,125,-1
 1364 1762 l 1,126,127
 1443 1836 1443 1836 1480 1836 c 0,0,1
EndSplineSet
Validated: 1
EndChar

StartChar: five
Encoding: 53 53 24
Width: 1357
GlyphClass: 2
Flags: W
LayerCount: 2
Fore
SplineSet
1252 1839 m 0,0,1
 1269 1839 1269 1839 1484 1802 c 1,2,-1
 1484 1793 l 1,3,-1
 1474 1793 l 1,4,-1
 1474 1788 l 1,5,6
 1522 1783 1522 1783 1530 1783 c 1,7,-1
 1530 1774 l 1,8,-1
 1516 1774 l 2,9,10
 1490 1774 1490 1774 1405 1746 c 1,11,-1
 1405 1742 l 1,12,-1
 1414 1742 l 1,13,14
 1470 1746 1470 1746 1498 1746 c 1,15,-1
 1498 1737 l 1,16,17
 1467 1728 1467 1728 1456 1728 c 2,18,-1
 1446 1728 l 1,19,-1
 1446 1718 l 1,20,-1
 1423 1723 l 1,21,-1
 1419 1723 l 1,22,23
 1419 1714 1419 1714 1414 1714 c 0,24,25
 1411 1714 1411 1714 1386 1718 c 1,26,-1
 1381 1718 l 1,27,-1
 1381 1714 l 1,28,-1
 1391 1714 l 1,29,-1
 1391 1704 l 1,30,31
 1383 1704 1383 1704 1354 1695 c 1,32,-1
 1354 1686 l 1,33,-1
 1395 1686 l 1,34,-1
 1395 1677 l 1,35,36
 1323 1643 1323 1643 1103 1612 c 1,37,-1
 1098 1602 l 1,38,39
 1098 1593 1098 1593 1112 1593 c 1,40,-1
 1112 1584 l 1,41,-1
 1108 1584 l 1,42,43
 821 1533 821 1533 695 1491 c 1,44,45
 619 1491 619 1491 583 1440 c 1,46,47
 560 1439 560 1439 532 1366 c 1,48,49
 495 1315 495 1315 495 1301 c 1,50,51
 818 1389 818 1389 955 1389 c 2,52,-1
 959 1389 l 2,53,54
 1021 1389 1021 1389 1205 1287 c 1,55,56
 1289 1209 1289 1209 1289 1148 c 2,57,-1
 1289 1120 l 2,58,59
 1289 1004 1289 1004 1131 841 c 1,60,61
 1056 665 1056 665 504 34 c 1,62,63
 383 -88 383 -88 -52 -444 c 1,64,-1
 -57 -444 l 1,65,66
 3 -382 3 -382 3 -375 c 1,67,-1
 -1 -375 l 1,68,-1
 -62 -426 l 1,69,-1
 -66 -426 l 1,70,71
 -39 -367 -39 -367 110 -189 c 1,72,-1
 105 -189 l 1,73,-1
 -271 -449 l 1,74,-1
 -280 -449 l 1,75,-1
 -252 -416 l 1,76,-1
 -257 -416 l 1,77,78
 -278 -435 -278 -435 -289 -435 c 1,79,80
 -275 -414 -275 -414 -275 -402 c 1,81,82
 -398 -481 -398 -481 -419 -481 c 2,83,-1
 -424 -481 l 1,84,-1
 -359 -430 l 1,85,-1
 -363 -430 l 1,86,87
 -425 -467 -425 -467 -433 -467 c 1,88,-1
 -433 -463 l 2,89,90
 -433 -452 -433 -452 -80 -101 c 1,91,92
 630 617 630 617 843 906 c 1,93,94
 936 1024 936 1024 936 1041 c 1,95,96
 901 1055 901 1055 834 1055 c 2,97,-1
 792 1055 l 1,98,99
 612 1006 612 1006 421 897 c 0,100,101
 250 798 250 798 175 739 c 1,102,103
 125 688 125 688 91 688 c 1,104,105
 91 697 91 697 82 697 c 1,106,107
 15 652 15 652 -85 563 c 1,108,-1
 -113 558 l 1,109,110
 -117 567 -117 567 -117 572 c 1,111,-1
 -141 567 l 1,112,-1
 -145 567 l 2,113,114
 -155 567 -155 567 -155 577 c 1,115,116
 -150 577 -150 577 -150 581 c 1,117,118
 -168 581 -168 581 -168 595 c 2,119,-1
 -168 609 l 2,120,121
 -168 651 -168 651 -113 767 c 1,122,123
 -113 850 -113 850 45 1161 c 1,124,125
 71 1301 71 1301 198 1514 c 1,126,127
 240 1605 240 1605 240 1616 c 1,128,-1
 226 1635 l 1,129,-1
 226 1663 l 1,130,131
 206 1663 206 1663 198 1681 c 1,132,133
 198 1723 198 1723 235 1723 c 0,134,135
 932 1788 932 1788 1159 1834 c 0,136,137
 1172 1834 1172 1834 1252 1839 c 0,0,1
193 1718 m 1,138,-1
 198 1709 l 1,139,-1
 198 1704 l 1,140,-1
 193 1704 l 2,141,142
 184 1704 184 1704 184 1714 c 1,143,-1
 193 1718 l 1,138,-1
EndSplineSet
Validated: 1
EndChar

StartChar: six
Encoding: 54 54 25
Width: 1392
GlyphClass: 2
Flags: W
LayerCount: 2
Fore
SplineSet
622 1733 m 1,1,-1
 626 1733 l 1,2,3
 637 1740 637 1740 646 1740 c 1,4,-1
 646 1737 l 1,5,-1
 632 1719 l 1,6,-1
 636 1719 l 1,7,-1
 816 1820 l 1,8,-1
 795 1806 l 1,9,-1
 799 1806 l 1,10,11
 816 1816 816 1816 826 1816 c 1,12,13
 826 1813 826 1813 833 1813 c 0,14,15
 862 1813 862 1813 1008 1860 c 0,16,17
 1189 1917 1189 1917 1362 1917 c 0,18,19
 1450 1917 1450 1917 1542 1879 c 1,20,-1
 1542 1872 l 1,21,-1
 1525 1875 l 1,22,-1
 1518 1875 l 1,23,-1
 1518 1872 l 1,24,-1
 1539 1868 l 1,25,-1
 1539 1865 l 1,26,27
 1523 1851 1523 1851 1387 1816 c 1,28,-1
 1387 1813 l 1,29,30
 1447 1801 1447 1801 1497 1771 c 1,31,-1
 1497 1764 l 1,32,-1
 1483 1764 l 1,33,-1
 1483 1761 l 1,34,-1
 1490 1761 l 1,35,-1
 1490 1757 l 1,36,37
 1467 1741 1467 1741 1369 1716 c 1,38,39
 1303 1688 1303 1688 1169 1657 c 1,40,41
 1169 1649 1169 1649 1193 1647 c 1,42,-1
 1193 1640 l 1,43,-1
 1189 1640 l 1,44,-1
 1158 1643 l 1,45,46
 1158 1636 1158 1636 1186 1633 c 1,47,-1
 1186 1626 l 1,48,49
 1155 1615 1155 1615 1089 1605 c 1,50,-1
 1089 1602 l 1,51,-1
 1203 1567 l 1,52,-1
 1203 1564 l 1,53,54
 1171 1550 1171 1550 1099 1533 c 1,55,-1
 1099 1529 l 1,56,-1
 1113 1529 l 1,57,-1
 1113 1526 l 2,58,59
 1113 1520 1113 1520 1051.5 1497 c 128,-1,60
 990 1474 990 1474 958 1474 c 1,61,62
 779 1428 779 1428 740 1411 c 0,63,64
 734 1407 734 1407 727 1404 c 1,65,-1
 520 1687 l 1,66,0
 589 1724 589 1724 622 1733 c 1,1,-1
726 1366 m 0,67,68
 566 1217 566 1217 550 1189 c 1,69,-1
 557 1189 l 1,70,71
 831 1335 831 1335 1031 1335 c 2,72,-1
 1055 1335 l 1,73,-1
 1076 1338 l 1,74,75
 1206 1338 1206 1338 1297 1262 c 0,76,77
 1360 1205 1360 1205 1360 1158 c 1,78,-1
 1353 1158 l 1,79,80
 1353 1172 1353 1172 1346 1172 c 1,81,-1
 1349 1155 l 1,82,-1
 1349 1151 l 1,83,-1
 1346 1151 l 1,84,85
 1299 1186 1299 1186 1283 1186 c 1,86,-1
 1283 1183 l 1,87,88
 1335 1111 1335 1111 1345 1045 c 0,89,90
 1354 999 1354 999 1354 977 c 2,91,-1
 1354 959 l 2,92,93
 1354 782 1354 782 1317 567 c 1,94,95
 1163 263 1163 263 1026 91 c 1,96,97
 983 27 983 27 972 7 c 0,98,99
 941 -53 941 -53 867 -73 c 2,100,-1
 824 -85 l 2,101,102
 778 -97 778 -97 715 -102 c 0,103,104
 622 -115 622 -115 515 -115 c 2,105,-1
 488 -115 l 2,106,107
 464 -115 464 -115 412 -97 c 1,108,-1
 412 -91 l 1,109,-1
 432 -94 l 1,110,-1
 446 -94 l 1,111,-1
 446 -91 l 1,112,-1
 422 -87 l 1,113,-1
 422 -84 l 2,114,115
 422 -77 422 -77 450 -70 c 1,116,-1
 450 -66 l 1,117,118
 289 -21 289 -21 225 17 c 1,119,-1
 228 17 l 2,120,121
 235 17 235 17 263 10 c 1,122,-1
 266 10 l 1,123,-1
 266 13 l 1,124,-1
 232 24 l 1,125,-1
 232 31 l 1,126,-1
 249 31 l 1,127,128
 197 73 197 73 137 111 c 1,129,-1
 99 155 l 1,130,131
 43 213 43 213 9 294 c 1,132,133
 11 305 11 305 11 320 c 0,134,135
 11 331 11 331 10 345 c 1,136,137
 3 345 3 345 3 349 c 2,138,-1
 7 366 l 1,139,-1
 0 370 l 1,140,-1
 3 387 l 2,141,142
 3 394 3 394 0 394 c 1,143,144
 0 440 0 440 8 558 c 1,145,-1
 -10 663 l 1,146,-1
 -3 774 l 1,147,-1
 43 1008 l 1,148,149
 90 1210 90 1210 217 1361 c 128,-1,150
 344 1512 344 1512 488 1663 c 1,151,152
 488 1681 488 1681 537 1704 c 1,153,-1
 826 1439 l 1,154,155
 762 1397 762 1397 726 1366 c 0,67,68
426 620 m 0,156,157
 426 442 426 442 527 330 c 1,158,159
 553 308 553 308 570 306 c 0,160,161
 672 306 672 306 859 438 c 1,162,163
 954 526 954 526 1001 648 c 1,164,165
 1035 705 1035 705 1035 799 c 1,166,167
 1010 888 1010 888 951 924 c 1,168,169
 939 939 939 939 872 951 c 1,170,171
 829 951 829 951 658 888 c 1,172,173
 516 769 516 769 445 656 c 0,174,175
 426 625 426 625 426 620 c 0,156,157
744 172 m 1,176,-1
 744 165 l 1,177,178
 810 186 810 186 848 238 c 1,179,-1
 848 245 l 1,180,-1
 844 245 l 1,181,182
 755 172 755 172 744 172 c 1,176,-1
EndSplineSet
Validated: 5
EndChar

StartChar: seven
Encoding: 55 55 26
Width: 1311
GlyphClass: 2
Flags: W
LayerCount: 2
Fore
SplineSet
1536 2029 m 0,0,1
 1569 2025 1569 2025 1569 2014 c 2,2,-1
 1569 2006 l 1,3,-1
 1566 1999 l 1,4,-1
 1569 1999 l 1,5,6
 1576 2003 1576 2003 1584 2003 c 1,7,-1
 1584 1999 l 1,8,-1
 1577 1988 l 1,9,-1
 1577 1980 l 1,10,11
 1588 1964 1588 1964 1588 1943 c 1,12,13
 1567 1928 1567 1928 1558 1928 c 1,14,-1
 1558 1924 l 1,15,-1
 1562 1905 l 1,16,17
 1409 1766 1409 1766 1337 1658 c 1,18,-1
 1326 1635 l 1,19,-1
 1326 1631 l 1,20,-1
 1329 1613 l 1,21,22
 1296 1554 1296 1554 1168 1377 c 1,23,24
 1022 1146 1022 1146 1022 1140 c 1,25,-1
 1026 1140 l 2,26,27
 1032 1140 1032 1140 1075 1152 c 1,28,-1
 1075 1144 l 1,29,30
 1068 1144 1068 1144 1033 1133 c 1,31,-1
 1033 1129 l 1,32,-1
 1037 1129 l 1,33,34
 1054 1137 1054 1137 1071 1137 c 1,35,-1
 1071 1129 l 1,36,-1
 1063 1129 l 1,37,-1
 1063 1125 l 1,38,-1
 1075 1125 l 1,39,40
 1344 1163 1344 1163 1356 1163 c 1,41,-1
 1356 1155 l 1,42,-1
 1303 1144 l 1,43,-1
 1303 1140 l 1,44,-1
 1311 1140 l 1,45,-1
 1359 1148 l 1,46,-1
 1359 1140 l 1,47,48
 1318 1114 1318 1114 1101 1032 c 1,49,50
 1097 1026 1097 1026 1041 1006 c 1,51,-1
 1041 1002 l 1,52,-1
 1048 1002 l 1,53,-1
 1048 994 l 1,54,55
 1004 983 1004 983 1000 983 c 1,56,-1
 1000 979 l 1,57,-1
 1007 979 l 2,58,59
 1012 979 1012 979 1048 987 c 1,60,-1
 1048 979 l 1,61,62
 1010 955 1010 955 891 908 c 1,63,64
 768 684 768 684 621 327 c 1,65,66
 396 -266 396 -266 396 -392 c 1,67,-1
 389 -392 l 1,68,-1
 389 -336 l 1,69,-1
 385 -336 l 1,70,-1
 381 -374 l 1,71,-1
 381 -385 l 1,72,-1
 374 -385 l 1,73,74
 355 -334 355 -334 355 -306 c 2,75,-1
 355 -179 l 1,76,-1
 351 -179 l 1,77,78
 239 -642 239 -642 239 -782 c 1,79,-1
 231 -782 l 1,80,-1
 227 -756 l 1,81,-1
 220 -760 l 1,82,-1
 224 -767 l 1,83,-1
 224 -786 l 1,84,-1
 216 -786 l 1,85,86
 160 -687 160 -687 160 -516 c 0,87,88
 160 -314 160 -314 269 16 c 0,89,90
 288 62 288 62 295 102 c 1,91,92
 287 141 287 141 287 155 c 0,93,94
 290 239 290 239 411 593 c 1,95,-1
 490 754 l 1,96,-1
 482 754 l 1,97,98
 251 683 251 683 212 676 c 1,99,100
 123 676 123 676 123 702 c 1,101,-1
 115 698 l 1,102,-1
 111 698 l 1,103,104
 111 716 111 716 96 728 c 1,105,106
 100 735 100 735 100 739 c 2,107,-1
 96 747 l 1,108,109
 98 759 98 759 130 796 c 1,110,-1
 130 807 l 1,111,-1
 126 822 l 1,112,-1
 145 856 l 1,113,114
 145 852 145 852 149 852 c 1,115,116
 149 887 149 887 460 1002 c 1,117,118
 630 1040 630 1040 644 1047 c 1,119,120
 746 1264 746 1264 910 1497 c 1,121,122
 1022 1648 1022 1648 1026 1661 c 1,123,124
 810 1595 810 1595 186 1508 c 1,125,-1
 186 1512 l 1,126,127
 186 1504 186 1504 25 1497 c 1,128,-1
 -1 1497 l 2,129,130
 -23 1497 -23 1497 -39 1519 c 1,131,-1
 -35 1545 l 1,132,-1
 -84 1572 l 1,133,-1
 -84 1579 l 1,134,-1
 -76 1590 l 1,135,-1
 -76 1598 l 1,136,137
 -99 1598 -99 1598 -99 1620 c 1,138,139
 -91 1620 -91 1620 -87 1650 c 1,140,141
 -68 1665 -68 1665 -61 1665 c 1,142,-1
 -61 1676 l 1,143,144
 -82 1693 -82 1693 -95 1718 c 1,145,-1
 -80 1751 l 1,146,147
 -84 1759 -84 1759 -84 1763 c 2,148,-1
 -54 1785 l 1,149,-1
 -46 1781 l 2,150,151
 -41 1781 -41 1781 -27 1800 c 1,152,153
 719 1909 719 1909 902 1909 c 0,154,155
 1095 1913 1095 1913 1127 1913 c 1,156,157
 1515 2029 1515 2029 1536 2029 c 0,0,1
355 -168 m 1,158,-1
 355 -175 l 1,159,-1
 359 -175 l 1,160,-1
 359 -168 l 1,161,-1
 355 -168 l 1,158,-1
EndSplineSet
Validated: 1
EndChar

StartChar: eight
Encoding: 56 56 27
Width: 1420
GlyphClass: 2
Flags: W
LayerCount: 2
Fore
SplineSet
866 1894 m 1,0,1
 1041 1850 1041 1850 1156 1753 c 1,2,-1
 1160 1753 l 1,3,4
 1156 1785 1156 1785 1153 1790 c 1,5,-1
 1160 1790 l 1,6,-1
 1172 1769 l 1,7,-1
 1175 1769 l 1,8,-1
 1167 1790 l 1,9,-1
 1174 1790 l 1,10,11
 1207 1763 1207 1763 1234 1713 c 2,12,-1
 1258 1668 l 2,13,14
 1273 1641 1273 1641 1286 1579 c 0,15,16
 1288 1569 1288 1569 1292 1562 c 2,17,-1
 1293 1560 l 1,18,-1
 1296 1560 l 1,19,20
 1321 1606 1321 1606 1321 1615 c 2,21,-1
 1321 1616 l 1,22,-1
 1328 1616 l 1,23,-1
 1331 1593 l 1,24,25
 1336 1593 1336 1593 1336 1603 c 2,26,-1
 1336 1609 l 1,27,-1
 1343 1609 l 1,28,29
 1348 1599 1348 1599 1357 1590 c 1,30,31
 1362 1544 1362 1544 1362 1508 c 0,32,33
 1362 1432 1362 1432 1342 1400 c 0,34,35
 1339 1400 1339 1400 1326 1371 c 1,36,-1
 1329 1371 l 1,37,38
 1339 1378 1339 1378 1346 1378 c 1,39,-1
 1325 1353 l 1,40,-1
 1329 1353 l 1,41,-1
 1355 1369 l 1,42,-1
 1358 1369 l 1,43,-1
 1360 1367 l 1,44,-1
 1360 1366 l 2,45,46
 1360 1347 1360 1347 1301 1282 c 0,47,48
 1181 1151 1181 1151 1114 1138 c 1,49,50
 1021 1091 1021 1091 947 1087 c 1,51,-1
 949 1082 l 1,52,53
 1157 938 1157 938 1247 773 c 1,54,-1
 1264 740 l 2,55,56
 1267 735 1267 735 1273 731 c 1,57,-1
 1273 730 l 2,58,59
 1273 729 1273 729 1271 729 c 1,60,-1
 1282 715 l 1,61,62
 1416 470 1416 470 1416 351 c 2,63,-1
 1416 347 l 1,64,65
 1422 283 1422 283 1422 250 c 0,66,67
 1422 227 1422 227 1419 220 c 2,68,-1
 1425 157 l 1,69,-1
 1418 157 l 1,70,71
 1413 193 1413 193 1411 197 c 0,72,73
 1407 197 1407 197 1407 185 c 0,74,75
 1407 176 1407 176 1409 161 c 1,76,-1
 1402 161 l 1,77,-1
 1398 175 l 2,78,79
 1397 178 1397 178 1384 194 c 1,80,-1
 1373 227 l 1,81,-1
 1372 230 l 1,82,-1
 1368 230 l 1,83,84
 1374 210 1374 210 1374 187 c 0,85,86
 1374 110 1374 110 1311 -11 c 1,87,88
 1320 -28 1320 -28 1320 -42 c 0,89,90
 1320 -79 1320 -79 1256 -91 c 1,91,92
 1232 -91 1232 -91 1169 -135 c 1,93,-1
 1159 -135 l 1,94,-1
 1176 -116 l 1,95,-1
 1173 -116 l 1,96,97
 1123 -159 1123 -159 1039 -159 c 2,98,-1
 1035 -159 l 1,99,-1
 1034 -156 l 1,100,-1
 1028 -159 l 2,101,102
 1025 -159 1025 -159 1024 -156 c 0,103,104
 1021 -156 1021 -156 1021 -158 c 2,105,-1
 1021 -159 l 1,106,107
 958 -154 958 -154 915 -149 c 1,108,109
 754 -161 754 -161 684 -161 c 2,110,-1
 674 -161 l 1,111,-1
 671 -156 l 1,112,113
 702 -156 702 -156 702 -150 c 2,114,-1
 702 -149 l 1,115,-1
 686 -152 l 1,116,-1
 665 -152 l 1,117,-1
 662 -147 l 1,118,119
 705 -128 705 -128 715 -128 c 1,120,-1
 714 -126 l 1,121,122
 491 -89 491 -89 400 -36 c 0,123,124
 273 36 273 36 266 48 c 1,125,-1
 284 41 l 1,126,-1
 288 41 l 1,127,-1
 271 53 l 1,128,-1
 269 55 l 1,129,130
 301 51 301 51 351 34 c 1,131,-1
 349 37 l 1,132,133
 332 37 332 37 187 213 c 0,134,135
 180 220 180 220 165 246 c 2,136,-1
 164 248 l 2,137,138
 161 254 161 254 156 258 c 1,139,-1
 157 263 l 2,140,141
 155 265 155 265 149 270 c 0,142,143
 145 277 145 277 144 286 c 0,144,145
 116 331 116 331 107 347 c 0,146,147
 67 421 67 421 39 587 c 1,148,149
 12 602 12 602 -2 618 c 1,150,-1
 -2 619 l 2,151,152
 -2 620 -2 620 0 620 c 1,153,-1
 -10 632 l 1,154,155
 -16 650 -16 650 -16 672 c 0,156,157
 -16 762 -16 762 91 908 c 0,158,159
 154 998 154 998 252 1075 c 0,160,161
 366 1164 366 1164 455 1202 c 1,162,163
 445 1220 445 1220 444 1254 c 1,164,165
 432 1275 432 1275 391 1305 c 1,166,167
 400 1307 400 1307 400 1314 c 2,168,-1
 400 1315 l 2,169,170
 399 1317 399 1317 393 1322 c 0,171,172
 356 1422 356 1422 356 1482 c 0,173,174
 356 1501 356 1501 360 1517 c 0,175,176
 404 1742 404 1742 629 1830 c 1,177,-1
 773 1861 l 1,178,-1
 771 1863 l 1,179,180
 747 1876 747 1876 746 1878 c 1,181,-1
 753 1878 l 2,182,183
 761 1875 761 1875 765 1875 c 1,184,-1
 749 1885 l 1,185,-1
 748 1887 l 1,186,-1
 762 1887 l 2,187,188
 790 1887 790 1887 881 1868 c 1,189,-1
 879 1870 l 2,190,191
 862 1882 862 1882 860 1887 c 1,192,-1
 863 1887 l 1,193,-1
 872 1885 l 1,194,-1
 870 1887 l 1,195,-1
 864 1892 l 1,196,197
 867 1892 867 1892 867 1893 c 2,198,-1
 866 1894 l 1,0,1
601 1491 m 1,199,200
 607 1487 607 1487 608 1484 c 1,201,202
 605 1484 605 1484 605 1483 c 2,203,-1
 606 1482 l 1,204,-1
 623 1482 l 1,205,-1
 627 1475 l 1,206,207
 616 1474 616 1474 616 1470 c 0,208,209
 616 1469 616 1469 617 1468 c 2,210,-1
 631 1468 l 1,211,-1
 632 1466 l 1,212,213
 575 1416 575 1416 575 1389 c 0,214,215
 575 1386 575 1386 576 1383 c 2,216,-1
 582 1378 l 1,217,-1
 591 1362 l 2,218,219
 602 1341 602 1341 613 1315 c 1,220,221
 642 1275 642 1275 677 1275 c 1,222,-1
 682 1277 l 1,223,224
 690 1275 690 1275 694 1275 c 0,225,226
 701 1275 701 1275 803 1324 c 0,227,228
 851 1343 851 1343 930 1367 c 1,229,230
 981 1449 981 1449 981 1521 c 0,231,232
 981 1569 981 1569 958 1612 c 1,233,-1
 955 1616 l 1,234,235
 916 1675 916 1675 878 1675 c 0,236,237
 747 1665 747 1665 677 1614 c 1,238,239
 621 1549 621 1549 601 1491 c 1,199,200
403 409 m 2,240,241
 475 336 475 336 572 320 c 1,242,243
 625 305 625 305 693 305 c 0,244,245
 723 305 723 305 755 308 c 1,246,-1
 758 309 l 2,247,248
 820 330 820 330 886 430 c 1,249,250
 941 562 941 562 941 572 c 0,251,252
 911 715 911 715 903 782 c 0,253,254
 898 816 898 816 890 835 c 1,255,256
 787 928 787 928 771 943 c 0,257,258
 765 946 765 946 763 947 c 1,259,-1
 766 948 l 1,260,261
 676 1024 676 1024 635 1036 c 1,262,-1
 632 1036 l 2,263,264
 628 1036 628 1036 623 1041 c 1,265,266
 616 1039 616 1039 494 955 c 1,267,-1
 437 920 l 1,268,269
 352 843 352 843 315 710 c 0,270,271
 305 666 305 666 305 626 c 0,272,273
 305 507 305 507 394 418 c 2,274,-1
 403 409 l 2,240,241
1405 206 m 1,275,-1
 1409 199 l 1,276,-1
 1413 199 l 1,277,-1
 1409 206 l 1,278,-1
 1405 206 l 1,275,-1
836 -36 m 2,279,-1
 825 -36 l 1,280,-1
 800 -34 l 1,281,282
 839 -53 839 -53 869 -53 c 2,283,-1
 890 -53 l 2,284,285
 935 -53 935 -53 1008 -20 c 1,286,-1
 1017 -3 l 1,287,-1
 1016 -1 l 1,288,289
 952 -36 952 -36 836 -36 c 2,279,-1
EndSplineSet
Validated: 1
EndChar

StartChar: nine
Encoding: 57 57 28
Width: 1247
GlyphClass: 2
Flags: W
LayerCount: 2
Fore
SplineSet
900 1816 m 1,0,-1
 900 1809 l 1,1,-1
 872 1798 l 1,2,-1
 872 1795 l 1,3,-1
 875 1795 l 1,4,5
 901 1805 901 1805 907 1805 c 1,6,-1
 907 1798 l 1,7,8
 894 1798 894 1798 886 1777 c 1,9,-1
 889 1777 l 1,10,11
 979 1798 979 1798 1075 1798 c 2,12,-1
 1100 1798 l 2,13,14
 1247 1798 1247 1798 1332 1693 c 1,15,16
 1385 1643 1385 1643 1385 1619 c 1,17,-1
 1381 1619 l 1,18,-1
 1371 1626 l 1,19,-1
 1371 1623 l 1,20,-1
 1378 1609 l 1,21,22
 1366 1604 1366 1604 1328 1493 c 1,23,24
 1216 1250 1216 1250 865 414 c 1,25,-1
 763 154 l 1,26,27
 620 -141 620 -141 387 -542 c 1,28,29
 302 -659 302 -659 137 -855 c 1,30,-1
 137 -848 l 1,31,-1
 162 -806 l 1,32,-1
 162 -802 l 1,33,-1
 158 -802 l 1,34,35
 158 -810 158 -810 127 -844 c 1,36,-1
 123 -844 l 1,37,38
 124 -812 124 -812 193 -672 c 1,39,40
 142 -732 142 -732 137 -732 c 1,41,-1
 137 -728 l 1,42,-1
 165 -683 l 1,43,-1
 158 -683 l 1,44,45
 116 -744 116 -744 116 -750 c 1,46,-1
 109 -750 l 1,47,-1
 112 -732 l 1,48,-1
 105 -735 l 1,49,-1
 102 -735 l 1,50,51
 105 -688 105 -688 120 -637 c 1,52,-1
 11 -788 l 1,53,-1
 11 -781 l 1,54,-1
 35 -732 l 1,55,-1
 28 -732 l 1,56,-1
 4 -778 l 1,57,-1
 -3 -778 l 1,58,59
 -3 -753 -3 -753 4 -753 c 1,60,61
 4 -750 4 -750 0 -750 c 1,62,63
 38 -639 38 -639 264 -187 c 1,64,65
 418 68 418 68 485 235 c 1,66,67
 580 423 580 423 692 677 c 1,68,-1
 685 677 l 1,69,70
 550 607 550 607 432 607 c 2,71,-1
 418 607 l 2,72,73
 257 607 257 607 137 684 c 1,74,75
 61 755 61 755 56 755 c 0,76,77
 20 755 20 755 4 811 c 0,78,79
 -7 836 -7 836 -7 899 c 2,80,-1
 -7 951 l 2,81,82
 -7 1180 -7 1180 130 1387 c 1,83,84
 257 1521 257 1521 348 1581 c 0,85,86
 408 1623 408 1623 422 1623 c 1,87,-1
 394 1595 l 1,88,89
 424 1612 424 1612 429 1612 c 1,90,-1
 425 1605 l 1,91,-1
 432 1602 l 1,92,93
 543 1687 543 1687 685 1742 c 0,94,95
 880 1816 880 1816 900 1816 c 1,0,-1
547 1375 m 1,96,-1
 550 1362 l 1,97,-1
 537 1354 l 1,98,-1
 539 1349 l 1,99,-1
 539 1344 l 1,100,101
 535 1334 535 1334 521 1334 c 2,102,-1
 513 1334 l 1,103,-1
 501 1336 l 1,104,105
 416 1238 416 1238 405 1146 c 0,106,107
 403 1132 403 1132 403 1120 c 2,108,-1
 403 1102 l 2,109,110
 403 1050 403 1050 490 1025 c 0,111,112
 509 1022 509 1022 511 1022 c 0,113,114
 614 1022 614 1022 632 1038 c 1,115,116
 746 1109 746 1109 838 1195 c 1,117,118
 880 1226 880 1226 969 1442 c 1,119,120
 966 1447 966 1447 966 1450 c 1,121,122
 972 1450 972 1450 972 1455 c 0,123,124
 929 1496 929 1496 882 1496 c 1,125,-1
 871 1491 l 1,126,127
 866 1501 866 1501 863 1501 c 0,128,129
 741 1495 741 1495 629 1439 c 1,130,131
 563 1401 563 1401 547 1375 c 1,96,-1
485 825 m 1,132,-1
 485 821 l 1,133,134
 518 821 518 821 534 818 c 1,135,136
 562 826 562 826 562 832 c 1,137,138
 510 825 510 825 485 825 c 1,132,-1
EndSplineSet
Validated: 1
EndChar

StartChar: greater
Encoding: 62 62 33
Width: 1739
GlyphClass: 2
Flags: W
LayerCount: 2
Fore
SplineSet
1714 989 m 1,1,-1
 1755 992 l 1,2,-1
 1756 992 l 2,3,4
 1763 992 1763 992 1769 986 c 1,5,6
 1650 919 1650 919 1651 902 c 1,7,8
 1669 903 1669 903 1687 906 c 1,9,-1
 1699 905 l 2,10,11
 1723 906 1723 906 1796 921 c 1,12,-1
 1804 922 l 1,13,-1
 1838 922 l 2,14,15
 1840 923 1840 923 1844 924 c 0,16,17
 1852 926 1852 926 1866 927 c 2,18,-1
 1898 929 l 2,19,20
 1907 927 1907 927 1917 927 c 2,21,-1
 1920 927 l 1,22,-1
 1915 890 l 1,23,-1
 1923 890 l 1,24,-1
 1958 896 l 1,25,-1
 1942 890 l 1,26,27
 1985 890 1985 890 1978 887 c 2,28,-1
 1960 882 l 1,29,-1
 1968 883 l 1,30,31
 1868 842 1868 842 1746 759 c 1,32,33
 1559 618 1559 618 1222 432 c 1,34,35
 1021 291 1021 291 388 -32 c 0,36,37
 387 -32 387 -32 381 -34 c 0,38,39
 367 -37 367 -37 333 -50 c 1,40,-1
 316 -51 l 1,41,42
 353 -30 353 -30 339 -30 c 2,43,-1
 337 -30 l 1,44,-1
 288 -59 l 1,45,-1
 271 -60 l 1,46,47
 281 -57 281 -57 300 -34 c 1,48,-1
 292 -35 l 1,49,-1
 273 -43 l 1,50,-1
 264 -43 l 1,51,-1
 263 -43 l 2,52,53
 250 -43 250 -43 276 -27 c 1,54,-1
 267 -27 l 1,55,-1
 261 -30 l 2,56,57
 235 -43 235 -43 234 -47 c 2,58,-1
 206 -56 l 1,59,-1
 4 -148 l 1,60,61
 -55 -166 -55 -166 -67 -172 c 1,62,-1
 -84 -173 l 1,63,64
 -73 -168 -73 -168 -40 -146 c 1,65,-1
 -47 -146 l 1,66,-1
 -52 -148 l 1,67,68
 -104 -176 -104 -176 -105 -179 c 2,69,-1
 -122 -180 l 1,70,71
 92 -10 92 -10 229 87 c 1,72,-1
 221 87 l 1,73,-1
 216 85 l 1,74,-1
 168 50 l 1,75,-1
 151 49 l 1,76,77
 199 99 199 99 196 99 c 1,78,79
 472 385 472 385 1291 866 c 0,80,81
 1297 866 1297 866 1301 867 c 0,82,83
 1303 868 1303 868 1304 868 c 0,84,85
 1323 885 1323 885 1416 935 c 1,86,-1
 1434 939 l 1,87,-1
 1433 939 l 2,88,89
 1428 939 1428 939 1431 941 c 2,90,-1
 1453 951 l 1,91,92
 1453 951 1453 951 1455 952 c 0,93,94
 1459 953 1459 953 1466 953 c 0,95,96
 1513 967 1513 967 1541 974 c 0,97,98
 1565 980 1565 980 1575 981 c 0,99,100
 1579 983 1579 983 1575 983 c 2,101,-1
 1573 983 l 1,102,103
 1573 983 1573 983 1575 984 c 0,104,105
 1587 987 1587 987 1621 991 c 1,106,-1
 1624 991 l 2,107,108
 1634 991 1634 991 1623 986 c 1,109,-1
 1630 986 l 1,110,111
 1640 990 1640 990 1654 994 c 0,112,113
 1672 998 1672 998 1697 1002 c 1,114,0
 1726 994 1726 994 1714 989 c 1,1,-1
204 2187 m 1,116,-1
 221 2190 l 1,117,-1
 222 2190 l 2,118,119
 226 2190 226 2190 243 2183 c 1,120,121
 326 2102 326 2102 365 2082 c 1,122,123
 373 2083 373 2083 377 2087 c 1,124,-1
 386 2085 l 1,125,126
 396 2087 396 2087 403 2105 c 1,127,-1
 406 2106 l 1,128,-1
 425 2106 l 1,129,130
 424 2107 424 2107 424 2108 c 0,131,132
 424 2111 424 2111 429 2112 c 2,133,-1
 442 2115 l 1,134,135
 453 2112 453 2112 459 2112 c 2,136,-1
 460 2112 l 1,137,-1
 541 2067 l 1,138,-1
 544 2068 l 1,139,-1
 550 2075 l 1,140,-1
 556 2067 l 1,141,142
 580 2067 580 2067 583 2064 c 2,143,-1
 583 2058 l 1,144,-1
 586 2059 l 1,145,146
 622 2010 622 2010 739 1911 c 1,147,148
 953 1741 953 1741 1180 1518 c 1,149,150
 1386 1349 1386 1349 1756 961 c 1,151,152
 1756 961 1756 961 1756 959 c 0,153,154
 1756 955 1756 955 1765 940 c 1,155,-1
 1757 939 l 1,156,157
 1732 963 1732 963 1724 963 c 2,158,-1
 1723 963 l 1,159,-1
 1761 929 l 1,160,-1
 1754 927 l 1,161,162
 1751 932 1751 932 1711 959 c 1,163,-1
 1708 958 l 1,164,-1
 1715 948 l 1,165,-1
 1711 948 l 1,166,-1
 1711 948 l 1,167,168
 1703 948 1703 948 1681 968 c 1,169,-1
 1677 967 l 1,170,-1
 1679 964 l 1,171,172
 1695 948 1695 948 1702 944 c 1,173,-1
 1707 933 l 1,174,-1
 1801 822 l 1,175,176
 1809 800 1809 800 1814 794 c 1,177,-1
 1807 792 l 1,178,179
 1803 798 1803 798 1771 825 c 1,180,-1
 1768 824 l 1,181,-1
 1770 822 l 2,182,183
 1802 789 1802 789 1810 785 c 1,184,-1
 1802 783 l 1,185,186
 1540 987 1540 987 1398 1104 c 1,187,-1
 1395 1104 l 1,188,-1
 1396 1101 l 1,189,-1
 1447 1060 l 1,190,-1
 1440 1059 l 1,191,192
 1355 1118 1355 1118 1352 1119 c 0,193,194
 865 1461 865 1461 244 2039 c 1,195,196
 246 2039 246 2039 246 2040 c 256,197,198
 246 2041 246 2041 245 2042 c 0,199,200
 219 2061 219 2061 159 2121 c 1,201,-1
 159 2127 l 1,202,-1
 158 2127 l 2,203,204
 155 2127 155 2127 154 2129 c 2,205,-1
 144 2141 l 2,206,207
 143 2141 143 2141 143 2142 c 256,208,209
 143 2143 143 2143 145 2144 c 0,210,211
 140 2160 140 2160 140 2169 c 0,212,213
 140 2176 140 2176 145 2177 c 1,214,215
 143 2179 143 2179 140 2179 c 2,216,-1
 139 2179 l 2,217,218
 138 2180 138 2180 138 2180 c 2,219,220
 138 2184 138 2184 148 2189 c 1,221,-1
 150 2189 l 2,222,223
 155 2189 155 2189 161 2183 c 1,224,-1
 163 2183 l 1,225,226
 160 2188 160 2188 160 2192 c 0,227,228
 160 2198 160 2198 165 2202 c 1,229,115
 199 2193 199 2193 204 2187 c 1,116,-1
EndSplineSet
Validated: 37
EndChar

StartChar: question
Encoding: 63 63 34
Width: 929
GlyphClass: 2
Flags: W
LayerCount: 2
Fore
SplineSet
754 1649 m 0,0,1
 768 1649 768 1649 807 1634 c 1,2,3
 868 1640 868 1640 908 1640 c 2,4,-1
 924 1640 l 1,5,6
 1022 1630 1022 1630 1022 1571 c 0,7,8
 1022 1563 1022 1563 1020 1555 c 2,9,-1
 1017 1543 l 1,10,11
 996 1501 996 1501 969 1501 c 1,12,13
 959 1430 959 1430 958 1422 c 0,14,15
 935 1322 935 1322 906 1235 c 0,16,17
 908 1229 908 1229 908 1225 c 0,18,19
 903 1220 903 1220 901 1213 c 1,20,21
 904 1207 904 1207 904 1204 c 1,22,-1
 896 1204 l 1,23,-1
 895 1198 l 1,24,-1
 896 1183 l 1,25,26
 890 1183 890 1183 852 1123 c 0,27,28
 740 965 740 965 641 862 c 1,29,30
 529 776 529 776 513 693 c 0,31,32
 508 670 508 670 401 487 c 1,33,-1
 400 484 l 2,34,35
 399 481 399 481 399 478 c 0,36,37
 399 453 399 453 435 397 c 1,38,-1
 434 390 l 2,39,40
 433 387 433 387 407 375 c 1,41,-1
 413 366 l 1,42,43
 402 351 402 351 398 351 c 0,44,45
 391 354 391 354 387 354 c 0,46,47
 385 345 385 345 369 345 c 1,48,-1
 369 340 l 2,49,50
 369 330 369 330 374 309 c 1,51,-1
 366 309 l 1,52,53
 358 322 358 322 358 326 c 2,54,-1
 358 327 l 1,55,-1
 350 327 l 1,56,-1
 362 306 l 1,57,-1
 361 303 l 1,58,-1
 357 303 l 2,59,60
 336 305 336 305 267 394 c 1,61,62
 238 394 238 394 218 493 c 0,63,64
 210 522 210 522 210 563 c 0,65,66
 210 620 210 620 226 702 c 0,67,68
 233 734 233 734 263 790 c 1,69,70
 278 866 278 866 529 1150 c 1,71,72
 547 1150 547 1150 633 1313 c 1,73,-1
 635 1325 l 2,74,75
 641 1353 641 1353 646 1404 c 1,76,77
 662 1424 662 1424 667 1446 c 1,78,-1
 663 1446 l 1,79,80
 524 1430 524 1430 282 1337 c 0,81,82
 262 1332 262 1332 259 1325 c 2,83,-1
 259 1324 l 2,84,85
 259 1311 259 1311 321 1295 c 1,86,-1
 320 1289 l 1,87,-1
 304 1289 l 1,88,-1
 304 1286 l 1,89,-1
 316 1286 l 1,90,-1
 315 1283 l 2,91,92
 311 1278 311 1278 201 1250 c 1,93,94
 198 1235 198 1235 97 1232 c 2,95,-1
 93 1232 l 1,96,97
 62 1207 62 1207 40 1207 c 1,98,99
 35 1214 35 1214 35 1220 c 2,100,-1
 35 1222 l 1,101,102
 26 1222 26 1222 19 1219 c 1,103,104
 -5 1225 -5 1225 -12 1225 c 0,105,106
 -34 1216 -34 1216 -46 1216 c 1,107,-1
 -27 1232 l 1,108,-1
 -31 1232 l 1,109,-1
 -53 1222 l 1,110,-1
 -57 1222 l 1,111,-1
 -56 1225 l 1,112,-1
 -10 1277 l 1,113,114
 -17 1277 -17 1277 -17 1282 c 2,115,-1
 -17 1283 l 1,116,-1
 -16 1289 l 2,117,118
 -13 1304 -13 1304 39 1346 c 1,119,-1
 34 1362 l 1,120,121
 42 1362 42 1362 43 1368 c 1,122,123
 34 1368 34 1368 34 1383 c 1,124,-1
 64 1410 l 1,125,126
 70 1444 70 1444 244 1516 c 1,127,128
 588 1646 588 1646 737 1646 c 0,129,130
 739 1646 739 1646 754 1649 c 0,0,1
340 194 m 1,131,132
 427 194 427 194 440 94 c 1,133,134
 435 85 435 85 431 85 c 1,135,-1
 434 79 l 1,136,-1
 433 76 l 1,137,-1
 411 64 l 1,138,139
 413 58 413 58 413 55 c 0,140,141
 405 52 405 52 400 52 c 2,142,-1
 388 52 l 1,143,144
 385 37 385 37 373 37 c 0,145,146
 366 40 366 40 362 40 c 0,147,148
 357 13 357 13 193 -27 c 1,149,150
 177 -17 177 -17 177 -10 c 2,151,-1
 177 -9 l 1,152,-1
 149 12 l 1,153,-1
 149 15 l 1,154,155
 173 61 173 61 182 61 c 1,156,-1
 179 67 l 1,157,158
 181 76 181 76 201 97 c 1,159,160
 171 97 171 97 171 108 c 2,161,-1
 171 109 l 1,162,-1
 173 115 l 2,163,164
 174 121 174 121 190 121 c 1,165,166
 185 130 185 130 185 134 c 2,167,-1
 185 136 l 1,168,169
 207 150 207 150 211 170 c 1,170,-1
 231 167 l 1,171,172
 232 174 232 174 340 194 c 1,131,132
EndSplineSet
Validated: 1
EndChar

StartChar: A
Encoding: 65 65 36
Width: 1769
GlyphClass: 2
Flags: W
LayerCount: 2
Fore
SplineSet
1790 1909 m 1,0,-1
 1808 1908 l 1,1,2
 1747 1817 1747 1817 1747 1801 c 0,3,4
 1747 1798 1747 1798 1750 1798 c 0,5,6
 1760 1798 1760 1798 1801 1837 c 1,7,8
 1774 1798 1774 1798 1774 1791 c 0,9,10
 1774 1789 1774 1789 1775 1789 c 0,11,12
 1791 1789 1791 1789 1980 1991 c 1,13,14
 1892 1826 1892 1826 1805 1683 c 1,15,-1
 1986 1911 l 1,16,-1
 1825 1641 l 1,17,18
 1825 1587 1825 1587 1719 1269 c 1,19,20
 1632 1021 1632 1021 1312 0 c 1,21,22
 1188 -190 1188 -190 1002 -382 c 1,23,-1
 1213 103 l 1,24,-1
 1074 -88 l 1,25,26
 1132 93 1132 93 1132 149 c 0,27,28
 1132 174 1132 174 1121 174 c 0,29,30
 1103 174 1103 174 1056 112 c 1,31,32
 1199 327 1199 327 1199 334 c 1,33,34
 1151 253 1151 253 1142 253 c 0,35,36
 1140 253 1140 253 1140 256 c 0,37,38
 1140 285 1140 285 1247 531 c 1,39,40
 1199 500 1199 500 1199 475 c 1,41,-1
 1180 475 l 1,42,-1
 1180 489 l 1,43,-1
 1170 489 l 1,44,-1
 1160 461 l 1,45,-1
 1141 461 l 1,46,-1
 1141 496 l 1,47,-1
 1122 496 l 1,48,49
 1122 489 1122 489 1112 475 c 1,50,51
 1094 482 1094 482 1083 482 c 2,52,-1
 689 391 l 1,53,54
 337 42 337 42 102 -108 c 1,55,-1
 239 46 l 1,56,-1
 -43 -115 l 2,57,58
 -44 -115 -44 -115 -44 -114 c 0,59,60
 -44 -100 -44 -100 96 59 c 1,61,-1
 -218 -117 l 1,62,-1
 -62 75 l 1,63,64
 33 235 33 235 804 896 c 1,65,66
 804 907 804 907 1401 1550 c 1,67,68
 1600 1732 1600 1732 1790 1909 c 1,0,-1
1026 679 m 1,69,-1
 1035 679 l 1,70,71
 1218 722 1218 722 1218 784 c 1,72,73
 1228 784 1228 784 1305 974 c 1,74,75
 1256 931 1256 931 1026 679 c 1,69,-1
EndSplineSet
Validated: 1
EndChar

StartChar: B
Encoding: 66 66 37
Width: 2131
GlyphClass: 2
Flags: W
LayerCount: 2
Fore
SplineSet
1767 1725 m 1,0,-1
 2222 1725 l 1,1,2
 2308 1710 2308 1710 2308 1682 c 2,3,-1
 2308 1663 l 1,4,5
 2324 1663 2324 1663 2324 1657 c 1,6,7
 2316 1649 2316 1649 2316 1626 c 1,8,9
 2328 1626 2328 1626 2347 1601 c 1,10,-1
 2331 1595 l 1,11,12
 2331 1601 2331 1601 2324 1601 c 1,13,-1
 2324 1583 l 1,14,-1
 2339 1564 l 1,15,16
 2269 1539 2269 1539 2269 1502 c 1,17,18
 1850 1399 1850 1399 1547 1267 c 0,19,20
 1458 1230 1458 1230 1304 1180 c 1,21,-1
 1304 1174 l 1,22,-1
 1735 1174 l 2,23,24
 1823 1174 1823 1174 1963 1180 c 1,25,26
 2112 1147 2112 1147 2112 1112 c 2,27,-1
 2112 1082 l 1,28,-1
 2120 1082 l 1,29,-1
 2120 1069 l 1,30,31
 2088 1069 2088 1069 2088 1057 c 0,32,33
 2096 1024 2096 1024 2096 1020 c 0,34,35
 2080 999 2080 999 2080 983 c 2,36,-1
 2080 964 l 1,37,38
 2054 960 2054 960 1688 766 c 1,39,40
 1262 548 1262 548 276 -106 c 1,41,42
 75 -254 75 -254 -233 -316 c 1,43,44
 -233 -304 -233 -304 -257 -304 c 1,45,-1
 -257 -298 l 2,46,47
 -257 -266 -257 -266 49 42 c 1,48,-1
 49 49 l 1,49,50
 33 49 33 49 33 61 c 2,51,-1
 33 141 l 2,52,53
 33 206 33 206 135 420 c 1,54,55
 394 1196 394 1196 559 1644 c 1,56,-1
 606 1675 l 1,57,-1
 653 1675 l 1,58,-1
 676 1663 l 1,59,-1
 716 1688 l 1,60,61
 718 1675 718 1675 731 1675 c 1,62,63
 731 1694 731 1694 1767 1725 c 1,0,-1
1445 1490 m 0,64,65
 794 1476 794 1476 794 1453 c 0,66,67
 794 1438 794 1438 747 1317 c 1,68,69
 758 1317 758 1317 771 1298 c 1,70,-1
 763 1286 l 1,71,72
 778 1284 778 1284 778 1273 c 1,73,74
 759 1261 759 1261 747 1261 c 1,75,76
 755 1249 755 1249 755 1242 c 1,77,78
 916 1279 916 1279 1476 1490 c 1,79,-1
 1476 1496 l 1,80,81
 1449 1490 1449 1490 1445 1490 c 0,64,65
629 964 m 1,82,83
 614 942 614 942 394 271 c 1,84,-1
 402 271 l 1,85,86
 1117 742 1117 742 1516 945 c 1,87,-1
 1516 952 l 1,88,-1
 1163 952 l 2,89,90
 1052 952 1052 952 629 964 c 1,82,83
EndSplineSet
Validated: 1
EndChar

StartChar: C
Encoding: 67 67 38
Width: 1912
GlyphClass: 2
Flags: W
LayerCount: 2
Fore
SplineSet
1772 1681 m 0,0,1
 1871 1681 1871 1681 1999 1598 c 1,2,-1
 1991 1586 l 1,3,-1
 1991 1580 l 1,4,5
 2024 1577 2024 1577 2024 1562 c 1,6,7
 2016 1551 2016 1551 2016 1544 c 1,8,9
 2028 1544 2028 1544 2041 1526 c 1,10,-1
 2024 1503 l 1,11,-1
 2041 1497 l 1,12,13
 2019 1349 2019 1349 1739 1039 c 1,14,15
 1718 1039 1718 1039 1680 1015 c 1,16,-1
 1663 1015 l 2,17,18
 1646 1015 1646 1015 1646 1033 c 1,19,-1
 1638 1033 l 1,20,-1
 1604 1009 l 1,21,22
 1604 1030 1604 1030 1537 1039 c 1,23,-1
 1529 1051 l 1,24,-1
 1512 1045 l 1,25,-1
 1445 1045 l 1,26,27
 1445 1055 1445 1055 1386 1074 c 1,28,-1
 1336 1164 l 1,29,30
 1352 1164 1352 1164 1361 1223 c 1,31,32
 1378 1223 1378 1223 1428 1289 c 1,33,-1
 1420 1289 l 1,34,35
 1272 1223 1272 1223 1159 1146 c 1,36,37
 1114 1146 1114 1146 764 837 c 1,38,39
 475 463 475 463 437 224 c 1,40,-1
 437 206 l 1,41,42
 454 204 454 204 454 194 c 1,43,44
 437 192 437 192 437 182 c 1,45,46
 462 182 462 182 487 87 c 0,47,48
 487 81 487 81 504 81 c 0,49,50
 542 81 542 81 806 182 c 1,51,52
 1007 224 1007 224 1210 307 c 1,53,-1
 1218 307 l 1,54,-1
 1193 284 l 1,55,-1
 1201 284 l 1,56,-1
 1226 295 l 1,57,-1
 1235 295 l 1,58,59
 1235 274 1235 274 1193 230 c 1,60,-1
 1226 242 l 1,61,-1
 1226 236 l 1,62,-1
 1201 206 l 1,63,-1
 1210 206 l 1,64,-1
 1243 224 l 1,65,-1
 1252 224 l 1,66,67
 1171 27 1171 27 638 -180 c 1,68,69
 533 -216 533 -216 378 -216 c 0,70,71
 120 -216 120 -216 17 40 c 0,72,73
 0 90 0 90 0 171 c 2,74,-1
 0 218 l 2,75,76
 0 674 0 674 764 1289 c 1,77,78
 1162 1548 1162 1548 1529 1645 c 1,79,80
 1684 1681 1684 1681 1772 1681 c 0,0,1
EndSplineSet
Validated: 1
EndChar

StartChar: D
Encoding: 68 68 39
Width: 2039
GlyphClass: 2
Flags: W
LayerCount: 2
Fore
SplineSet
2122 1727 m 5,0,1
 2205 1727 2205 1727 2227 1685 c 5,2,-1
 2227 1671 l 5,3,-1
 2211 1650 l 5,4,-1
 2211 1643 l 5,5,6
 2243 1643 2243 1643 2243 1636 c 4,7,8
 2243 1565 2243 1565 2195 1545 c 5,9,-1
 2203 1531 l 5,10,-1
 2203 1524 l 6,11,12
 2203 1515 2203 1515 1680 1112 c 5,13,14
 366 -14 366 -14 273 -14 c 5,15,-1
 225 -21 l 5,16,17
 201 -14 201 -14 201 -7 c 5,18,19
 151 -7 151 -7 96 -119 c 5,20,-1
 56 -147 l 5,21,-1
 48 -147 l 5,22,-1
 32 -140 l 5,23,24
 32 -147 32 -147 24 -147 c 5,25,26
 0 -88 0 -88 0 -63 c 6,27,-1
 0 -49 l 6,28,29
 0 323 0 323 233 832 c 5,30,31
 354 1127 354 1127 474 1363 c 5,32,-1
 209 1363 l 6,33,34
 166 1363 166 1363 121 1419 c 5,35,-1
 137 1426 l 5,36,-1
 129 1440 l 5,37,38
 129 1492 129 1492 370 1545 c 5,39,40
 716 1601 716 1601 1214 1629 c 5,41,-1
 1214 1622 l 5,42,43
 1230 1629 1230 1629 1238 1629 c 4,44,45
 1306 1629 1306 1629 1592 1657 c 5,46,47
 1634 1650 1634 1650 1640 1650 c 6,48,-1
 2122 1727 l 5,0,1
925 1391 m 5,49,50
 909 1384 909 1384 900 1384 c 5,51,-1
 900 1391 l 5,52,53
 780 1391 780 1391 780 1329 c 5,54,55
 587 929 587 929 450 573 c 5,56,57
 785 924 785 924 1093 1140 c 5,58,-1
 1391 1405 l 5,59,-1
 1391 1412 l 5,60,61
 1098 1391 1098 1391 925 1391 c 5,49,50
EndSplineSet
Validated: 1
EndChar

StartChar: E
Encoding: 69 69 40
Width: 1906
GlyphClass: 2
Flags: W
LayerCount: 2
Fore
SplineSet
1773 1725 m 1,0,1
 2175 1712 2175 1712 2257 1712 c 1,2,-1
 2310 1706 l 1,3,-1
 2310 1693 l 1,4,-1
 2272 1693 l 1,5,-1
 2272 1686 l 1,6,-1
 2318 1686 l 1,7,-1
 2318 1673 l 1,8,9
 2100 1570 2100 1570 1442 1390 c 1,10,11
 1312 1381 1312 1381 1312 1326 c 0,12,13
 1312 1315 1312 1315 1227 1152 c 1,14,-1
 1235 1152 l 1,15,-1
 1281 1158 l 1,16,-1
 1327 1158 l 1,17,-1
 1558 1094 l 1,18,-1
 1558 1087 l 1,19,-1
 1550 1075 l 1,20,-1
 1565 1075 l 1,21,-1
 1565 1062 l 1,22,23
 1257 920 1257 920 1220 920 c 0,24,25
 1074 920 1074 920 1074 862 c 1,26,-1
 805 302 l 1,27,-1
 813 302 l 1,28,29
 1031 403 1031 403 1681 585 c 1,30,-1
 1681 572 l 1,31,32
 1642 568 1642 568 1642 553 c 1,33,-1
 1681 559 l 1,34,-1
 1688 559 l 1,35,-1
 1688 553 l 1,36,37
 1614 472 1614 472 1320 321 c 1,38,39
 1004 115 1004 115 728 -7 c 1,40,41
 329 -190 329 -190 175 -297 c 1,42,43
 175 -306 175 -306 114 -335 c 1,44,-1
 106 -335 l 1,45,46
 75 -325 75 -325 75 -297 c 1,47,-1
 6 -310 l 1,48,49
 -26 -279 -26 -279 -48 -181 c 1,50,51
 -63 -181 -63 -181 -63 -162 c 1,52,53
 -9 -25 -9 -25 836 1300 c 1,54,55
 836 1312 836 1312 889 1397 c 1,56,57
 859 1397 859 1397 859 1403 c 1,58,59
 844 1397 844 1397 836 1397 c 0,60,61
 794 1397 794 1397 690 1390 c 1,62,63
 614 1415 614 1415 613 1429 c 2,64,-1
 613 1448 l 1,65,-1
 628 1448 l 1,66,67
 628 1456 628 1456 582 1474 c 1,68,69
 582 1480 582 1480 590 1480 c 1,70,-1
 582 1512 l 1,71,72
 582 1534 582 1534 621 1570 c 1,73,74
 692 1609 692 1609 790 1628 c 1,75,76
 837 1628 837 1628 1734 1725 c 1,77,-1
 1773 1725 l 1,0,1
EndSplineSet
Validated: 1
EndChar

StartChar: F
Encoding: 70 70 41
Width: 1501
GlyphClass: 2
Flags: W
LayerCount: 2
Fore
SplineSet
1753 1696 m 1,0,-1
 1753 1683 l 1,1,-1
 1692 1676 l 1,2,-1
 1692 1669 l 1,3,-1
 1746 1669 l 1,4,-1
 1746 1656 l 1,5,6
 1708 1627 1708 1627 1369 1528 c 1,7,8
 1240 1467 1240 1467 972 1393 c 1,9,-1
 844 1110 l 1,10,-1
 857 1117 l 1,11,-1
 1046 1117 l 2,12,13
 1195 1117 1195 1117 1470 1137 c 1,14,-1
 1470 1124 l 1,15,16
 1453 1124 1453 1124 1416 1117 c 1,17,-1
 1416 1110 l 1,18,-1
 1470 1110 l 1,19,-1
 1470 1097 l 1,20,21
 1427 1070 1427 1070 1093 969 c 1,22,-1
 1093 962 l 1,23,-1
 1120 962 l 1,24,-1
 1120 949 l 1,25,-1
 1106 949 l 1,26,-1
 1106 942 l 1,27,-1
 1127 942 l 1,28,-1
 1127 935 l 1,29,30
 1099 904 1099 904 810 740 c 1,31,32
 609 691 609 691 608 673 c 1,33,34
 436 311 436 311 278 107 c 1,35,36
 218 49 218 49 -52 -324 c 1,37,-1
 -59 -324 l 1,38,-1
 -79 -311 l 1,39,40
 -79 -317 -79 -317 -86 -317 c 1,41,-1
 -99 -270 l 1,42,43
 2 138 2 138 143 484 c 1,44,45
 467 1216 467 1216 473 1259 c 1,46,47
 458 1259 458 1259 446 1306 c 1,48,-1
 420 1292 l 1,49,50
 389 1305 389 1305 386 1319 c 1,51,52
 393 1331 393 1331 393 1346 c 1,53,54
 372 1346 372 1346 372 1366 c 1,55,56
 411 1541 411 1541 548 1541 c 1,57,58
 635 1569 635 1569 635 1602 c 1,59,-1
 662 1602 l 1,60,-1
 689 1582 l 1,61,62
 703 1609 703 1609 723 1609 c 2,63,-1
 770 1602 l 1,64,65
 798 1602 798 1602 851 1642 c 1,66,-1
 871 1642 l 2,67,68
 884 1640 884 1640 884 1629 c 1,69,70
 1088 1668 1088 1668 1753 1696 c 1,0,-1
EndSplineSet
Validated: 1
EndChar

StartChar: G
Encoding: 71 71 42
Width: 1872
GlyphClass: 2
Flags: W
LayerCount: 2
Fore
SplineSet
1577 1690 m 1,0,-1
 1841 1687 l 1,1,2
 1841 1680 1841 1680 1516 1666 c 1,3,-1
 1516 1661 l 1,4,-1
 1521 1661 l 1,5,6
 1568 1670 1568 1670 1577 1670 c 2,7,-1
 1944 1676 l 1,8,-1
 1839 1639 l 1,9,-1
 1483 1595 l 1,10,-1
 1461 1597 l 1,11,-1
 1477 1597 l 1,12,-1
 1477 1588 l 1,13,14
 1405 1568 1405 1568 1394 1568 c 1,15,-1
 1394 1563 l 1,16,17
 1549 1574 1549 1574 1635 1574 c 0,18,19
 1741 1574 1741 1574 1741 1557 c 0,20,21
 1741 1551 1741 1551 1730 1544 c 2,22,-1
 1686 1514 l 1,23,24
 1532 1512 1532 1512 1532 1500 c 1,25,-1
 1591 1483 l 1,26,27
 1581 1488 1581 1488 1581 1491 c 0,28,29
 1581 1501 1581 1501 1662 1501 c 0,30,31
 1686 1501 1686 1501 1719 1500 c 1,32,33
 1732 1489 1732 1489 1734 1489 c 0,34,35
 1735 1489 1735 1489 1735 1490 c 256,36,37
 1735 1491 1735 1491 1733 1493 c 1,38,39
 1736 1490 1736 1490 1736 1487 c 0,40,41
 1736 1453 1736 1453 1383 1407 c 0,42,43
 1284 1397 1284 1397 1284 1388 c 1,44,45
 1294 1383 1294 1383 1300 1383 c 1,46,-1
 1300 1373 l 1,47,-1
 1284 1373 l 1,48,-1
 1284 1368 l 1,49,-1
 1295 1368 l 1,50,-1
 1295 1363 l 2,51,52
 1295 1352 1295 1352 1101 1324 c 1,53,54
 976 1298 976 1298 941 1285 c 1,55,56
 706 905 706 905 526 481 c 1,57,-1
 531 481 l 1,58,59
 784 660 784 660 1187 886 c 1,60,-1
 1035 827 l 1,61,62
 811 720 811 720 769 720 c 0,63,64
 759 720 759 720 759 725 c 0,65,66
 759 740 759 740 824 793 c 1,67,-1
 819 812 l 1,68,69
 827 812 827 812 841 832 c 1,70,-1
 835 810 l 1,71,-1
 769 798 l 1,72,-1
 751 776 l 1,73,-1
 873 901 l 1,74,75
 947 937 947 937 947 953 c 0,76,77
 947 964 947 964 907 964 c 0,78,79
 880 964 880 964 835 959 c 1,80,81
 1447 1121 1447 1121 1588 1197 c 1,82,83
 1638 1207 1638 1207 2013 1360 c 1,84,-1
 1721 1158 l 1,85,86
 1726 1158 1726 1158 1891 1242 c 1,87,-1
 1945 1229 l 1,88,-1
 1733 1071 l 1,89,-1
 1899 1161 l 1,90,91
 1660 932 1660 932 1361 729 c 0,92,93
 522 164 522 164 420 164 c 0,94,95
 393 164 393 164 166 -22 c 1,96,-1
 127 -31 l 1,97,-1
 122 -31 l 1,98,-1
 100 -17 l 1,99,-1
 83 -17 l 1,100,101
 83 3 83 3 66 3 c 2,102,-1
 61 3 l 1,103,-1
 44 -7 l 1,104,105
 36 -7 36 -7 28 8 c 1,106,-1
 33 17 l 2,107,108
 33 24 33 24 6 42 c 1,109,110
 6 53 6 53 0 61 c 1,111,-1
 6 71 l 1,112,-1
 0 95 l 1,113,114
 0 153 0 153 249 778 c 1,115,116
 398 1139 398 1139 503 1471 c 1,117,-1
 498 1480 l 1,118,-1
 498 1485 l 1,119,120
 519 1541 519 1541 570 1568 c 1,121,-1
 581 1563 l 1,122,123
 581 1585 581 1585 869 1627 c 0,124,125
 945 1641 945 1641 1079 1641 c 1,126,-1
 1129 1636 l 1,127,128
 1207 1659 1207 1659 1510 1680 c 1,129,130
 1510 1686 1510 1686 1577 1690 c 1,0,-1
EndSplineSet
Validated: 5
EndChar

StartChar: H
Encoding: 72 72 43
Width: 1808
GlyphClass: 2
Flags: W
LayerCount: 2
Fore
SplineSet
1839 1708 m 1,0,1
 1841 1698 1841 1698 1851 1698 c 1,2,-1
 1870 1708 l 1,3,-1
 1882 1708 l 1,4,5
 1899 1688 1899 1688 1914 1688 c 1,6,7
 1939 1670 1939 1670 1939 1607 c 0,8,9
 1939 1527 1939 1527 1527 868 c 1,10,-1
 1527 858 l 1,11,-1
 1533 858 l 1,12,-1
 1752 884 l 1,13,-1
 1752 873 l 1,14,15
 1683 858 1683 858 1677 858 c 1,16,-1
 1677 853 l 1,17,-1
 1689 853 l 1,18,-1
 1752 863 l 1,19,-1
 1752 853 l 1,20,21
 1662 802 1662 802 1452 738 c 1,22,23
 1280 439 1280 439 1159 160 c 1,24,25
 1102 70 1102 70 966 -177 c 1,26,-1
 960 -177 l 1,27,-1
 960 -172 l 2,28,29
 960 -151 960 -151 972 -122 c 1,30,-1
 972 -117 l 1,31,-1
 966 -117 l 1,32,-1
 947 -162 l 1,33,-1
 935 -162 l 1,34,35
 935 -155 935 -155 923 -107 c 1,36,37
 997 313 997 313 1091 562 c 1,38,39
 1100 562 1100 562 1116 632 c 1,40,-1
 1110 632 l 1,41,42
 897 587 897 587 630 542 c 1,43,44
 455 228 455 228 424 190 c 1,45,-1
 424 195 l 2,46,47
 424 201 424 201 449 265 c 1,48,49
 434 265 434 265 411 200 c 1,50,-1
 399 200 l 1,51,-1
 405 235 l 1,52,-1
 393 240 l 1,53,54
 252 -16 252 -16 231 -36 c 1,55,-1
 224 -36 l 1,56,-1
 224 -11 l 1,57,58
 212 -11 212 -11 212 -41 c 1,59,-1
 199 -41 l 1,60,61
 175 5 175 5 175 14 c 2,62,-1
 175 24 l 2,63,64
 175 221 175 221 268 507 c 1,65,66
 262 507 262 507 262 512 c 1,67,-1
 231 507 l 1,68,-1
 118 507 l 2,69,70
 31 507 31 507 31 527 c 2,71,-1
 31 532 l 1,72,-1
 37 542 l 1,73,74
 12 549 12 549 0 567 c 1,75,-1
 0 577 l 1,76,-1
 19 577 l 1,77,-1
 6 592 l 1,78,-1
 6 597 l 1,79,80
 34 644 34 644 162 672 c 1,81,82
 337 693 337 693 337 703 c 0,83,84
 443 982 443 982 711 1623 c 1,85,86
 711 1642 711 1642 829 1653 c 1,87,88
 885 1615 885 1615 885 1582 c 1,89,-1
 891 1582 l 1,90,91
 923 1625 923 1625 947 1643 c 1,92,-1
 979 1643 l 1,93,-1
 979 1648 l 1,94,95
 1010 1646 1010 1646 1010 1638 c 1,96,-1
 1022 1643 l 1,97,-1
 1041 1643 l 1,98,99
 1061 1607 1061 1607 1103 1607 c 0,100,101
 1122 1607 1122 1607 1122 1597 c 2,102,-1
 1122 1587 l 1,103,-1
 1110 1572 l 1,104,105
 1134 1570 1134 1570 1134 1557 c 1,106,107
 1125 1552 1125 1552 1097 1552 c 1,108,-1
 1097 1547 l 1,109,-1
 1110 1532 l 1,110,111
 1110 1520 1110 1520 810 873 c 0,112,113
 785 820 785 820 785 803 c 1,114,115
 932 827 932 827 1197 838 c 1,116,117
 1315 1139 1315 1139 1496 1527 c 1,118,119
 1486 1527 1486 1527 1471 1547 c 1,120,-1
 1484 1567 l 1,121,122
 1465 1567 1465 1567 1465 1572 c 2,123,-1
 1471 1582 l 1,124,125
 1459 1599 1459 1599 1459 1607 c 1,126,127
 1473 1607 1473 1607 1496 1638 c 1,128,-1
 1521 1653 l 1,129,130
 1532 1648 1532 1648 1546 1648 c 1,131,132
 1546 1668 1546 1668 1720 1683 c 1,133,134
 1741 1673 1741 1673 1776 1673 c 1,135,136
 1804 1708 1804 1708 1839 1708 c 1,0,1
EndSplineSet
Validated: 1
EndChar

StartChar: I
Encoding: 73 73 44
Width: 1415
GlyphClass: 2
Flags: W
LayerCount: 2
Fore
SplineSet
1466 1699 m 1,0,1
 1466 1694 1466 1694 1498 1677 c 1,2,-1
 1493 1669 l 1,3,4
 1506 1655 1506 1655 1551 1634 c 1,5,6
 1544 1634 1544 1634 1535 1621 c 1,7,-1
 1535 1617 l 1,8,9
 1557 1615 1557 1615 1557 1604 c 0,10,11
 1557 1600 1557 1600 1551 1591 c 1,12,-1
 1557 1574 l 1,13,14
 1544 1509 1544 1509 1525 1509 c 2,15,-1
 1519 1509 l 1,16,-1
 1493 1514 l 1,17,18
 1493 1498 1493 1498 1344 1423 c 1,19,20
 965 669 965 669 738 388 c 1,21,-1
 738 375 l 1,22,-1
 749 375 l 1,23,-1
 749 367 l 1,24,25
 897 407 897 407 913 407 c 2,26,-1
 915 407 l 1,27,28
 915 401 915 401 742 343 c 1,29,-1
 980 388 l 1,30,31
 981 382 981 382 1043 382 c 0,32,33
 1070 382 1070 382 1109 383 c 1,34,35
 1098 382 1098 382 834 285 c 1,36,-1
 834 280 l 1,37,-1
 839 280 l 1,38,39
 1072 361 1072 361 1086 361 c 1,40,41
 1086 359 1086 359 1070 352 c 1,42,-1
 1093 330 l 1,43,44
 851 255 851 255 813 237 c 1,45,46
 813 212 813 212 579 125 c 1,47,48
 502 88 502 88 489 78 c 0,49,50
 483 78 483 78 483 82 c 1,51,52
 301 39 301 39 165 26 c 1,53,54
 158 15 158 15 85 0 c 1,55,56
 85 6 85 6 69 13 c 1,57,-1
 74 22 l 1,58,59
 74 31 74 31 21 34 c 1,60,-1
 21 43 l 1,61,-1
 32 56 l 1,62,-1
 21 60 l 1,63,64
 11 56 11 56 5 56 c 1,65,-1
 0 65 l 1,66,-1
 11 78 l 1,67,-1
 5 95 l 1,68,69
 21 138 21 138 128 190 c 1,70,71
 128 219 128 219 425 310 c 1,72,73
 446 310 446 310 526 582 c 1,74,75
 588 745 588 745 898 1341 c 1,76,77
 888 1345 888 1345 882 1345 c 0,78,79
 754 1348 754 1348 754 1358 c 1,80,81
 749 1354 749 1354 616 1345 c 1,82,83
 579 1356 579 1356 579 1363 c 2,84,-1
 579 1376 l 1,85,86
 555 1384 555 1384 553 1393 c 1,87,-1
 563 1406 l 1,88,89
 553 1406 553 1406 553 1414 c 2,90,-1
 574 1458 l 1,91,92
 565 1458 565 1458 553 1475 c 1,93,-1
 553 1479 l 1,94,95
 563 1479 563 1479 563 1483 c 2,96,-1
 558 1505 l 1,97,98
 600 1554 600 1554 834 1604 c 1,99,100
 935 1617 935 1617 983 1617 c 0,101,102
 1016 1617 1016 1617 1063 1613 c 1,103,104
 1167 1613 1167 1613 1424 1695 c 1,105,106
 1446 1695 1446 1695 1466 1699 c 1,0,1
EndSplineSet
Validated: 1
EndChar

StartChar: J
Encoding: 74 74 45
Width: 1611
GlyphClass: 2
Flags: W
LayerCount: 2
Fore
SplineSet
1494 1681 m 1,0,-1
 1527 1667 l 1,1,2
 1577 1681 1577 1681 1627 1681 c 1,3,4
 1661 1670 1661 1670 1665 1648 c 1,5,-1
 1679 1638 l 1,6,7
 1691 1662 1691 1662 1698 1662 c 2,8,-1
 1703 1662 l 1,9,-1
 1703 1657 l 1,10,11
 1698 1648 1698 1648 1698 1643 c 1,12,13
 1707 1643 1707 1643 1707 1657 c 1,14,-1
 1717 1657 l 1,15,16
 1722 1625 1722 1625 1726 1615 c 1,17,18
 1726 1363 1726 1363 1494 870 c 1,19,20
 1453 685 1453 685 1300 424 c 1,21,22
 1239 295 1239 295 1072 92 c 1,23,24
 921 -45 921 -45 901 -45 c 1,25,26
 723 -174 723 -174 526 -221 c 1,27,28
 415 -264 415 -264 308 -264 c 0,29,30
 92 -264 92 -264 14 -202 c 1,31,32
 14 -194 14 -194 0 -178 c 1,33,-1
 0 -150 l 1,34,-1
 5 -150 l 1,35,-1
 5 -117 l 2,36,37
 5 -80 5 -80 142 73 c 1,38,39
 142 89 142 89 209 173 c 1,40,41
 283 295 283 295 441 505 c 1,42,43
 601 740 601 740 607 742 c 1,44,-1
 607 728 l 1,45,-1
 602 718 l 1,46,-1
 607 718 l 2,47,48
 639 718 639 718 669 789 c 1,49,-1
 678 789 l 1,50,51
 678 779 678 779 645 709 c 1,52,-1
 645 704 l 1,53,-1
 650 704 l 1,54,55
 683 766 683 766 683 770 c 1,56,-1
 692 770 l 1,57,58
 678 693 678 693 636 581 c 1,59,60
 609 539 609 539 607 500 c 2,61,-1
 607 462 l 1,62,63
 740 614 740 614 745 614 c 1,64,-1
 745 609 l 1,65,66
 707 550 707 550 707 543 c 1,67,-1
 754 595 l 1,68,-1
 754 585 l 2,69,70
 754 557 754 557 636 324 c 1,71,72
 688 353 688 353 702 353 c 1,73,74
 677 319 677 319 612 277 c 1,75,76
 612 254 612 254 602 187 c 1,77,78
 730 209 730 209 730 239 c 1,79,80
 871 350 871 350 968 509 c 1,81,-1
 1134 709 l 1,82,83
 1314 1081 1314 1081 1314 1169 c 1,84,85
 1319 1169 1319 1169 1333 1259 c 1,86,-1
 1309 1264 l 1,87,88
 1309 1249 1309 1249 1100 1230 c 1,89,90
 1057 1221 1057 1221 1053 1207 c 1,91,-1
 1006 1211 l 1,92,-1
 1001 1211 l 2,93,94
 905 1211 905 1211 569 1159 c 1,95,-1
 569 1169 l 1,96,97
 621 1183 621 1183 626 1183 c 1,98,-1
 626 1188 l 1,99,-1
 621 1188 l 2,100,101
 615 1188 615 1188 569 1178 c 1,102,-1
 569 1183 l 1,103,104
 599 1218 599 1218 707 1259 c 1,105,-1
 707 1264 l 1,106,-1
 626 1278 l 1,107,108
 574 1268 574 1268 545 1259 c 1,109,-1
 512 1278 l 1,110,-1
 517 1287 l 1,111,112
 474 1310 474 1310 474 1316 c 2,113,-1
 479 1325 l 1,114,-1
 470 1325 l 1,115,-1
 470 1340 l 1,116,117
 483 1340 483 1340 498 1382 c 1,118,119
 512 1387 512 1387 512 1392 c 0,120,121
 508 1401 508 1401 508 1406 c 1,122,123
 521 1408 521 1408 531 1425 c 1,124,125
 591 1458 591 1458 849 1529 c 1,126,127
 922 1577 922 1577 1352 1624 c 1,128,129
 1461 1644 1461 1644 1461 1672 c 1,130,131
 1480 1681 1480 1681 1494 1681 c 1,0,-1
579 685 m 1,132,-1
 569 657 l 1,133,134
 577 657 577 657 583 680 c 1,135,-1
 583 685 l 1,136,-1
 579 685 l 1,132,-1
EndSplineSet
Validated: 1
EndChar

StartChar: K
Encoding: 75 75 46
Width: 1242
GlyphClass: 2
Flags: W
LayerCount: 2
Fore
SplineSet
1183 1720 m 0,0,1
 1232 1720 1232 1720 1253 1661 c 0,2,3
 1253 1655 1253 1655 1285 1630 c 1,4,-1
 1293 1590 l 1,5,6
 1287 1590 1287 1590 1281 1579 c 1,7,-1
 1281 1571 l 1,8,-1
 1285 1571 l 1,9,-1
 1293 1575 l 1,10,-1
 1293 1571 l 2,11,12
 1293 1524 1293 1524 1041 1213 c 1,13,14
 865 1032 865 1032 731 915 c 1,15,-1
 731 911 l 1,16,17
 791 839 791 839 1010 510 c 0,18,19
 1108 362 1108 362 1206 109 c 0,20,21
 1230 57 1230 57 1230 39 c 1,22,23
 1223 39 1223 39 1202 82 c 1,24,-1
 1198 82 l 1,25,-1
 1198 78 l 1,26,-1
 1218 35 l 1,27,-1
 1214 35 l 1,28,-1
 1194 46 l 1,29,-1
 1194 43 l 1,30,31
 1269 -93 1269 -93 1269 -103 c 1,32,-1
 1234 -64 l 1,33,-1
 1234 -67 l 1,34,35
 1253 -101 1253 -101 1253 -107 c 1,36,-1
 1249 -107 l 1,37,38
 1229 -103 1229 -103 1088 46 c 1,39,40
 1077 46 1077 46 951 176 c 1,41,42
 957 162 957 162 982 129 c 1,43,-1
 982 121 l 1,44,-1
 939 160 l 1,45,-1
 939 156 l 1,46,47
 970 116 970 116 970 113 c 1,48,-1
 966 113 l 1,49,50
 932 124 932 124 774 266 c 1,51,52
 597 414 597 414 448 593 c 1,53,-1
 444 593 l 1,54,55
 313 77 313 77 189 -189 c 0,56,57
 130 -307 130 -307 118 -315 c 1,58,-1
 118 -307 l 1,59,-1
 126 -280 l 1,60,61
 118 -280 118 -280 110 -307 c 1,62,-1
 102 -307 l 1,63,-1
 98 -272 l 1,64,65
 145 43 145 43 189 196 c 1,66,-1
 181 200 l 1,67,68
 94 -78 94 -78 43 -150 c 1,69,-1
 39 -150 l 1,70,-1
 39 -142 l 1,71,-1
 24 -154 l 1,72,-1
 20 -154 l 1,73,-1
 20 -126 l 1,74,-1
 16 -126 l 1,75,-1
 12 -142 l 1,76,-1
 8 -142 l 2,77,78
 0 -142 0 -142 0 -134 c 2,79,-1
 0 -115 l 2,80,81
 0 93 0 93 283 864 c 1,82,83
 393 1178 393 1178 495 1555 c 1,84,85
 513 1577 513 1577 554 1602 c 1,86,87
 573 1665 573 1665 613 1665 c 1,88,89
 614 1673 614 1673 621 1673 c 2,90,-1
 629 1673 l 2,91,92
 633 1673 633 1673 633 1669 c 1,93,94
 640 1673 640 1673 644 1673 c 2,95,-1
 664 1669 l 1,96,97
 664 1699 664 1699 707 1712 c 1,98,-1
 711 1712 l 1,99,100
 715 1697 715 1697 715 1685 c 1,101,-1
 719 1685 l 1,102,103
 719 1700 719 1700 727 1700 c 0,104,105
 736 1700 736 1700 743 1661 c 1,106,107
 743 1587 743 1587 589 1084 c 1,108,-1
 589 1080 l 1,109,-1
 593 1080 l 1,110,111
 787 1321 787 1321 1120 1693 c 1,112,113
 1166 1720 1166 1720 1183 1720 c 0,0,1
EndSplineSet
Validated: 1
EndChar

StartChar: L
Encoding: 76 76 47
Width: 1236
GlyphClass: 2
Flags: W
LayerCount: 2
Fore
SplineSet
712 1800 m 1,0,-1
 725 1800 l 1,1,2
 764 1791 764 1791 798 1755 c 1,3,-1
 817 1755 l 1,4,5
 819 1764 819 1764 829 1764 c 2,6,-1
 841 1764 l 1,7,8
 841 1758 841 1758 878 1737 c 1,9,10
 904 1764 904 1764 933 1764 c 1,11,-1
 946 1760 l 1,12,13
 956 1764 956 1764 970 1764 c 1,14,15
 997 1746 997 1746 1001 1746 c 1,16,17
 1001 1754 1001 1754 1038 1760 c 1,18,19
 1073 1741 1073 1741 1093 1692 c 1,20,-1
 1093 1675 l 2,21,22
 1093 1520 1093 1520 737 752 c 1,23,24
 522 433 522 433 522 389 c 1,25,26
 467 276 467 276 467 268 c 1,27,-1
 473 268 l 1,28,29
 678 369 678 369 964 447 c 1,30,-1
 939 429 l 1,31,-1
 946 429 l 1,32,33
 966 438 966 438 976 438 c 1,34,-1
 976 434 l 2,35,36
 976 423 976 423 810 308 c 1,37,-1
 817 308 l 1,38,-1
 1222 447 l 1,39,40
 1191 429 1191 429 1191 425 c 1,41,-1
 1197 425 l 1,42,43
 1217 434 1217 434 1228 434 c 1,44,-1
 1228 429 l 1,45,46
 1173 407 1173 407 1173 380 c 1,47,48
 493 -38 493 -38 282 -113 c 1,49,50
 191 -135 191 -135 154 -194 c 0,51,52
 142 -214 142 -214 129 -216 c 0,53,54
 98 -216 98 -216 98 -162 c 2,55,-1
 98 -131 l 1,56,-1
 55 -140 l 1,57,58
 0 -113 0 -113 0 -91 c 2,59,-1
 0 -59 l 2,60,61
 0 -48 0 -48 92 12 c 1,62,63
 92 43 92 43 154 93 c 1,64,65
 217 225 217 225 264 474 c 1,66,67
 264 571 264 571 602 1594 c 1,68,69
 608 1598 608 1598 669 1782 c 1,70,71
 692 1782 692 1782 712 1800 c 1,0,-1
EndSplineSet
Validated: 1
EndChar

StartChar: M
Encoding: 77 77 48
Width: 1681
GlyphClass: 2
Flags: W
LayerCount: 2
Fore
SplineSet
1041 -223 m 0,1,2
 1051 -136 1051 -136 1091 31 c 1,3,-1
 832 -401 l 1,4,5
 881 -279 881 -279 881 -202 c 256,6,7
 881 -125 881 -125 832 -94 c 1,8,9
 902 -140 902 -140 902 -146 c 0,10,11
 902 -147 902 -147 900 -147 c 1,12,-1
 900 -157 l 1,13,-1
 886 -157 l 1,14,15
 802 -258 802 -258 780 -258 c 0,16,17
 772 -258 772 -258 772 -245 c 0,18,19
 772 -208 772 -208 838 -65 c 1,20,21
 865 139 865 139 1121 789 c 1,22,-1
 1121 794 l 1,23,-1
 1114 794 l 1,24,25
 1044 652 1044 652 810 458 c 1,26,27
 740 436 740 436 740 430 c 2,28,-1
 740 384 l 1,29,-1
 727 384 l 1,30,-1
 727 435 l 1,31,-1
 720 435 l 1,32,33
 713 409 713 409 713 398 c 1,34,-1
 699 398 l 1,35,36
 678 444 678 444 595 887 c 1,37,-1
 588 887 l 1,38,39
 547 725 547 725 401 384 c 1,40,41
 367 332 367 332 367 235 c 1,42,43
 344 215 344 215 311 76 c 1,44,-1
 256 25 l 1,45,46
 256 18 256 18 228 6 c 1,47,48
 113 -192 113 -192 68 -214 c 1,49,-1
 226 69 l 1,50,-1
 59 -219 l 1,51,52
 152 21 152 21 152 34 c 1,53,-1
 138 34 l 1,54,55
 138 6 138 6 22 -201 c 1,56,-1
 -12 -192 l 1,57,-1
 -35 -170 l 1,58,59
 0 24 0 24 0 90 c 0,60,61
 0 125 0 125 69 416 c 1,62,63
 69 719 69 719 450 1730 c 1,64,65
 485 1782 485 1782 540 1782 c 1,66,67
 540 1774 540 1774 581 1758 c 1,68,69
 625 1903 625 1903 657 1903 c 2,70,-1
 678 1903 l 1,71,-1
 678 1893 l 1,72,73
 692 1893 692 1893 692 1912 c 1,74,-1
 740 1912 l 1,75,76
 740 1898 740 1898 789 1884 c 1,77,78
 789 1889 789 1889 796 1889 c 0,79,80
 865 1866 865 1866 865 1763 c 2,81,-1
 865 1446 l 2,82,83
 865 1325 865 1325 872 1246 c 1,84,85
 865 1195 865 1195 865 1059 c 2,86,-1
 865 868 l 1,87,88
 879 873 879 873 1086 1176 c 1,89,90
 1232 1358 1232 1358 1502 1656 c 1,91,-1
 1508 1656 l 1,92,-1
 1474 1605 l 1,93,-1
 1474 1600 l 1,94,-1
 1481 1600 l 1,95,96
 1550 1705 1550 1705 1592 1861 c 0,97,98
 1602 1884 1602 1884 1612 1884 c 1,99,100
 1621 1879 1621 1879 1647 1879 c 1,101,102
 1650 1898 1650 1898 1668 1898 c 1,103,104
 1730 1883 1730 1883 1730 1865 c 1,105,-1
 1751 1865 l 1,106,107
 1841 1851 1841 1851 1841 1828 c 1,108,109
 1851 1828 1851 1828 1861 1814 c 0,110,111
 1861 1810 1861 1810 1854 1810 c 1,112,-1
 1861 1786 l 1,113,114
 1861 1731 1861 1731 1640 1176 c 1,115,116
 1492 827 1492 827 1426 560 c 0,117,118
 1416 518 1416 518 1408 479 c 0,119,120
 1395 418 1395 418 1388 362 c 0,121,122
 1381 317 1381 317 1378 275 c 1,123,124
 1379 276 1379 276 1380 276 c 0,125,126
 1384 276 1384 276 1384 263 c 0,127,128
 1384 251 1384 251 1380 225 c 0,129,130
 1368 145 1368 145 1315 -63 c 1,131,-1
 1301 -63 l 1,132,-1
 1301 -45 l 1,133,-1
 1294 -45 l 1,134,-1
 1294 -63 l 1,135,-1
 1280 -63 l 1,136,137
 1223 -230 1223 -230 1169 -241 c 1,138,-1
 1135 -259 l 1,139,-1
 1225 -77 l 1,140,-1
 1103 -365 l 1,141,-1
 1211 -68 l 1,142,-1
 1204 -68 l 1,143,-1
 1204 -82 l 1,144,-1
 1197 -82 l 2,145,146
 1189 -82 1189 -82 1172 -106 c 0,147,148
 1147 -144 1147 -144 1102 -238 c 1,149,-1
 1125 -136 l 1,150,-1
 1133 -100 l 1,151,-1
 1145 -46 l 1,152,-1
 1149 -31 l 1,153,-1
 1148 -43 l 1,154,-1
 1143 -79 l 1,155,-1
 1138 -118 l 1,156,-1
 1123 -229 l 1,157,-1
 1106 -355 l 1,158,-1
 1074 -351 l 1,159,-1
 1039 -346 l 1,160,-1
 1066 -287 l 1,161,-1
 1032 -332 l 1,162,-1
 1059 -315 l 1,163,-1
 1052 -315 l 2,164,165
 1045 -315 1045 -315 1042 -307 c 0,166,167
 1038 -297 1038 -297 1038 -276 c 2,168,-1
 1038 -260 l 2,169,0
 1038 -244 1038 -244 1041 -223 c 0,1,2
837 915 m 1,170,-1
 837 892 l 1,171,172
 844 850 844 850 844 840 c 1,173,-1
 851 840 l 1,174,-1
 851 864 l 1,175,176
 844 905 844 905 844 915 c 1,177,-1
 837 915 l 1,170,-1
EndSplineSet
Validated: 5
EndChar

StartChar: N
Encoding: 78 78 49
Width: 1461
GlyphClass: 2
Flags: W
LayerCount: 2
Fore
SplineSet
695 1928 m 1,0,-1
 707 1928 l 1,1,2
 707 1845 707 1845 695 1845 c 1,3,4
 701 1837 701 1837 707 1802 c 1,5,6
 701 1741 701 1741 701 1734 c 2,7,-1
 881 446 l 1,8,9
 893 446 893 446 946 679 c 1,10,-1
 1192 1350 l 1,11,-1
 1198 1350 l 1,12,-1
 1198 1345 l 2,13,14
 1198 1336 1198 1336 1186 1287 c 1,15,-1
 1186 1277 l 1,16,-1
 1192 1277 l 1,17,18
 1192 1288 1192 1288 1210 1345 c 1,19,-1
 1222 1345 l 1,20,-1
 1222 1330 l 2,21,22
 1222 1325 1222 1325 1216 1325 c 1,23,24
 1222 1319 1222 1319 1222 1291 c 1,25,-1
 1228 1291 l 1,26,-1
 1258 1389 l 1,27,-1
 1270 1389 l 1,28,-1
 1270 1379 l 1,29,-1
 1276 1379 l 1,30,31
 1285 1413 1285 1413 1522 1870 c 1,32,-1
 1528 1870 l 1,33,-1
 1528 1865 l 2,34,35
 1528 1855 1528 1855 1510 1816 c 1,36,-1
 1510 1811 l 1,37,-1
 1516 1811 l 1,38,39
 1516 1817 1516 1817 1534 1855 c 1,40,-1
 1546 1855 l 1,41,-1
 1546 1831 l 1,42,-1
 1378 1170 l 1,43,44
 1264 514 1264 514 1186 193 c 1,45,-1
 1054 -195 l 1,46,47
 1078 -300 1078 -300 1078 -327 c 1,48,-1
 1066 -327 l 1,49,50
 1066 -323 1066 -323 1060 -297 c 1,51,-1
 1054 -297 l 1,52,-1
 1054 -302 l 1,53,-1
 1060 -331 l 1,54,-1
 1060 -341 l 1,55,56
 1050 -340 1050 -340 1000 -273 c 1,57,58
 1000 -288 1000 -288 970 -288 c 1,59,-1
 976 -297 l 1,60,-1
 976 -307 l 1,61,-1
 964 -307 l 1,62,-1
 964 -297 l 1,63,-1
 958 -297 l 1,64,-1
 958 -302 l 1,65,-1
 994 -414 l 1,66,-1
 982 -414 l 1,67,-1
 970 -385 l 1,68,-1
 964 -385 l 1,69,-1
 964 -390 l 1,70,71
 970 -398 970 -398 970 -409 c 1,72,-1
 958 -409 l 1,73,74
 839 -254 839 -254 671 242 c 1,75,76
 623 413 623 413 485 985 c 1,77,78
 469 985 469 985 425 815 c 1,79,80
 425 731 425 731 216 198 c 1,81,82
 192 174 192 174 162 174 c 1,83,84
 162 185 162 185 138 198 c 1,85,-1
 138 257 l 1,86,-1
 132 257 l 1,87,88
 110 179 110 179 60 179 c 1,89,90
 60 174 60 174 54 174 c 0,91,92
 12 190 12 190 12 271 c 1,93,94
 8 271 8 271 0 286 c 1,95,96
 0 452 0 452 413 1466 c 1,97,98
 413 1530 413 1530 449 1530 c 1,99,100
 478 1561 478 1561 551 1700 c 1,101,102
 539 1749 539 1749 539 1855 c 2,103,-1
 539 1875 l 1,104,105
 577 1909 577 1909 587 1909 c 0,106,107
 619 1909 619 1909 647 1889 c 1,108,-1
 659 1889 l 1,109,-1
 671 1923 l 1,110,-1
 683 1923 l 1,111,112
 683 1914 683 1914 665 1879 c 1,113,-1
 665 1875 l 1,114,-1
 671 1875 l 1,115,116
 695 1919 695 1919 695 1928 c 1,0,-1
1264 1408 m 1,117,-1
 1276 1408 l 1,118,-1
 1276 1398 l 1,119,-1
 1264 1398 l 1,120,-1
 1264 1408 l 1,117,-1
EndSplineSet
Validated: 1
EndChar

StartChar: O
Encoding: 79 79 50
Width: 2085
GlyphClass: 2
Flags: W
LayerCount: 2
Fore
SplineSet
1310 1710 m 2,0,-1
 1343 1710 l 2,1,2
 1454 1710 1454 1710 1604 1677 c 1,3,-1
 1604 1681 l 1,4,5
 1597 1691 1597 1691 1597 1696 c 1,6,-1
 1604 1696 l 2,7,8
 1617 1696 1617 1696 1617 1681 c 1,9,-1
 1624 1681 l 1,10,-1
 1624 1686 l 1,11,12
 1617 1694 1617 1694 1617 1705 c 1,13,-1
 1624 1705 l 2,14,15
 1631 1705 1631 1705 1684 1662 c 1,16,17
 1719 1667 1719 1667 1724 1667 c 0,18,19
 1839 1640 1839 1640 1931 1490 c 1,20,21
 2085 1201 2085 1201 2085 960 c 0,22,23
 2085 850 2085 850 2005 487 c 1,24,-1
 1992 487 l 1,25,-1
 1992 526 l 1,26,-1
 1985 526 l 1,27,-1
 1978 478 l 1,28,-1
 1965 478 l 1,29,-1
 1952 573 l 1,30,-1
 1945 573 l 1,31,32
 1890 436 1890 436 1571 182 c 0,33,34
 1342 -2 1342 -2 1063 -110 c 1,35,36
 864 -172 864 -172 782 -172 c 0,37,38
 696 -172 696 -172 408 -110 c 1,39,40
 219 -110 219 -110 60 67 c 1,41,42
 0 201 0 201 0 354 c 0,43,44
 0 761 0 761 327 1118 c 1,45,46
 437 1278 437 1278 708 1462 c 1,47,48
 976 1600 976 1600 989 1600 c 1,49,50
 989 1643 989 1643 1223 1700 c 0,51,52
 1253 1710 1253 1710 1310 1710 c 2,0,-1
535 831 m 1,53,54
 568 776 568 776 568 731 c 1,55,56
 468 496 468 496 468 444 c 0,57,58
 468 336 468 336 568 215 c 1,59,60
 696 163 696 163 749 163 c 1,61,62
 1085 201 1085 201 1163 258 c 1,63,64
 1477 437 1477 437 1477 487 c 1,65,66
 1718 829 1718 829 1718 1189 c 0,67,68
 1718 1268 1718 1268 1677 1280 c 1,69,70
 1442 1438 1442 1438 1377 1438 c 1,71,-1
 1297 1390 l 1,72,73
 1065 1307 1065 1307 849 1166 c 1,74,75
 722 1072 722 1072 722 1027 c 1,76,77
 672 1027 672 1027 535 831 c 1,53,54
EndSplineSet
Validated: 1
EndChar

StartChar: P
Encoding: 80 80 51
Width: 1507
GlyphClass: 2
Flags: W
LayerCount: 2
Fore
SplineSet
889 2033 m 0,0,1
 1131 2021 1131 2021 1229 2021 c 2,2,-1
 1300 2021 l 1,3,-1
 1683 1986 l 1,4,-1
 1747 1986 l 1,5,6
 1747 1978 1747 1978 1811 1974 c 1,7,-1
 1811 1969 l 1,8,-1
 1796 1969 l 1,9,-1
 1796 1957 l 1,10,-1
 1811 1957 l 1,11,-1
 1811 1951 l 1,12,-1
 1803 1939 l 1,13,14
 1832 1933 1832 1933 1853 1933 c 1,15,-1
 1853 1922 l 1,16,-1
 1832 1922 l 1,17,18
 1832 1910 1832 1910 1860 1910 c 1,19,-1
 1860 1898 l 1,20,21
 1833 1898 1833 1898 1803 1851 c 1,22,-1
 1803 1845 l 1,23,24
 1811 1845 1811 1845 1825 1851 c 1,25,-1
 1867 1845 l 1,26,27
 1867 1818 1867 1818 1796 1781 c 1,28,29
 1351 1363 1351 1363 903 1054 c 1,30,31
 582 813 582 813 513 813 c 1,32,33
 513 819 513 819 506 819 c 1,34,35
 465 742 465 742 271 221 c 1,36,-1
 264 221 l 1,37,-1
 264 227 l 2,38,39
 264 241 264 241 279 291 c 1,40,-1
 279 297 l 1,41,-1
 271 297 l 1,42,-1
 250 221 l 1,43,-1
 236 221 l 1,44,45
 236 240 236 240 243 250 c 1,46,-1
 236 274 l 1,47,-1
 250 362 l 1,48,-1
 250 367 l 1,49,-1
 243 367 l 1,50,51
 137 88 137 88 108 -14 c 1,52,-1
 94 -14 l 1,53,-1
 94 16 l 1,54,-1
 87 16 l 1,55,56
 80 -15 80 -15 80 -20 c 1,57,-1
 66 -20 l 1,58,-1
 66 -14 l 2,59,60
 66 -8 66 -8 73 -8 c 1,61,62
 59 22 59 22 59 33 c 2,63,-1
 66 92 l 1,64,-1
 66 109 l 1,65,-1
 59 109 l 1,66,67
 59 98 59 98 -26 -160 c 1,68,-1
 -48 -160 l 1,69,70
 -27 -136 -27 -136 -26 -96 c 2,71,-1
 -26 -84 l 1,72,-1
 -34 -84 l 1,73,74
 -34 -99 -34 -99 -48 -143 c 1,75,-1
 -62 -143 l 1,76,77
 -62 -125 -62 -125 -69 -102 c 1,78,79
 37 671 37 671 201 1241 c 1,80,-1
 314 1664 l 1,81,82
 307 1673 307 1673 307 1693 c 1,83,-1
 286 1693 l 1,84,85
 218 1675 218 1675 179 1675 c 0,86,87
 147 1675 147 1675 123 1716 c 0,88,89
 123 1722 123 1722 130 1722 c 1,90,-1
 123 1734 l 1,91,-1
 123 1740 l 2,92,93
 123 1828 123 1828 286 1857 c 1,94,95
 264 1882 264 1882 264 1916 c 1,96,97
 294 2015 294 2015 541 2015 c 1,98,99
 840 2033 840 2033 889 2033 c 0,0,1
654 1318 m 1,100,101
 1028 1592 1028 1592 1264 1710 c 1,102,-1
 1264 1722 l 1,103,-1
 754 1681 l 1,104,-1
 654 1318 l 1,100,101
EndSplineSet
Validated: 1
EndChar

StartChar: Q
Encoding: 81 81 52
Width: 1798
GlyphClass: 2
Flags: W
LayerCount: 2
Fore
SplineSet
1157 1732 m 0,0,1
 1184 1732 1184 1732 1290 1719 c 1,2,3
 1337 1723 1337 1723 1343 1723 c 0,4,5
 1472 1700 1472 1700 1529 1638 c 0,6,7
 1642 1507 1642 1507 1642 1423 c 1,8,-1
 1688 1258 l 1,9,10
 1775 1236 1775 1236 1775 1155 c 2,11,-1
 1775 1142 l 2,12,13
 1775 957 1775 957 1589 413 c 1,14,15
 1436 173 1436 173 1376 113 c 1,16,-1
 1376 118 l 1,17,-1
 1383 140 l 1,18,19
 1369 140 1369 140 1363 113 c 1,20,-1
 1349 113 l 1,21,-1
 1349 127 l 1,22,23
 1339 127 1339 127 1283 78 c 1,24,25
 1423 -147 1423 -147 1555 -544 c 1,26,-1
 1562 -584 l 1,27,28
 1555 -592 1555 -592 1555 -602 c 1,29,-1
 1542 -602 l 1,30,31
 1542 -591 1542 -591 1416 -472 c 1,32,33
 1286 -327 1286 -327 1024 -65 c 1,34,-1
 1024 -61 l 1,35,36
 946 -65 946 -65 911 -65 c 2,37,-1
 898 -65 l 2,38,39
 834 -65 834 -65 712 -43 c 1,40,41
 560 -43 560 -43 387 42 c 1,42,43
 329 57 329 57 240 104 c 1,44,-1
 240 96 l 1,45,46
 247 64 247 64 247 60 c 1,47,48
 227 64 227 64 227 87 c 1,49,-1
 221 87 l 1,50,-1
 221 73 l 1,51,52
 227 64 227 64 227 60 c 1,53,-1
 221 60 l 2,54,55
 193 60 193 60 128 194 c 1,56,57
 101 194 101 194 74 292 c 1,58,59
 88 326 88 326 88 328 c 0,60,61
 68 431 68 431 61 493 c 1,62,-1
 54 493 l 1,63,-1
 54 476 l 1,64,-1
 41 476 l 1,65,-1
 41 489 l 1,66,-1
 48 516 l 1,67,-1
 48 520 l 1,68,-1
 41 520 l 1,69,70
 28 475 28 475 28 467 c 1,71,-1
 15 467 l 1,72,-1
 15 498 l 2,73,74
 15 508 15 508 8 516 c 1,75,76
 76 919 76 919 360 1204 c 0,77,78
 536 1382 536 1382 792 1517 c 1,79,80
 876 1570 876 1570 984 1607 c 1,81,-1
 978 1629 l 1,82,-1
 978 1652 l 2,83,84
 978 1685 978 1685 1057 1719 c 1,85,86
 1102 1732 1102 1732 1157 1732 c 0,0,1
493 677 m 1,87,-1
 519 632 l 1,88,89
 508 608 508 608 460 592 c 1,90,91
 426 527 426 527 426 444 c 0,92,93
 426 397 426 397 486 368 c 1,94,95
 513 350 513 350 513 341 c 2,96,-1
 506 319 l 1,97,98
 658 225 658 225 792 180 c 1,99,100
 792 174 792 174 825 163 c 1,101,-1
 831 163 l 1,102,103
 699 347 699 347 499 480 c 1,104,-1
 499 485 l 1,105,-1
 513 498 l 1,106,-1
 499 511 l 1,107,-1
 499 538 l 1,108,109
 526 538 526 538 553 561 c 1,110,-1
 579 561 l 2,111,112
 586 561 586 561 586 556 c 1,113,114
 600 556 600 556 639 605 c 1,115,116
 652 610 652 610 659 610 c 2,117,-1
 672 605 l 1,118,-1
 685 610 l 1,119,120
 723 610 723 610 765 574 c 1,121,-1
 772 574 l 2,122,123
 788 574 788 574 798 628 c 1,124,-1
 871 650 l 1,125,126
 871 640 871 640 944 628 c 1,127,128
 1022 557 1022 557 1144 337 c 1,129,-1
 1150 337 l 1,130,131
 1363 620 1363 620 1363 1070 c 0,132,133
 1363 1415 1363 1415 1323 1415 c 1,134,135
 1285 1437 1285 1437 1190 1450 c 1,136,137
 1100 1401 1100 1401 878 1195 c 1,138,139
 631 927 631 927 493 677 c 1,87,-1
785 569 m 1,140,-1
 785 561 l 1,141,-1
 792 561 l 1,142,-1
 792 569 l 1,143,-1
 785 569 l 1,140,-1
473 167 m 1,144,145
 473 152 473 152 519 145 c 1,146,147
 519 150 519 150 480 167 c 1,148,-1
 473 167 l 1,144,145
214 100 m 1,149,-1
 214 91 l 1,150,-1
 221 91 l 1,151,-1
 221 100 l 1,152,-1
 214 100 l 1,149,-1
752 -21 m 1,153,-1
 752 -25 l 1,154,-1
 792 -25 l 1,155,156
 813 -16 813 -16 831 -16 c 1,157,-1
 831 -7 l 1,158,-1
 818 -7 l 1,159,160
 795 -21 795 -21 752 -21 c 1,153,-1
EndSplineSet
Validated: 1
EndChar

StartChar: R
Encoding: 82 82 53
Width: 1692
GlyphClass: 2
Flags: W
LayerCount: 2
Fore
SplineSet
721 1747 m 1,0,1
 721 1739 721 1739 766 1722 c 1,2,-1
 781 1701 l 1,3,4
 834 1706 834 1706 841 1706 c 0,5,6
 921 1706 921 1706 1419 1671 c 1,7,-1
 1419 1661 l 1,8,-1
 1366 1661 l 1,9,-1
 1366 1656 l 1,10,-1
 1426 1656 l 1,11,-1
 1426 1646 l 1,12,13
 1404 1646 1404 1646 1404 1635 c 1,14,15
 1505 1625 1505 1625 1621 1625 c 2,16,-1
 1704 1625 l 2,17,18
 1723 1625 1723 1625 1891 1671 c 1,19,20
 1891 1656 1891 1656 1861 1656 c 1,21,-1
 1861 1651 l 1,22,-1
 1869 1651 l 1,23,24
 1893 1661 1893 1661 1914 1661 c 1,25,-1
 1861 1615 l 1,26,-1
 1876 1615 l 1,27,28
 1947 1646 1947 1646 1974 1646 c 1,29,-1
 1959 1630 l 1,30,-1
 1981 1630 l 1,31,32
 1981 1606 1981 1606 1464 1280 c 1,33,-1
 781 910 l 1,34,35
 1411 -38 1411 -38 1411 -59 c 1,36,-1
 1606 -394 l 1,37,38
 1564 -367 1564 -367 1561 -343 c 1,39,-1
 1554 -343 l 1,40,-1
 1554 -348 l 1,41,42
 1584 -391 1584 -391 1584 -404 c 1,43,44
 1518 -372 1518 -372 1321 -140 c 1,45,46
 1214 -31 1214 -31 1163 27 c 1,47,-1
 1156 27 l 1,48,-1
 1156 22 l 1,49,50
 1178 -3 1178 -3 1178 -18 c 1,51,-1
 1171 -18 l 1,52,53
 1112 19 1112 19 818 311 c 1,54,55
 629 489 629 489 495 677 c 1,56,-1
 488 677 l 1,57,58
 488 641 488 641 248 -110 c 1,59,60
 240 -154 240 -154 240 -160 c 1,61,-1
 225 -160 l 1,62,-1
 225 -150 l 1,63,-1
 218 -150 l 1,64,-1
 218 -160 l 1,65,66
 180 -160 180 -160 180 -130 c 1,67,-1
 173 -130 l 1,68,-1
 173 -145 l 1,69,-1
 165 -145 l 2,70,71
 148 -145 148 -145 143 -110 c 1,72,73
 143 -54 143 -54 180 301 c 1,74,-1
 180 316 l 1,75,-1
 173 316 l 1,76,77
 173 305 173 305 68 32 c 1,78,-1
 53 32 l 1,79,-1
 68 93 l 1,80,-1
 68 98 l 1,81,-1
 60 98 l 1,82,83
 60 89 60 89 45 42 c 1,84,-1
 30 42 l 1,85,-1
 30 73 l 2,86,87
 30 84 30 84 23 93 c 1,88,89
 105 658 105 658 255 1392 c 1,90,91
 255 1412 255 1412 248 1412 c 0,92,93
 206 1412 206 1412 180 1443 c 1,94,95
 188 1451 188 1451 188 1463 c 1,96,97
 61 1463 61 1463 0 1575 c 1,98,-1
 0 1595 l 2,99,100
 0 1629 0 1629 45 1656 c 1,101,-1
 60 1651 l 1,102,103
 60 1669 60 1669 158 1671 c 1,104,105
 253 1666 253 1666 263 1661 c 1,106,107
 276 1666 276 1666 293 1666 c 1,108,-1
 293 1661 l 1,109,110
 370 1685 370 1685 623 1701 c 1,111,112
 638 1737 638 1737 653 1737 c 2,113,-1
 660 1737 l 1,114,-1
 683 1727 l 1,115,116
 683 1747 683 1747 721 1747 c 1,0,1
841 1412 m 2,117,-1
 728 1412 l 2,118,119
 709 1412 709 1412 630 1148 c 1,120,121
 804 1215 804 1215 1193 1427 c 1,122,123
 1055 1412 1055 1412 841 1412 c 2,117,-1
EndSplineSet
Validated: 1
EndChar

StartChar: S
Encoding: 83 83 54
Width: 1804
GlyphClass: 2
Flags: W
LayerCount: 2
Fore
SplineSet
1796 1718 m 256,1,2
 1800 1718 1800 1718 1825 1717 c 128,-1,3
 1850 1716 1850 1716 1850 1712 c 0,4,5
 1850 1707 1850 1707 1846 1697 c 0,6,7
 1845 1695 1845 1695 1845 1693 c 0,8,9
 1845 1686 1845 1686 1858 1683 c 0,10,11
 1874 1679 1874 1679 1874 1674 c 0,12,13
 1874 1668 1874 1668 1870 1658 c 0,14,15
 1868 1653 1868 1653 1868 1651 c 0,16,17
 1868 1648 1868 1648 1870 1648 c 0,18,19
 1874 1648 1874 1648 1922.5 1652 c 128,-1,20
 1971 1656 1971 1656 2068 1670 c 0,21,22
 2152 1681 2152 1681 2162 1681 c 2,23,-1
 2164 1681 l 1,24,-1
 2164 1675 l 2,25,26
 2164 1671 2164 1671 2152 1671 c 0,27,28
 2139 1671 2139 1671 2139 1670 c 0,29,30
 2139 1668 2139 1668 2160 1668 c 0,31,32
 2180 1668 2180 1668 2180 1659 c 256,33,34
 2180 1650 2180 1650 1940.5 1577.5 c 128,-1,35
 1701 1505 1701 1505 1265.5 1402.5 c 128,-1,36
 830 1300 830 1300 824 1300 c 2,37,-1
 823 1300 l 1,38,39
 823 1295 823 1295 898 1239 c 0,40,41
 979 1178 979 1178 1204 1051 c 128,-1,42
 1429 924 1429 924 1494.5 871 c 128,-1,43
 1560 818 1560 818 1614 797 c 128,-1,44
 1668 776 1668 776 1675 776 c 0,45,46
 1681 776 1681 776 1724 796 c 0,47,48
 1763 814 1763 814 1767 814 c 1,49,50
 1767 812 1767 812 1751 801 c 0,51,52
 1743 795 1743 795 1743 794 c 256,53,54
 1743 793 1743 793 1745 793 c 0,55,56
 1748 793 1748 793 1755 795 c 0,57,58
 1770 799 1770 799 1774 799 c 0,59,60
 1775 799 1775 799 1775 798 c 2,61,-1
 1775 788 l 2,62,63
 1775 780 1775 780 1746.5 761 c 128,-1,64
 1718 742 1718 742 1718 738 c 256,65,66
 1718 734 1718 734 1747 715 c 0,67,68
 1771 697 1771 697 1771 695 c 1,69,70
 1767 695 1767 695 1743 705 c 0,71,72
 1722 713 1722 713 1719 713 c 2,73,-1
 1718 713 l 1,74,75
 1718 711 1718 711 1734 702.5 c 128,-1,76
 1750 694 1750 694 1750 693 c 2,77,-1
 1750 690 l 2,78,79
 1750 688 1750 688 1746 688 c 256,80,81
 1742 688 1742 688 1730.5 691.5 c 128,-1,82
 1719 695 1719 695 1694 699 c 1,83,-1
 1692 699 l 2,84,85
 1663 699 1663 699 1515 588 c 0,86,87
 1361 472 1361 472 1205 378.5 c 128,-1,88
 1049 285 1049 285 876 148.5 c 128,-1,89
 703 12 703 12 508 -109 c 128,-1,90
 313 -230 313 -230 223 -282 c 0,91,92
 198 -296 198 -296 192 -296 c 0,93,94
 190 -296 190 -296 190 -295 c 0,95,96
 190 -283 190 -283 292 -190 c 0,97,98
 354 -134 354 -134 354 -120 c 0,99,100
 354 -116 354 -116 347 -116 c 0,101,102
 323 -116 323 -116 201 -183 c 0,103,104
 -32 -311 -32 -311 -49 -311 c 0,105,106
 -50 -311 -50 -311 -50 -310 c 0,107,108
 -50 -300 -50 -300 83 -213 c 128,-1,109
 216 -126 216 -126 252 -93 c 128,-1,110
 288 -60 288 -60 478.5 106.5 c 128,-1,111
 669 273 669 273 784.5 382.5 c 128,-1,112
 900 492 900 492 1037 611 c 128,-1,113
 1174 730 1174 730 1178 732 c 0,114,115
 1178 735 1178 735 1028 789 c 0,116,117
 874 844 874 844 779.5 913 c 128,-1,118
 685 982 685 982 587.5 1043 c 128,-1,119
 490 1104 490 1104 397.5 1149.5 c 128,-1,120
 305 1195 305 1195 301 1205 c 0,121,122
 300 1208 300 1208 300 1210 c 0,123,124
 300 1215 300 1215 305 1216 c 256,125,126
 310 1217 310 1217 310 1219 c 256,127,128
 310 1221 310 1221 309 1222 c 0,129,130
 305 1226 305 1226 305 1228 c 256,131,132
 305 1230 305 1230 319.5 1247 c 128,-1,133
 334 1264 334 1264 357 1264 c 256,134,135
 380 1264 380 1264 380 1266 c 256,136,137
 380 1268 380 1268 359 1281.5 c 128,-1,138
 338 1295 338 1295 313 1316.5 c 128,-1,139
 288 1338 288 1338 288 1343 c 256,140,141
 288 1348 288 1348 293 1351 c 0,142,143
 295 1353 295 1353 295 1354 c 0,144,145
 295 1356 295 1356 293 1358 c 0,146,147
 288 1361 288 1361 288 1363 c 256,148,149
 288 1365 288 1365 294 1365 c 256,150,151
 300 1365 300 1365 306.5 1377 c 128,-1,152
 313 1389 313 1389 334 1396.5 c 128,-1,153
 355 1404 355 1404 477 1430.5 c 128,-1,154
 599 1457 599 1457 654.5 1479.5 c 128,-1,155
 710 1502 710 1502 818.5 1532.5 c 128,-1,156
 927 1563 927 1563 963 1563 c 2,157,-1
 1041 1563 l 2,158,159
 1083 1563 1083 1563 1313.5 1617 c 128,-1,160
 1544 1671 1544 1671 1622.5 1689 c 128,-1,161
 1701 1707 1701 1707 1746.5 1712.5 c 128,-1,0
 1792 1718 1792 1718 1796 1718 c 256,1,2
1463 703 m 1,162,-1
 -256 -381 l 1,163,-1
 913 574 l 1,164,-1
 1127 765 l 1,165,-1
 837 864 l 1,166,-1
 1372 948 l 1,167,-1
 1539 833 l 1,168,-1
 1463 703 l 1,162,-1
EndSplineSet
Validated: 5
EndChar

StartChar: T
Encoding: 84 84 55
Width: 1519
GlyphClass: 2
Flags: W
LayerCount: 2
Fore
SplineSet
1748 1828 m 2,0,-1
 1752 1827 l 1,1,2
 1750 1819 1750 1819 1662 1798 c 1,3,-1
 1549 1752 l 1,4,-1
 1548 1748 l 1,5,-1
 1552 1747 l 1,6,-1
 1676 1759 l 1,7,-1
 1675 1755 l 1,8,9
 1679 1757 1679 1757 1692 1757 c 0,10,11
 1701 1757 1701 1757 1716 1756 c 1,12,13
 1714 1747 1714 1747 1673 1743 c 1,14,-1
 1672 1739 l 1,15,-1
 1684 1737 l 1,16,17
 1695 1741 1695 1741 1706 1741 c 0,18,19
 1711 1741 1711 1741 1717 1740 c 1,20,-1
 1707 1729 l 1,21,-1
 1715 1728 l 1,22,-1
 1714 1720 l 1,23,-1
 1710 1720 l 2,24,25
 1693 1720 1693 1720 1692 1712 c 1,26,-1
 1704 1710 l 1,27,-1
 1703 1706 l 1,28,29
 1670 1670 1670 1670 1646 1658 c 1,30,-1
 1649 1650 l 1,31,-1
 1648 1642 l 1,32,-1
 1619 1639 l 1,33,-1
 1618 1635 l 1,34,-1
 1622 1634 l 1,35,-1
 1646 1634 l 1,36,-1
 1650 1633 l 1,37,38
 1590 1570 1590 1570 1344 1523 c 1,39,40
 1292 1519 1292 1519 1277 1513 c 1,41,42
 1280 1513 1280 1513 1280 1497 c 0,43,44
 1280 1405 1280 1405 1182 799 c 0,45,46
 1172 740 1172 740 1160 694 c 1,47,-1
 1047 -78 l 2,48,49
 1024 -219 1024 -219 941 -519 c 1,50,-1
 937 -518 l 2,51,52
 932 -517 932 -517 932 -507 c 0,53,54
 932 -499 932 -499 935 -485 c 1,55,-1
 931 -485 l 1,56,57
 924 -510 924 -510 915 -510 c 2,58,-1
 910 -510 l 2,59,60
 900 -508 900 -508 900 -370 c 0,61,62
 900 -328 900 -328 901 -273 c 1,63,64
 896 -272 896 -272 896 -262 c 0,65,66
 896 -254 896 -254 899 -240 c 1,67,-1
 895 -239 l 1,68,-1
 894 -243 l 1,69,70
 868 -448 868 -448 858 -675 c 1,71,-1
 858 -679 l 1,72,73
 848 -677 848 -677 848 -613 c 0,74,75
 848 -555 848 -555 856 -448 c 1,76,77
 854 -329 854 -329 854 -234 c 0,78,79
 854 2 854 2 868 85 c 1,80,-1
 864 86 l 1,81,82
 844 16 844 16 842 1 c 1,83,-1
 834 2 l 1,84,-1
 844 61 l 1,85,-1
 840 62 l 1,86,87
 825 20 825 20 815 -36 c 0,88,89
 803 -111 803 -111 795 -300 c 1,90,-1
 784 -298 l 1,91,92
 791 -83 791 -83 792 260 c 1,93,94
 808 356 808 356 808 647 c 0,95,96
 810 662 810 662 847 665 c 1,97,98
 838 710 838 710 838 726 c 2,99,-1
 838 731 l 2,100,101
 840 740 840 740 853 740 c 2,102,-1
 856 740 l 1,103,-1
 856 749 l 2,104,105
 856 885 856 885 914 1234 c 2,106,-1
 956 1482 l 1,107,108
 952 1483 952 1483 947 1483 c 0,109,110
 901 1483 901 1483 737 1434 c 1,111,112
 656 1419 656 1419 484 1399 c 1,113,-1
 485 1407 l 1,114,-1
 489 1407 l 2,115,116
 497 1407 497 1407 498 1413 c 1,117,-1
 494 1413 l 1,118,-1
 477 1408 l 1,119,-1
 478 1412 l 2,120,121
 479 1417 479 1417 542 1458 c 1,122,-1
 538 1459 l 1,123,-1
 458 1464 l 1,124,125
 386 1480 386 1480 336 1489 c 0,126,127
 325 1491 325 1491 309 1491 c 0,128,129
 244 1491 244 1491 89 1465 c 1,130,-1
 50 1472 l 1,131,132
 31 1448 31 1448 -32 1445 c 1,133,-1
 -161 1426 l 1,134,-1
 -163 1434 l 2,135,136
 -162 1439 -162 1439 -65 1466 c 1,137,-1
 -64 1470 l 1,138,-1
 -68 1471 l 1,139,140
 -171 1456 -171 1456 -192 1456 c 2,141,-1
 -196 1456 l 1,142,-1
 -212 1459 l 1,143,-1
 -211 1467 l 1,144,-1
 -210 1467 l 2,145,146
 -195 1467 -195 1467 2 1528 c 1,147,-1
 3 1532 l 1,148,-1
 -1 1533 l 1,149,-1
 -218 1521 l 1,150,-1
 -221 1529 l 1,151,152
 -62 1547 -62 1547 -1 1557 c 1,153,-1
 0 1561 l 1,154,155
 -19 1564 -19 1564 -19 1571 c 2,156,-1
 -19 1572 l 1,157,158
 -4 1580 -4 1580 4 1580 c 2,159,-1
 7 1580 l 1,160,-1
 8 1584 l 1,161,-1
 -12 1587 l 1,162,-1
 -11 1591 l 1,163,164
 47 1626 47 1626 433 1679 c 0,165,166
 648 1712 648 1712 1031 1762 c 1,167,168
 1034 1782 1034 1782 1052 1782 c 0,169,170
 1055 1782 1055 1782 1059 1781 c 1,171,172
 1059 1773 1059 1773 1065 1772 c 1,173,174
 1072 1797 1072 1797 1084 1797 c 2,175,-1
 1086 1797 l 1,176,-1
 1126 1770 l 1,177,178
 1226 1782 1226 1782 1434 1795 c 1,179,180
 1496 1813 1496 1813 1673 1816 c 1,181,182
 1716 1829 1716 1829 1738 1829 c 0,183,184
 1744 1829 1744 1829 1748 1828 c 2,0,-1
839 437 m 1,185,186
 823 437 823 437 812 335 c 2,187,-1
 805 275 l 1,188,-1
 808 267 l 1,189,-1
 810 267 l 2,190,191
 816 267 816 267 817 274 c 2,192,-1
 819 294 l 2,193,194
 827 366 827 366 843 432 c 1,195,196
 839 433 839 433 839 437 c 1,185,186
EndSplineSet
Validated: 1
EndChar

StartChar: U
Encoding: 85 85 56
Width: 1586
GlyphClass: 2
Flags: W
LayerCount: 2
Fore
SplineSet
954 1974 m 1,0,-1
 955 1965 l 1,1,-1
 923 1900 l 1,2,-1
 924 1896 l 1,3,-1
 930 1896 l 1,4,5
 962 1952 962 1952 962 1957 c 1,6,-1
 973 1959 l 1,7,-1
 973 1957 l 2,8,9
 973 1952 973 1952 969 1945 c 0,10,11
 970 1941 970 1941 977 1933 c 1,12,-1
 977 1931 l 2,13,14
 977 1923 977 1923 969 1901 c 1,15,-1
 977 1880 l 1,16,-1
 952 1811 l 1,17,-1
 995 1878 l 1,18,19
 996 1867 996 1867 996 1854 c 0,20,21
 996 1789 996 1789 963 1681 c 1,22,-1
 969 1673 l 1,23,-1
 941 1582 l 1,24,-1
 941 1578 l 1,25,-1
 947 1578 l 1,26,-1
 977 1657 l 1,27,-1
 988 1658 l 1,28,29
 988 1628 988 1628 981 1627 c 1,30,-1
 988 1619 l 1,31,-1
 988 1611 l 2,32,33
 988 1552 988 1552 844 939 c 1,34,35
 637 330 637 330 637 312 c 2,36,-1
 637 308 l 1,37,-1
 643 308 l 1,38,39
 753 348 753 348 1035 428 c 1,40,41
 1034 439 1034 439 1034 454 c 0,42,43
 1034 627 1034 627 1207 1379 c 1,44,45
 1216 1398 1216 1398 1261 1631 c 1,46,-1
 1272 1637 l 1,47,-1
 1283 1638 l 1,48,-1
 1307 1628 l 1,49,-1
 1313 1629 l 1,50,51
 1314 1651 1314 1651 1327 1653 c 2,52,-1
 1344 1655 l 1,53,-1
 1391 1643 l 1,54,-1
 1408 1645 l 1,55,-1
 1408 1648 l 2,56,57
 1408 1658 1408 1658 1418 1660 c 2,58,-1
 1423 1660 l 1,59,60
 1448 1647 1448 1647 1453 1647 c 2,61,-1
 1454 1647 l 1,62,63
 1455 1669 1455 1669 1468 1670 c 2,64,-1
 1490 1673 l 1,65,66
 1492 1661 1492 1661 1497 1661 c 2,67,-1
 1498 1661 l 1,68,69
 1508 1667 1508 1667 1514 1667 c 0,70,71
 1555 1636 1555 1636 1562 1608 c 1,72,-1
 1565 1578 l 1,73,-1
 1565 1571 l 2,74,75
 1565 1500 1565 1500 1445 1036 c 0,76,77
 1422 942 1422 942 1294 276 c 1,78,79
 1244 176 1244 176 1210 -6 c 1,80,-1
 1198 -8 l 1,81,-1
 1197 5 l 1,82,-1
 1191 5 l 1,83,-1
 1191 4 l 2,84,85
 1191 -3 1191 -3 1174 -46 c 1,86,-1
 1163 -47 l 1,87,-1
 1166 -25 l 1,88,-1
 1155 -30 l 1,89,-1
 1150 -31 l 1,90,-1
 1141 -6 l 1,91,92
 1135 43 1135 43 1125 207 c 1,93,-1
 1124 216 l 1,94,-1
 1119 215 l 1,95,-1
 1079 78 l 1,96,-1
 1067 77 l 1,97,-1
 1068 116 l 1,98,-1
 1068 121 l 1,99,-1
 1062 120 l 1,100,101
 1056 97 1056 97 1056 85 c 2,102,-1
 1056 80 l 1,103,-1
 1044 78 l 1,104,-1
 1044 83 l 2,105,106
 1041 107 1041 107 1026 133 c 1,107,-1
 1028 160 l 1,108,-1
 1025 185 l 1,109,110
 748 -9 748 -9 515 -129 c 1,111,112
 277 -345 277 -345 234 -357 c 1,113,-1
 206 -361 l 1,114,115
 103 -359 103 -359 100 -339 c 2,116,-1
 98 -317 l 1,117,118
 92 -318 92 -318 88 -318 c 0,119,120
 75 -318 75 -318 74 -311 c 1,121,122
 78 -304 78 -304 78 -300 c 2,123,-1
 78 -298 l 1,124,-1
 77 -298 l 2,125,126
 69 -298 69 -298 47 -280 c 1,127,128
 57 -278 57 -278 57 -271 c 2,129,-1
 57 -270 l 1,130,-1
 56 -261 l 1,131,-1
 50 -253 l 1,132,133
 72 -250 72 -250 76 -193 c 1,134,135
 126 -107 126 -107 126 -87 c 2,136,-1
 126 -86 l 1,137,-1
 119 -86 l 2,138,139
 99 -86 99 -86 90 -73 c 1,140,-1
 99 -58 l 1,141,-1
 99 -54 l 2,142,143
 98 -47 98 -47 91 -47 c 2,144,-1
 87 -47 l 1,145,146
 88 -12 88 -12 93 -11 c 1,147,-1
 87 -3 l 1,148,-1
 87 1 l 2,149,150
 87 44 87 44 184 228 c 0,151,152
 244 340 244 340 262 563 c 1,153,154
 328 900 328 900 526 1464 c 0,155,156
 527 1473 527 1473 536 1474 c 2,157,-1
 547 1476 l 1,158,159
 571 1469 571 1469 573 1457 c 1,160,-1
 578 1457 l 1,161,-1
 578 1458 l 2,162,163
 578 1480 578 1480 655 1533 c 1,164,-1
 954 1974 l 1,0,-1
743 104 m 1,165,-1
 743 95 l 1,166,-1
 747 95 l 1,167,-1
 747 104 l 1,168,-1
 743 104 l 1,165,-1
-95 -214 m 1,169,-1
 -86 -214 l 1,170,-1
 -86 -222 l 1,171,-1
 -95 -222 l 1,172,-1
 -95 -214 l 1,169,-1
-91 -231 m 1,173,-1
 -82 -231 l 1,174,175
 -82 -240 -82 -240 -91 -240 c 1,176,-1
 -91 -231 l 1,173,-1
EndSplineSet
Validated: 1
EndChar

StartChar: V
Encoding: 86 86 57
Width: 1265
GlyphClass: 2
Flags: W
LayerCount: 2
Fore
SplineSet
1473 2091 m 1,0,-1
 1487 2089 l 1,1,2
 1462 2025 1462 2025 1461 2016 c 2,3,-1
 1460 2008 l 1,4,-1
 1466 2007 l 1,5,6
 1497 2067 1497 2067 1499 2079 c 1,7,-1
 1512 2076 l 1,8,9
 1511 2071 1511 2071 1511 2063 c 0,10,11
 1511 2044 1511 2044 1516 2011 c 1,12,13
 1311 1381 1311 1381 1245 1285 c 1,14,15
 1060 922 1060 922 774 401 c 1,16,17
 527 -178 527 -178 409 -431 c 1,18,19
 279 -679 279 -679 210 -760 c 1,20,-1
 188 -764 l 1,21,22
 173 -754 173 -754 169 -753 c 1,23,24
 167 -766 167 -766 154 -766 c 0,25,26
 150 -766 150 -766 146 -765 c 2,27,-1
 127 -754 l 1,28,-1
 117 -773 l 1,29,-1
 115 -785 l 1,30,-1
 102 -783 l 1,31,-1
 106 -759 l 1,32,-1
 106 -758 l 2,33,34
 106 -751 106 -751 93 -749 c 2,35,-1
 86 -748 l 1,36,-1
 83 -767 l 1,37,-1
 70 -765 l 1,38,-1
 37 -626 l 1,39,40
 -4 -195 -4 -195 -4 113 c 0,41,42
 -4 363 -4 363 23 531 c 1,43,44
 19 532 19 532 19 543 c 0,45,46
 19 551 19 551 21 564 c 0,47,48
 22 567 22 567 26 567 c 2,49,-1
 28 567 l 1,50,-1
 25 587 l 1,51,-1
 39 674 l 1,52,-1
 35 695 l 1,53,-1
 42 694 l 1,54,-1
 37 703 l 1,55,-1
 39 715 l 2,56,57
 41 729 41 729 51 749 c 1,58,59
 46 758 46 758 46 762 c 1,60,-1
 53 761 l 1,61,-1
 48 770 l 2,62,63
 48 773 48 773 52 773 c 2,64,-1
 55 773 l 1,65,-1
 49 782 l 1,66,-1
 51 794 l 2,67,68
 62 859 62 859 62 901 c 0,69,70
 62 917 62 917 60 930 c 0,71,72
 60 933 60 933 64 933 c 2,73,-1
 67 933 l 1,74,-1
 67 935 l 2,75,76
 67 940 67 940 64 958 c 1,77,78
 95 1205 95 1205 95 1299 c 0,79,80
 95 1346 95 1346 87 1355 c 1,81,82
 92 1355 92 1355 109 1364 c 1,83,-1
 106 1385 l 1,84,85
 116 1447 116 1447 116 1585 c 0,86,87
 116 1620 116 1620 115 1659 c 1,88,-1
 122 1658 l 1,89,-1
 117 1667 l 1,90,91
 129 1746 129 1746 172 1751 c 1,92,-1
 172 1750 l 2,93,94
 172 1747 172 1747 178 1746 c 1,95,96
 183 1758 183 1758 196 1758 c 2,97,-1
 201 1758 l 1,98,-1
 208 1757 l 1,99,-1
 205 1738 l 1,100,-1
 234 1745 l 1,101,-1
 240 1744 l 1,102,-1
 282 1616 l 1,103,-1
 330 1612 l 1,104,-1
 330 1608 l 1,105,-1
 344 1610 l 1,106,-1
 351 1608 l 1,107,108
 400 1576 400 1576 461 1558 c 1,109,110
 503 1526 503 1526 503 1455 c 0,111,112
 503 1433 503 1433 499 1406 c 1,113,-1
 492 1407 l 1,114,-1
 498 1398 l 1,115,-1
 491 1359 l 2,116,117
 490 1356 490 1356 486 1356 c 2,118,-1
 484 1356 l 1,119,-1
 489 1347 l 1,120,-1
 489 1343 l 2,121,122
 488 1340 488 1340 484 1340 c 2,123,-1
 481 1340 l 1,124,-1
 487 1331 l 1,125,-1
 486 1327 l 2,126,127
 485 1324 485 1324 481 1324 c 2,128,-1
 479 1324 l 1,129,-1
 479 1323 l 2,130,131
 479 1320 479 1320 485 1319 c 1,132,-1
 473 1293 l 1,133,-1
 423 981 l 2,134,135
 421 972 421 972 413 966 c 0,136,137
 413 962 413 962 420 961 c 1,138,-1
 408 934 l 1,139,-1
 393 840 l 2,140,141
 392 837 392 837 388 837 c 2,142,-1
 385 837 l 1,143,144
 385 833 385 833 392 832 c 1,145,-1
 382 813 l 1,146,-1
 375 770 l 2,147,148
 374 767 374 767 370 767 c 2,149,-1
 367 767 l 1,150,151
 367 763 367 763 373 762 c 1,152,153
 308 572 308 572 307 566 c 2,154,-1
 308 404 l 1,155,-1
 315 403 l 1,156,157
 320 434 320 434 657 963 c 1,158,159
 871 1382 871 1382 1114 1679 c 1,160,161
 1206 1818 1206 1818 1345 1986 c 1,162,-1
 1351 1985 l 1,163,-1
 1350 1977 l 1,164,-1
 1302 1896 l 1,165,-1
 1302 1892 l 1,166,-1
 1308 1891 l 1,167,-1
 1363 1971 l 1,168,-1
 1377 1969 l 1,169,-1
 1373 1949 l 1,170,-1
 1363 1930 l 1,171,-1
 1364 1930 l 2,172,173
 1386 1930 1386 1930 1473 2091 c 1,0,-1
764 2419 m 1,174,-1
 764 2411 l 1,175,-1
 760 2411 l 1,176,-1
 760 2419 l 1,177,-1
 764 2419 l 1,174,-1
EndSplineSet
Validated: 1
EndChar

StartChar: W
Encoding: 87 87 58
Width: 1992
GlyphClass: 2
Flags: W
LayerCount: 2
Fore
SplineSet
679 1839 m 1,0,-1
 679 1819 l 1,1,-1
 694 1827 l 1,2,-1
 699 1827 l 1,3,4
 704 1777 704 1777 704 1775 c 2,5,-1
 663 1475 l 1,6,-1
 684 1419 l 1,7,8
 684 1324 684 1324 527 787 c 1,9,-1
 527 783 l 1,10,-1
 532 783 l 1,11,12
 571 858 571 858 709 975 c 1,13,14
 764 1029 764 1029 764 1035 c 0,15,16
 754 1048 754 1048 754 1055 c 1,17,18
 771 1055 771 1055 785 1119 c 1,19,20
 793 1135 793 1135 860 1147 c 0,21,22
 860 1151 860 1151 870 1151 c 1,23,24
 875 1144 875 1144 875 1135 c 1,25,26
 882 1135 882 1135 916 1163 c 1,27,-1
 921 1163 l 1,28,-1
 916 1143 l 1,29,-1
 931 1151 l 1,30,-1
 936 1151 l 1,31,-1
 936 1135 l 2,32,33
 936 1131 936 1131 931 1131 c 1,34,35
 936 1123 936 1123 936 1119 c 2,36,-1
 931 1099 l 1,37,38
 946 1099 946 1099 956 1027 c 1,39,-1
 951 1027 l 1,40,-1
 956 1019 l 1,41,-1
 956 1015 l 1,42,43
 1032 526 1032 526 1032 495 c 1,44,45
 1069 528 1069 528 1492 1071 c 1,46,-1
 1916 1599 l 1,47,48
 1968 1671 1968 1671 1981 1699 c 1,49,-1
 1992 1699 l 1,50,-1
 1992 1695 l 1,51,52
 1981 1682 1981 1682 1981 1675 c 2,53,-1
 1981 1671 l 1,54,-1
 1986 1671 l 1,55,56
 1986 1685 1986 1685 2077 1775 c 1,57,58
 2077 1781 2077 1781 2118 1831 c 1,59,-1
 2128 1831 l 1,60,-1
 2128 1827 l 1,61,-1
 2077 1751 l 1,62,-1
 2077 1747 l 1,63,-1
 2082 1747 l 1,64,65
 2129 1812 2129 1812 2138 1815 c 2,66,-1
 2143 1815 l 1,67,68
 2140 1764 2140 1764 2007 1547 c 1,69,-1
 2007 1543 l 1,70,-1
 2012 1543 l 1,71,72
 2053 1606 2053 1606 2062 1607 c 1,73,-1
 2062 1603 l 2,74,75
 2062 1594 2062 1594 2027 1535 c 1,76,-1
 2027 1531 l 1,77,-1
 2032 1531 l 1,78,79
 2072 1592 2072 1592 2072 1595 c 1,80,-1
 2082 1595 l 1,81,82
 2073 1559 2073 1559 2067 1559 c 1,83,84
 2067 1555 2067 1555 2072 1555 c 1,85,86
 2057 1500 2057 1500 1830 1059 c 1,87,88
 1830 1050 1830 1050 1406 391 c 0,89,90
 1178 43 1178 43 1027 -225 c 0,91,92
 1008 -253 1008 -253 976 -261 c 1,93,94
 976 -274 976 -274 906 -289 c 1,95,96
 896 -285 896 -285 891 -285 c 0,97,98
 845 -306 845 -306 845 -337 c 1,99,-1
 840 -337 l 2,100,101
 835 -334 835 -334 835 -301 c 1,102,103
 825 -302 825 -302 825 -309 c 2,104,-1
 825 -337 l 1,105,-1
 815 -337 l 1,106,107
 815 -317 815 -317 754 -269 c 1,108,-1
 749 -249 l 1,109,-1
 749 -225 l 2,110,111
 749 -220 749 -220 759 -181 c 1,112,113
 704 12 704 12 673 159 c 1,114,-1
 633 455 l 1,115,-1
 628 455 l 1,116,117
 506 242 506 242 300 15 c 1,118,119
 209 -71 209 -71 209 -161 c 1,120,121
 184 -248 184 -248 184 -289 c 1,122,-1
 174 -289 l 1,123,124
 168 -267 168 -267 168 -245 c 1,125,-1
 163 -245 l 1,126,127
 163 -254 163 -254 158 -289 c 1,128,-1
 148 -289 l 1,129,130
 148 -285 148 -285 133 -241 c 1,131,-1
 123 -241 l 1,132,-1
 108 -293 l 1,133,-1
 98 -293 l 1,134,-1
 98 -261 l 1,135,-1
 93 -261 l 1,136,-1
 88 -289 l 1,137,-1
 78 -289 l 1,138,139
 62 -246 62 -246 62 -237 c 2,140,-1
 62 -141 l 1,141,142
 49 -141 49 -141 42 -125 c 1,143,144
 35 -125 35 -125 27 -113 c 1,145,146
 32 -105 32 -105 32 -101 c 1,147,148
 22 -101 22 -101 22 -93 c 2,149,-1
 67 -1 l 1,150,151
 67 77 67 77 118 311 c 1,152,-1
 118 319 l 1,153,-1
 113 319 l 1,154,155
 76 221 76 221 47 187 c 1,156,-1
 47 191 l 2,157,158
 47 197 47 197 73 275 c 1,159,-1
 73 279 l 1,160,-1
 67 279 l 1,161,162
 37 206 37 206 37 199 c 1,163,-1
 27 199 l 1,164,165
 27 211 27 211 32 227 c 1,166,-1
 27 263 l 1,167,168
 143 802 143 802 300 1179 c 1,169,170
 532 1708 532 1708 593 1819 c 1,171,-1
 603 1819 l 1,172,-1
 603 1795 l 1,173,-1
 608 1795 l 1,174,-1
 613 1815 l 1,175,-1
 623 1815 l 1,176,177
 623 1806 623 1806 638 1767 c 1,178,-1
 643 1767 l 1,179,180
 667 1839 667 1839 679 1839 c 1,0,-1
EndSplineSet
Validated: 1
EndChar

StartChar: X
Encoding: 88 88 59
Width: 1565
GlyphClass: 2
Flags: W
LayerCount: 2
Fore
SplineSet
1595 1914 m 1,1,2
 1595 1903 1595 1903 1581 1903 c 1,3,-1
 1567 1908 l 1,4,-1
 1560 1898 l 1,5,6
 1595 1894 1595 1894 1595 1882 c 2,7,-1
 1595 1876 l 1,8,9
 1518 1796 1518 1796 1504 1769 c 1,10,-1
 1504 1764 l 1,11,12
 1606 1828 1606 1828 1643 1828 c 2,13,-1
 1671 1828 l 2,14,15
 1726 1828 1726 1828 1748 1796 c 1,16,-1
 1748 1785 l 2,17,18
 1748 1775 1748 1775 1727 1775 c 1,19,-1
 1727 1764 l 1,20,21
 1762 1763 1762 1763 1762 1748 c 2,22,-1
 1762 1743 l 1,23,-1
 1748 1727 l 1,24,25
 1748 1707 1748 1707 1755 1679 c 1,26,-1
 1748 1668 l 1,27,-1
 1755 1668 l 1,28,29
 1755 1655 1755 1655 1727 1625 c 1,30,-1
 1713 1631 l 1,31,-1
 1706 1631 l 1,32,-1
 1706 1625 l 1,33,34
 1637 1597 1637 1597 1615 1561 c 1,35,36
 1596 1544 1596 1544 1455 1278 c 1,37,38
 1462 1269 1462 1269 1462 1257 c 2,39,-1
 1462 1251 l 1,40,41
 1402 1187 1402 1187 1267 968 c 1,42,43
 1199 846 1199 846 996 567 c 1,44,45
 1198 232 1198 232 1295 49 c 1,46,47
 1560 -404 1560 -404 1560 -448 c 2,48,-1
 1560 -453 l 1,49,-1
 1497 -400 l 1,50,51
 1497 -409 1497 -409 1539 -464 c 1,52,-1
 1539 -469 l 1,53,-1
 1525 -469 l 1,54,55
 1525 -459 1525 -459 1448 -389 c 1,56,57
 1308 -209 1308 -209 1218 -159 c 1,58,59
 1330 -375 1330 -375 1379 -453 c 0,60,61
 1476 -617 1476 -617 1497 -693 c 1,62,-1
 1497 -699 l 1,63,-1
 1483 -699 l 1,64,65
 1470 -669 1470 -669 1420 -629 c 1,66,67
 1420 -639 1420 -639 1476 -715 c 1,68,-1
 1469 -715 l 1,69,70
 912 -150 912 -150 710 220 c 1,71,-1
 703 220 l 1,72,73
 651 175 651 175 320 -181 c 1,74,75
 140 -381 140 -381 0 -464 c 1,76,77
 0 -454 0 -454 77 -362 c 1,78,-1
 77 -357 l 1,79,80
 -20 -453 -20 -453 -28 -453 c 1,81,-1
 -28 -442 l 1,82,83
 133 -248 133 -248 188 -138 c 1,84,-1
 188 -132 l 1,85,86
 145 -170 145 -170 21 -303 c 1,87,88
 -106 -455 -106 -455 -279 -576 c 1,89,-1
 -279 -565 l 1,90,-1
 -237 -517 l 1,91,-1
 -237 -512 l 1,92,93
 -333 -592 -333 -592 -348 -592 c 1,94,95
 -681 -846 -681 -846 -738 -848 c 2,96,-1
 -745 -848 l 1,97,-1
 -745 -843 l 1,98,99
 -701 -802 -701 -802 -689 -784 c 1,100,-1
 -773 -843 l 1,101,-1
 -710 -753 l 1,102,103
 -556 -610 -556 -610 -383 -389 c 1,104,105
 57 57 57 57 146 177 c 1,106,107
 97 135 97 135 90 135 c 2,108,-1
 77 135 l 1,109,110
 77 140 77 140 83 151 c 1,111,-1
 83 161 l 1,112,-1
 70 156 l 1,113,114
 101 218 101 218 404 685 c 1,115,116
 404 703 404 703 278 861 c 1,117,118
 41 1172 41 1172 14 1246 c 1,119,120
 25 1262 25 1262 35 1262 c 1,121,122
 21 1285 21 1285 21 1294 c 1,123,124
 43 1337 43 1337 77 1337 c 1,125,-1
 70 1347 l 1,126,-1
 77 1358 l 1,127,128
 94 1358 94 1358 139 1347 c 1,129,130
 139 1360 139 1360 188 1401 c 1,131,-1
 223 1395 l 1,132,-1
 230 1395 l 1,133,134
 223 1449 223 1449 223 1476 c 2,135,-1
 223 1486 l 2,136,137
 223 1529 223 1529 292 1561 c 1,138,-1
 306 1561 l 2,139,140
 320 1561 320 1561 320 1545 c 1,141,-1
 341 1545 l 1,142,143
 341 1561 341 1561 355 1561 c 2,144,-1
 369 1561 l 2,145,146
 381 1561 381 1561 446 1486 c 1,147,148
 650 1125 650 1125 675 1102 c 1,149,-1
 682 1102 l 1,150,151
 837 1315 837 1315 1288 1844 c 1,152,153
 1380 1922 1380 1922 1386 1940 c 1,154,-1
 1400 1935 l 1,155,-1
 1400 1940 l 2,156,157
 1400 1948 1400 1948 1490 1967 c 1,158,-1
 1511 1967 l 2,159,0
 1574 1967 1574 1967 1595 1914 c 1,1,2
EndSplineSet
Validated: 1
EndChar

StartChar: Y
Encoding: 89 89 60
Width: 1681
GlyphClass: 2
Flags: W
LayerCount: 2
Fore
SplineSet
1569 1822 m 1,0,-1
 1592 1808 l 1,1,-1
 1598 1808 l 1,2,-1
 1599 1817 l 1,3,-1
 1605 1817 l 2,4,5
 1619 1817 1619 1817 1629 1812 c 1,6,7
 1640 1817 1640 1817 1654 1817 c 1,8,-1
 1654 1812 l 2,9,10
 1654 1789 1654 1789 1682 1784 c 1,11,12
 1681 1779 1681 1779 1681 1774 c 0,13,14
 1681 1763 1681 1763 1684 1750 c 1,15,16
 1677 1736 1677 1736 1670 1736 c 1,17,-1
 1686 1712 l 1,18,19
 1685 1704 1685 1704 1639 1612 c 1,20,-1
 1779 1717 l 1,21,-1
 1785 1717 l 1,22,-1
 1785 1712 l 1,23,-1
 1750 1674 l 1,24,-1
 1750 1669 l 1,25,-1
 1796 1703 l 1,26,-1
 1802 1703 l 1,27,-1
 1794 1679 l 1,28,-1
 1793 1674 l 1,29,30
 1805 1653 1805 1653 1821 1650 c 1,31,32
 1691 1417 1691 1417 1507 1239 c 1,33,34
 1325 1017 1325 1017 1156 766 c 1,35,36
 1085 556 1085 556 785 -818 c 1,37,-1
 771 -566 l 1,38,-1
 681 -812 l 1,39,-1
 628 -652 l 1,40,-1
 728 -323 l 1,41,-1
 530 -863 l 1,42,-1
 539 -815 l 1,43,-1
 540 -814 l 1,44,-1
 539 -814 l 2,45,46
 531 -814 531 -814 444 -843 c 1,47,-1
 526 -742 l 1,48,-1
 578 -466 l 2,49,50
 591 -413 591 -413 591 -399 c 0,51,52
 591 -393 591 -393 590 -393 c 0,53,54
 582 -393 582 -393 539 -494 c 1,55,-1
 635 -339 l 1,56,-1
 606 -304 l 1,57,58
 608 -287 608 -287 617 -261 c 1,59,-1
 617 -257 l 1,60,-1
 611 -257 l 1,61,-1
 569 -419 l 1,62,-1
 503 -566 l 1,63,64
 513 -517 513 -517 513 -478 c 0,65,66
 513 -441 513 -441 504 -414 c 1,67,-1
 610 145 l 1,68,69
 625 285 625 285 799 771 c 1,70,71
 539 939 539 939 360 1100 c 1,72,73
 3 1448 3 1448 -30 1492 c 1,74,-1
 -30 1497 l 2,75,76
 -29 1504 -29 1504 -10 1511 c 1,77,78
 -23 1532 -23 1532 -23 1552 c 2,79,-1
 -23 1559 l 1,80,81
 10 1577 10 1577 27 1621 c 1,82,83
 57 1621 57 1621 58 1631 c 1,84,-1
 53 1640 l 1,85,-1
 73 1650 l 1,86,87
 83 1650 83 1650 83 1640 c 2,88,-1
 83 1636 l 1,89,-1
 108 1636 l 1,90,91
 110 1650 110 1650 122 1650 c 1,92,93
 121 1644 121 1644 121 1640 c 0,94,95
 121 1621 121 1621 131 1621 c 2,96,-1
 137 1621 l 1,97,98
 139 1636 139 1636 157 1636 c 2,99,-1
 188 1631 l 1,100,-1
 189 1645 l 1,101,-1
 208 1645 l 1,102,-1
 270 1650 l 1,103,104
 270 1643 270 1643 298 1631 c 1,105,-1
 311 1636 l 1,106,-1
 324 1636 l 2,107,108
 357 1636 357 1636 657 1354 c 0,109,110
 814 1201 814 1201 916 1005 c 1,111,-1
 935 1005 l 1,112,113
 1111 1219 1111 1219 1160 1335 c 1,114,115
 1185 1372 1185 1372 1241 1397 c 1,116,117
 1488 1761 1488 1761 1523 1803 c 1,118,-1
 1569 1822 l 1,0,-1
EndSplineSet
Validated: 5
EndChar

StartChar: Z
Encoding: 90 90 61
Width: 1981
GlyphClass: 2
Flags: W
LayerCount: 2
Fore
SplineSet
2245 1941 m 1,0,1
 2281 1935 2281 1935 2281 1906 c 2,2,-1
 2281 1902 l 1,3,-1
 2284 1902 l 2,4,5
 2288 1902 2288 1902 2295 1904 c 1,6,-1
 2312 1896 l 1,7,-1
 2391 1896 l 1,8,-1
 2390 1891 l 2,9,10
 2389 1880 2389 1880 2363 1880 c 1,11,-1
 2363 1875 l 1,12,-1
 2371 1873 l 1,13,-1
 2393 1874 l 1,14,-1
 2393 1869 l 1,15,16
 2376 1843 2376 1843 2285 1787 c 1,17,18
 2281 1738 2281 1738 2165 1660 c 0,19,20
 2056 1582 2056 1582 2037 1545 c 0,21,22
 2037 1539 2037 1539 2040 1528 c 0,23,24
 2035 1464 2035 1464 1947 1411 c 1,25,26
 1534 1043 1534 1043 965 557 c 1,27,28
 631 250 631 250 494 104 c 1,29,-1
 498 104 l 1,30,31
 984 213 984 213 1322 243 c 1,32,33
 1477 245 1477 245 1895 270 c 1,34,-1
 1894 259 l 1,35,-1
 1796 246 l 1,36,-1
 1796 241 l 1,37,-1
 1800 240 l 1,38,39
 1859 245 1859 245 1879 245 c 0,40,41
 1886 245 1886 245 1888 244 c 0,42,43
 1887 237 1887 237 1838 216 c 1,44,-1
 1837 206 l 1,45,-1
 1867 205 l 1,46,-1
 1866 194 l 1,47,-1
 1769 181 l 1,48,-1
 1768 176 l 1,49,-1
 1777 174 l 1,50,-1
 1874 182 l 1,51,-1
 1873 171 l 1,52,-1
 1869 171 l 2,53,54
 1847 171 1847 171 1796 138 c 1,55,-1
 1796 133 l 1,56,57
 1907 129 1907 129 1907 99 c 0,58,59
 1907 84 1907 84 1881 64 c 0,60,61
 1782 5 1782 5 1680 -39 c 1,62,-1
 1893 -32 l 1,63,64
 1760 -82 1760 -82 913 -195 c 1,65,66
 195 -308 195 -308 -181 -416 c 1,67,-1
 -211 -410 l 1,68,69
 -271 -359 -271 -359 -271 -335 c 2,70,-1
 -271 -332 l 2,71,72
 -271 -321 -271 -321 -285 -298 c 1,73,74
 -279 -295 -279 -295 -274 -295 c 2,75,-1
 -272 -295 l 1,76,-1
 -274 -268 l 1,77,78
 -260 -251 -260 -251 -253 -251 c 2,79,-1
 -251 -251 l 1,80,-1
 -253 -223 l 1,81,-1
 -250 -223 l 2,82,83
 -244 -223 -244 -223 -243 -214 c 2,84,-1
 -243 -209 l 1,85,86
 -250 -208 -250 -208 -259 -195 c 1,87,-1
 -253 -169 l 1,88,-1
 -256 -158 l 1,89,-1
 -255 -158 l 2,90,91
 -240 -158 -240 -158 -222 -116 c 1,92,93
 -215 -116 -215 -116 -98 6 c 1,94,95
 930 964 930 964 1098 1066 c 1,96,97
 1292 1201 1292 1201 1437 1339 c 1,98,-1
 1432 1340 l 1,99,100
 991 1168 991 1168 681 1111 c 1,101,-1
 263 999 l 1,102,103
 255 1006 255 1006 251 1007 c 0,104,105
 -1 970 -1 970 -86 970 c 0,106,107
 -106 970 -106 970 -117 972 c 2,108,-1
 -121 972 l 1,109,-1
 -121 978 l 1,110,111
 -76 989 -76 989 -68 989 c 2,112,-1
 -67 989 l 1,113,-1
 -67 994 l 1,114,-1
 -71 995 l 1,115,116
 -94 993 -94 993 -107 993 c 0,117,118
 -115 993 -115 993 -119 994 c 1,119,120
 -104 1027 -104 1027 120 1130 c 1,121,-1
 199 1179 l 1,122,-1
 194 1180 l 1,123,-1
 -83 1122 l 1,124,-1
 -82 1132 l 1,125,-1
 -80 1132 l 2,126,127
 -66 1132 -66 1132 -36 1156 c 1,128,-1
 -45 1157 l 1,129,130
 -69 1145 -69 1145 -84 1145 c 2,131,-1
 -90 1145 l 1,132,133
 -77 1169 -77 1169 52 1268 c 1,134,-1
 44 1270 l 1,135,-1
 44 1280 l 1,136,137
 66 1280 66 1280 67 1292 c 1,138,-1
 45 1291 l 1,139,-1
 41 1292 l 1,140,141
 61 1318 61 1318 226 1412 c 1,142,-1
 227 1417 l 1,143,-1
 218 1419 l 2,144,145
 181 1426 181 1426 101 1437 c 1,146,-1
 102 1447 l 1,147,-1
 124 1448 l 1,148,-1
 124 1454 l 1,149,-1
 116 1455 l 1,150,-1
 94 1454 l 1,151,-1
 94 1460 l 2,152,153
 94 1465 94 1465 132 1495 c 1,154,-1
 123 1497 l 1,155,156
 47 1507 47 1507 32 1510 c 1,157,-1
 33 1520 l 1,158,-1
 64 1520 l 1,159,-1
 64 1525 l 1,160,-1
 34 1531 l 1,161,-1
 35 1542 l 1,162,-1
 37 1542 l 2,163,164
 41 1542 41 1542 48 1544 c 1,165,166
 27 1594 27 1594 27 1611 c 2,167,-1
 27 1613 l 1,168,-1
 29 1629 l 1,169,170
 42 1647 42 1647 50 1679 c 1,171,-1
 51 1679 l 2,172,173
 59 1679 59 1679 61 1699 c 1,174,-1
 69 1697 l 1,175,-1
 69 1695 l 2,176,177
 69 1681 69 1681 81 1673 c 1,178,-1
 84 1673 l 2,179,180
 102 1673 102 1673 140 1699 c 1,181,182
 146 1698 146 1698 151 1698 c 0,183,184
 157 1698 157 1698 162 1700 c 1,185,186
 216 1673 216 1673 260 1665 c 1,187,188
 375 1680 375 1680 399 1697 c 1,189,190
 567 1739 567 1739 921 1744 c 1,191,192
 1195 1771 1195 1771 1569 1832 c 1,193,194
 2053 1882 2053 1882 2214 1937 c 1,195,-1
 2245 1941 l 1,0,1
1876 -87 m 1,196,-1
 1881 -88 l 1,197,-1
 1880 -99 l 1,198,-1
 1876 -98 l 1,199,-1
 1876 -87 l 1,196,-1
EndSplineSet
Validated: 1
EndChar

StartChar: backslash
Encoding: 92 92 63
Width: 1057
GlyphClass: 2
Flags: W
LayerCount: 2
Fore
SplineSet
-3 2132 m 1,1,-1
 17 2132 l 2,2,3
 21 2132 21 2132 37 2114 c 1,4,5
 93 1961 93 1961 126 1918 c 1,6,7
 135 1918 135 1918 141 1922 c 1,8,-1
 150 1918 l 1,9,10
 162 1918 162 1918 177 1944 c 1,11,-1
 181 1944 l 1,12,-1
 202 1940 l 1,13,-1
 202 1943 l 2,14,15
 202 1948 202 1948 208 1949 c 2,16,-1
 224 1949 l 1,17,18
 235 1940 235 1940 242 1940 c 1,19,-1
 309 1846 l 1,20,-1
 313 1846 l 1,21,-1
 323 1855 l 1,22,-1
 326 1842 l 1,23,24
 352 1834 352 1834 353 1828 c 2,25,-1
 351 1819 l 1,26,-1
 355 1819 l 1,27,28
 374 1730 374 1730 458 1538 c 1,29,30
 617 1205 617 1205 770 782 c 1,31,32
 919 451 919 451 1157 -277 c 1,33,34
 1155 -277 1155 -277 1155 -286 c 256,35,36
 1155 -295 1155 -295 1157 -313 c 1,37,-1
 1149 -313 l 1,38,39
 1131 -264 1131 -264 1122 -264 c 1,40,-1
 1148 -331 l 1,41,-1
 1140 -331 l 1,42,43
 1139 -323 1139 -323 1107 -269 c 1,44,-1
 1103 -269 l 1,45,-1
 1107 -286 l 1,46,-1
 1103 -286 l 2,47,48
 1095 -286 1095 -286 1078 -246 c 1,49,-1
 1074 -246 l 1,50,-1
 1075 -251 l 1,51,52
 1086 -281 1086 -281 1092 -291 c 1,53,-1
 1092 -309 l 1,54,-1
 1147 -514 l 1,55,56
 1147 -551 1147 -551 1149 -564 c 1,57,-1
 1141 -564 l 1,58,59
 1139 -553 1139 -553 1116 -501 c 1,60,-1
 1112 -501 l 1,61,-1
 1113 -505 l 1,62,63
 1134 -568 1134 -568 1140 -577 c 1,64,-1
 1132 -577 l 1,65,66
 935 -174 935 -174 831 53 c 1,67,-1
 827 53 l 1,68,-1
 828 49 l 1,69,-1
 865 -32 l 1,70,-1
 857 -32 l 1,71,72
 791 88 791 88 788 89 c 0,73,74
 407 777 407 777 -22 1882 c 1,75,76
 -19 1882 -19 1882 -19 1885 c 2,77,-1
 -19 1886 l 1,78,79
 -39 1925 -39 1925 -79 2038 c 1,80,-1
 -77 2047 l 1,81,82
 -81 2047 -81 2047 -82 2052 c 2,83,-1
 -87 2074 l 1,84,-1
 -87 2076 l 2,85,86
 -87 2079 -87 2079 -84 2079 c 0,87,88
 -82 2132 -82 2132 -71 2132 c 1,89,90
 -72 2137 -72 2137 -76 2137 c 1,91,-1
 -76 2138 l 2,92,93
 -76 2143 -76 2143 -63 2150 c 0,94,95
 -55 2150 -55 2150 -52 2137 c 1,96,-1
 -48 2137 l 1,97,98
 -49 2141 -49 2141 -49 2145 c 0,99,100
 -49 2159 -49 2159 -38 2168 c 1,101,0
 -5 2142 -5 2142 -3 2132 c 1,1,-1
EndSplineSet
Validated: 1
EndChar

StartChar: grave
Encoding: 96 96 67
Width: 1024
GlyphClass: 2
Flags: W
LayerCount: 2
Fore
SplineSet
157 2418 m 1,0,1
 153 2410 153 2410 145 2410 c 0,2,3
 140 2410 140 2410 133 2413 c 1,4,5
 134 2405 134 2405 134 2399 c 0,6,7
 134 2378 134 2378 125 2378 c 0,8,9
 122 2378 122 2378 120 2379 c 1,10,11
 125 2372 125 2372 132 2370 c 1,12,13
 137 2338 137 2338 157 2312 c 1,14,15
 129 2330 129 2330 121 2340 c 1,16,17
 104 2334 104 2334 104 2326 c 0,18,19
 104 2324 104 2324 106 2321 c 2,20,-1
 111 2315 l 1,21,-1
 128 2298 l 1,22,23
 210 1895 210 1895 390 1864 c 1,24,-1
 401 1850 l 1,25,-1
 407 1847 l 1,26,-1
 420 1857 l 1,27,-1
 425 1851 l 1,28,29
 414 1822 414 1822 414 1804 c 0,30,31
 414 1782 414 1782 431 1775 c 1,32,33
 456 1753 456 1753 465 1753 c 0,34,35
 469 1753 469 1753 469 1759 c 0,36,37
 469 1772 469 1772 449 1812 c 1,38,39
 503 1648 503 1648 526 1618 c 2,40,-1
 531 1611 l 1,41,-1
 546 1606 l 2,42,43
 552 1608 552 1608 552 1612 c 0,44,45
 552 1615 552 1615 549 1619 c 1,46,-1
 557 1616 l 2,47,48
 559 1613 559 1613 559 1612 c 256,49,50
 559 1611 559 1611 558 1611 c 0,51,52
 556 1611 556 1611 554 1612 c 1,53,54
 565 1598 565 1598 579 1593 c 2,55,-1
 586 1590 l 1,56,-1
 616 1627 l 1,57,58
 622 1619 622 1619 624 1609 c 1,59,-1
 634 1596 l 1,60,61
 642 1596 642 1596 647 1668 c 1,62,63
 676 1738 676 1738 676 1757 c 0,64,65
 676 1762 676 1762 675 1764 c 0,66,67
 615 2005 615 2005 500 2155 c 2,68,-1
 489 2169 l 2,69,70
 425 2252 425 2252 348 2296 c 1,71,72
 329 2321 329 2321 290 2352 c 1,73,-1
 269 2360 l 1,74,-1
 261 2359 l 1,75,76
 240 2386 240 2386 219 2394 c 1,77,-1
 207 2380 l 1,78,79
 162 2411 162 2411 157 2418 c 1,0,1
EndSplineSet
Validated: 5
EndChar

StartChar: a
Encoding: 97 97 68
Width: 1336
GlyphClass: 2
Flags: W
LayerCount: 2
Fore
SplineSet
1240 1548 m 1,0,1
 1242 1539 1242 1539 1254 1539 c 1,2,3
 1268 1544 1268 1544 1275 1544 c 0,4,5
 1346 1498 1346 1498 1346 1393 c 2,6,-1
 1346 1382 l 1,7,8
 1262 774 1262 774 1257 638 c 1,9,10
 1343 656 1343 656 1355 656 c 1,11,12
 1355 651 1355 651 1313 634 c 1,13,-1
 1320 634 l 1,14,15
 1348 643 1348 643 1369 643 c 1,16,17
 1352 625 1352 625 1241 571 c 1,18,19
 1229 432 1229 432 1228 387 c 1,20,-1
 1221 387 l 1,21,22
 1221 383 1221 383 1227 383 c 1,23,24
 1135 -260 1135 -260 1135 -285 c 1,25,-1
 1121 -285 l 1,26,-1
 1121 -277 l 2,27,28
 1121 -254 1121 -254 1116 -209 c 1,29,-1
 1109 -209 l 1,30,-1
 1107 -285 l 1,31,-1
 1093 -285 l 1,32,-1
 1093 -271 l 1,33,34
 1073 -271 1073 -271 1070 -352 c 1,35,-1
 1056 -352 l 1,36,-1
 1051 -298 l 1,37,-1
 1044 -298 l 1,38,-1
 1042 -348 l 1,39,-1
 1028 -348 l 1,40,41
 995 -300 995 -300 964 -195 c 1,42,-1
 957 -195 l 1,43,-1
 956 -209 l 1,44,-1
 943 -209 l 1,45,-1
 945 -137 l 1,46,-1
 938 -137 l 1,47,-1
 929 -191 l 1,48,-1
 929 -195 l 1,49,-1
 915 -195 l 1,50,51
 888 -128 888 -128 888 7 c 0,52,53
 888 32 888 32 889 60 c 1,54,-1
 875 60 l 1,55,-1
 875 47 l 1,56,-1
 861 47 l 1,57,-1
 869 78 l 1,58,-1
 871 119 l 1,59,-1
 864 119 l 1,60,61
 863 109 863 109 848 56 c 1,62,-1
 834 56 l 1,63,-1
 834 68 l 2,64,65
 834 89 834 89 822 119 c 1,66,67
 844 362 844 362 846 396 c 1,68,69
 571 258 571 258 444 248 c 1,70,71
 317 84 317 84 220 20 c 1,72,-1
 137 24 l 1,73,-1
 109 24 l 1,74,-1
 95 20 l 1,75,76
 89 28 89 28 89 38 c 1,77,-1
 75 33 l 1,78,79
 9 90 9 90 9 121 c 2,80,-1
 9 136 l 1,81,82
 14 286 14 286 623 983 c 1,83,84
 662 1038 662 1038 984 1382 c 1,85,86
 988 1490 988 1490 1113 1490 c 1,87,-1
 1120 1481 l 1,88,-1
 1113 1472 l 1,89,-1
 1140 1472 l 1,90,91
 1142 1511 1142 1511 1191 1535 c 1,92,93
 1205 1530 1205 1530 1212 1530 c 1,94,95
 1212 1537 1212 1537 1240 1548 c 1,0,1
962 1337 m 1,96,97
 962 1330 962 1330 932 1288 c 1,98,-1
 932 1284 l 1,99,-1
 939 1284 l 1,100,101
 939 1294 939 1294 968 1319 c 1,102,-1
 969 1337 l 1,103,-1
 962 1337 l 1,96,97
926 898 m 1,104,105
 925 870 925 870 662 513 c 1,106,107
 767 549 767 549 872 567 c 1,108,-1
 872 571 l 1,109,-1
 932 894 l 1,110,-1
 933 898 l 1,111,-1
 926 898 l 1,104,105
EndSplineSet
Validated: 1
EndChar

StartChar: b
Encoding: 98 98 69
Width: 1513
GlyphClass: 2
Flags: W
LayerCount: 2
Fore
SplineSet
1592 1490 m 1,0,-1
 1602 1490 l 1,1,-1
 1572 1466 l 1,2,-1
 1578 1466 l 1,3,-1
 1600 1478 l 1,4,-1
 1610 1478 l 1,5,-1
 1609 1474 l 1,6,7
 1579 1431 1579 1431 1553 1406 c 1,8,-1
 1552 1402 l 1,9,10
 1580 1402 1580 1402 1653 1394 c 1,11,-1
 1651 1386 l 1,12,-1
 1611 1386 l 1,13,-1
 1610 1378 l 1,14,-1
 1645 1378 l 1,15,-1
 1644 1370 l 1,16,17
 1586 1346 1586 1346 1468 1318 c 1,18,19
 1419 1250 1419 1250 1168 1094 c 1,20,-1
 999 958 l 1,21,-1
 999 954 l 1,22,23
 1510 1094 1510 1094 1621 1094 c 2,24,-1
 1636 1094 l 2,25,26
 1682 1094 1682 1094 1682 1062 c 0,27,28
 1682 1058 1682 1058 1681 1054 c 1,29,30
 1685 1054 1685 1054 1685 1049 c 2,31,-1
 1685 1046 l 1,32,33
 1681 1023 1681 1023 1557 946 c 1,34,35
 1501 917 1501 917 1246 718 c 1,36,37
 1047 530 1047 530 384 54 c 1,38,39
 158 -89 158 -89 157 -94 c 2,40,-1
 155 -106 l 1,41,-1
 145 -106 l 1,42,-1
 146 -98 l 1,43,44
 -104 -242 -104 -242 -136 -242 c 1,45,46
 -135 -239 -135 -239 -78 -202 c 1,47,-1
 -84 -202 l 1,48,49
 -125 -226 -125 -226 -138 -226 c 1,50,-1
 -138 -222 l 2,51,52
 -137 -215 -137 -215 -70 -150 c 1,53,54
 -108 -150 -108 -150 -112 -126 c 1,55,56
 -135 -115 -135 -115 -135 -110 c 1,57,58
 -114 -104 -114 -104 -113 -98 c 2,59,-1
 -112 -94 l 1,60,-1
 -123 -94 l 1,61,-1
 -121 -86 l 1,62,63
 -93 -86 -93 -86 -79 -46 c 1,64,65
 -64 -46 -64 -46 -22 -6 c 1,66,67
 -25 63 -25 63 -25 122 c 0,68,69
 -25 233 -25 233 -14 306 c 0,70,71
 -17 312 -17 312 -17 316 c 2,72,-1
 -17 318 l 1,73,-1
 -12 318 l 1,74,-1
 -12 319 l 2,75,76
 -12 322 -12 322 -16 322 c 1,77,-1
 -8 346 l 1,78,79
 42 662 42 662 162 974 c 1,80,-1
 162 975 l 2,81,82
 162 978 162 978 158 978 c 1,83,-1
 202 1098 l 1,84,85
 161 1104 161 1104 142 1134 c 0,86,87
 142 1138 142 1138 139 1146 c 1,88,89
 152 1172 152 1172 165 1182 c 1,90,91
 154 1204 154 1204 154 1209 c 2,92,-1
 154 1210 l 2,93,94
 155 1215 155 1215 214 1270 c 1,95,96
 218 1295 218 1295 348 1314 c 1,97,98
 370 1388 370 1388 409 1442 c 1,99,-1
 434 1438 l 1,100,-1
 439 1438 l 1,101,102
 441 1454 441 1454 451 1454 c 2,103,-1
 477 1454 l 2,104,105
 483 1454 483 1454 513 1422 c 0,106,107
 529 1402 529 1402 540 1402 c 1,108,-1
 540 1401 l 2,109,110
 540 1394 540 1394 552 1382 c 1,111,112
 546 1374 546 1374 545 1370 c 1,113,114
 552 1370 552 1370 558 1358 c 1,115,-1
 555 1338 l 1,116,117
 681 1353 681 1353 905 1362 c 1,118,-1
 904 1354 l 1,119,120
 898 1354 898 1354 847 1346 c 1,121,-1
 846 1342 l 1,122,-1
 861 1342 l 1,123,124
 1113 1382 1113 1382 1421 1406 c 1,125,-1
 1592 1490 l 1,0,-1
413 889 m 1,126,127
 542 965 542 965 788 1077 c 2,128,-1
 936 1144 l 1,129,130
 749 1117 749 1117 486 1090 c 1,131,132
 463 1051 463 1051 413 889 c 1,126,127
365 610 m 2,133,-1
 295 294 l 1,134,135
 289 294 289 294 289 290 c 2,136,-1
 298 286 l 1,137,138
 505 493 505 493 838 742 c 1,139,140
 854 742 854 742 872 762 c 1,141,-1
 867 762 l 1,142,-1
 372 622 l 1,143,144
 365 614 365 614 365 610 c 2,133,-1
EndSplineSet
Validated: 1
EndChar

StartChar: c
Encoding: 99 99 70
Width: 1785
GlyphClass: 2
Flags: W
LayerCount: 2
Fore
SplineSet
707 1460 m 1,0,-1
 712 1460 l 1,1,-1
 1083 1388 l 1,2,3
 1422 1300 1422 1300 1491 1228 c 1,4,5
 1553 1150 1553 1150 1553 1120 c 0,6,7
 1553 1108 1553 1108 1558 1099 c 1,8,9
 1537 1091 1537 1091 1537 1083 c 1,10,11
 1543 1073 1543 1073 1543 1068 c 2,12,-1
 1522 1047 l 1,13,-1
 1512 1047 l 1,14,-1
 1512 1058 l 1,15,-1
 1506 1058 l 1,16,-1
 1506 1047 l 1,17,18
 1512 983 1512 983 1512 975 c 0,19,20
 1491 930 1491 930 1460 913 c 1,21,-1
 1429 913 l 2,22,23
 1402 913 1402 913 1383 929 c 1,24,25
 1374 923 1374 923 1362 923 c 1,26,27
 1362 931 1362 931 1336 939 c 0,28,29
 1331 939 1331 939 1331 934 c 1,30,31
 1211 965 1211 965 1104 965 c 2,32,-1
 1099 965 l 1,33,-1
 1063 960 l 1,34,-1
 1063 965 l 1,35,-1
 1052 960 l 1,36,-1
 1047 960 l 2,37,38
 843 960 843 960 557 836 c 1,39,40
 469 699 469 699 469 609 c 2,41,-1
 469 583 l 1,42,43
 481 392 481 392 511 392 c 1,44,45
 617 351 617 351 738 351 c 0,46,47
 754 351 754 351 934 392 c 1,48,49
 1110 392 1110 392 1635 619 c 1,50,51
 1636 624 1636 624 1723 666 c 1,52,-1
 1728 655 l 1,53,54
 1587 583 1587 583 1579 583 c 1,55,-1
 1584 573 l 1,56,57
 1558 559 1558 559 1558 552 c 1,58,-1
 1568 552 l 1,59,-1
 1744 619 l 1,60,-1
 1744 614 l 1,61,62
 1734 602 1734 602 1579 537 c 1,63,-1
 1568 516 l 1,64,-1
 1573 516 l 1,65,66
 1639 546 1639 546 1672 557 c 1,67,-1
 1672 552 l 1,68,-1
 1532 475 l 1,69,-1
 1543 475 l 1,70,71
 1612 493 1612 493 1728 552 c 1,72,-1
 1728 547 l 1,73,74
 1714 526 1714 526 1625 490 c 1,75,-1
 1625 485 l 1,76,-1
 1630 485 l 1,77,78
 1748 531 1748 531 1770 531 c 1,79,-1
 1733 500 l 1,80,-1
 1739 500 l 1,81,82
 1753 511 1753 511 1775 511 c 1,83,84
 1775 487 1775 487 1553 294 c 1,85,86
 1490 232 1490 232 1279 119 c 1,87,88
 1197 88 1197 88 825 5 c 1,89,-1
 825 0 l 1,90,-1
 820 0 l 2,91,92
 641 0 641 0 371 139 c 1,93,94
 248 245 248 245 186 340 c 1,95,96
 108 389 108 389 108 547 c 1,97,98
 83 597 83 597 83 660 c 2,99,-1
 83 691 l 2,100,101
 83 889 83 889 248 1058 c 1,102,-1
 253 1058 l 1,103,-1
 253 1063 l 1,104,-1
 248 1063 l 1,105,106
 135 1019 135 1019 62 960 c 1,107,108
 62 970 62 970 52 970 c 1,109,110
 52 962 52 962 5 929 c 1,111,-1
 0 939 l 1,112,113
 117 1042 117 1042 227 1145 c 0,114,115
 240 1156 240 1156 248 1156 c 1,116,-1
 242 1166 l 1,117,118
 270 1202 270 1202 356 1248 c 1,119,-1
 356 1254 l 1,120,-1
 346 1254 l 1,121,-1
 325 1243 l 1,122,-1
 320 1254 l 1,123,124
 638 1398 638 1398 810 1398 c 1,125,126
 810 1405 810 1405 877 1408 c 1,127,-1
 877 1414 l 1,128,129
 729 1450 729 1450 707 1450 c 1,130,-1
 707 1460 l 1,0,-1
200 904 m 1,131,132
 231 924 231 924 236 924 c 1,133,-1
 236 928 l 1,134,-1
 232 928 l 1,135,136
 202 913 202 913 200 904 c 1,131,132
EndSplineSet
Validated: 1
EndChar

StartChar: d
Encoding: 100 100 71
Width: 2039
GlyphClass: 2
Flags: W
LayerCount: 2
Fore
SplineSet
2122 1727 m 5,0,1
 2205 1727 2205 1727 2227 1685 c 5,2,-1
 2227 1671 l 5,3,-1
 2211 1650 l 5,4,-1
 2211 1643 l 5,5,6
 2243 1643 2243 1643 2243 1636 c 4,7,8
 2243 1565 2243 1565 2195 1545 c 5,9,-1
 2203 1531 l 5,10,-1
 2203 1524 l 6,11,12
 2203 1515 2203 1515 1680 1112 c 5,13,14
 366 -14 366 -14 273 -14 c 5,15,-1
 225 -21 l 5,16,17
 201 -14 201 -14 201 -7 c 5,18,19
 151 -7 151 -7 96 -119 c 5,20,-1
 56 -147 l 5,21,-1
 48 -147 l 5,22,-1
 32 -140 l 5,23,24
 32 -147 32 -147 24 -147 c 5,25,26
 0 -88 0 -88 0 -63 c 6,27,-1
 0 -49 l 6,28,29
 0 323 0 323 233 832 c 5,30,31
 354 1127 354 1127 474 1363 c 5,32,-1
 209 1363 l 6,33,34
 166 1363 166 1363 121 1419 c 5,35,-1
 137 1426 l 5,36,-1
 129 1440 l 5,37,38
 129 1492 129 1492 370 1545 c 5,39,40
 716 1601 716 1601 1214 1629 c 5,41,-1
 1214 1622 l 5,42,43
 1230 1629 1230 1629 1238 1629 c 4,44,45
 1306 1629 1306 1629 1592 1657 c 5,46,47
 1640 1650 l 6,48,-1
 2122 1727 l 5,0,1
925 1391 m 5,49,50
 909 1384 909 1384 900 1384 c 5,51,-1
 900 1391 l 5,52,53
 780 1391 780 1391 780 1329 c 5,54,55
 587 929 587 929 450 573 c 5,56,57
 785 924 785 924 1093 1140 c 5,58,-1
 1391 1405 l 5,59,-1
 1391 1412 l 5,60,61
 1098 1391 1098 1391 925 1391 c 5,49,50
EndSplineSet
Validated: 1
EndChar

StartChar: e
Encoding: 101 101 72
Width: 1424
GlyphClass: 2
Flags: W
LayerCount: 2
Fore
SplineSet
607 1512 m 0,0,1
 664 1511 664 1511 725 1481 c 1,2,3
 982 1504 982 1504 1159 1508 c 1,4,5
 1434 1497 1434 1497 1614 1497 c 1,6,-1
 1615 1489 l 1,7,-1
 1551 1485 l 1,8,-1
 1551 1481 l 1,9,-1
 1624 1481 l 1,10,11
 1607 1463 1607 1463 1488 1439 c 1,12,13
 1420 1415 1420 1415 1325 1400 c 1,14,-1
 1326 1396 l 1,15,-1
 1544 1385 l 1,16,-1
 1546 1377 l 1,17,-1
 1493 1377 l 2,18,19
 1482 1376 1482 1376 1482 1370 c 2,20,-1
 1482 1369 l 1,21,-1
 1547 1369 l 1,22,-1
 1549 1361 l 1,23,24
 1461 1334 1461 1334 1021 1280 c 1,25,26
 898 1277 898 1277 812 1277 c 1,27,-1
 799 1273 l 1,28,29
 787 1277 787 1277 772 1277 c 2,30,-1
 713 1277 l 1,31,32
 700 1270 700 1270 674 1211 c 0,33,34
 675 1206 675 1206 721 1172 c 1,35,36
 709 1168 709 1168 702 1168 c 1,37,-1
 703 1165 l 1,38,-1
 726 1149 l 1,39,40
 645 909 645 909 645 895 c 2,41,-1
 645 894 l 1,42,-1
 742 902 l 1,43,-1
 743 898 l 1,44,45
 774 906 774 906 859 906 c 2,46,-1
 892 906 l 2,47,48
 930 906 930 906 1227 871 c 1,49,-1
 1233 871 l 1,50,-1
 1235 863 l 1,51,52
 1230 863 1230 863 1196 860 c 1,53,-1
 1197 856 l 1,54,-1
 1243 856 l 1,55,-1
 1244 848 l 1,56,57
 1102 819 1102 819 1058 794 c 1,58,59
 983 782 983 782 894 763 c 1,60,-1
 895 759 l 1,61,-1
 908 759 l 1,62,-1
 909 755 l 1,63,64
 705 659 705 659 580 659 c 1,65,66
 533 401 533 401 435 203 c 1,67,-1
 436 196 l 1,68,69
 540 207 540 207 631 207 c 0,70,71
 988 200 988 200 1052 200 c 2,72,-1
 1111 200 l 1,73,-1
 1113 192 l 1,74,75
 1104 192 1104 192 1048 188 c 1,76,-1
 1049 184 l 1,77,-1
 1101 184 l 1,78,-1
 1102 180 l 1,79,-1
 1102 179 l 2,80,81
 1102 173 1102 173 1084 173 c 1,82,-1
 1084 169 l 1,83,-1
 1125 165 l 1,84,-1
 1126 157 l 1,85,-1
 1119 157 l 2,86,87
 1111 157 1111 157 1055 153 c 1,88,-1
 1055 149 l 1,89,90
 1152 149 1152 149 1240 145 c 1,91,-1
 1241 138 l 1,92,93
 1185 134 1185 134 1177 134 c 1,94,-1
 1177 130 l 1,95,-1
 1243 130 l 1,96,-1
 1244 122 l 1,97,98
 1155 100 1155 100 903 61 c 1,99,100
 890 50 890 50 608 -9 c 1,101,102
 535 -44 535 -44 137 -82 c 1,103,104
 82 -82 82 -82 82 -100 c 2,105,-1
 82 -102 l 1,106,107
 76 -117 76 -117 66 -117 c 2,108,-1
 59 -117 l 1,109,-1
 55 -98 l 1,110,-1
 49 -98 l 1,111,-1
 46 -117 l 1,112,-1
 33 -117 l 1,113,114
 7 -85 7 -85 5 -75 c 2,115,-1
 -1 -48 l 1,116,-1
 -16 -36 l 1,117,-1
 -17 -32 l 1,118,-1
 -12 -24 l 1,119,120
 -62 -24 -62 -24 -105 14 c 1,121,122
 -114 14 -114 14 -127 26 c 1,123,-1
 -128 34 l 1,124,-1
 -128 38 l 2,125,126
 -128 59 -128 59 -76 99 c 1,127,128
 -47 140 -47 140 5 153 c 1,129,130
 72 381 72 381 132 670 c 1,131,132
 251 995 251 995 398 1311 c 1,133,-1
 392 1311 l 1,134,135
 351 1319 351 1319 349 1327 c 2,136,-1
 352 1346 l 1,137,138
 326 1346 326 1346 323 1358 c 2,139,-1
 323 1362 l 2,140,141
 323 1378 323 1378 341 1400 c 1,142,143
 333 1407 333 1407 332 1415 c 1,144,-1
 351 1415 l 1,145,-1
 343 1423 l 1,146,-1
 342 1431 l 1,147,148
 389 1477 389 1477 529 1477 c 1,149,150
 547 1508 547 1508 589 1508 c 1,151,152
 589 1504 589 1504 596 1504 c 1,153,154
 596 1512 596 1512 607 1512 c 0,0,1
300 223 m 1,155,-1
 300 221 l 2,156,157
 300 209 300 209 281 184 c 1,158,-1
 301 184 l 2,159,160
 313 184 313 184 313 191 c 2,161,-1
 313 192 l 1,162,-1
 306 223 l 1,163,-1
 300 223 l 1,155,-1
EndSplineSet
Validated: 1
EndChar

StartChar: f
Encoding: 102 102 73
Width: 1369
GlyphClass: 2
Flags: W
LayerCount: 2
Fore
SplineSet
934 1496 m 2,0,1
 939 1496 939 1496 939 1491 c 1,2,3
 945 1491 945 1491 955 1496 c 1,4,5
 1060 1496 1060 1496 1570 1423 c 1,6,-1
 1570 1413 l 1,7,-1
 1492 1413 l 1,8,-1
 1492 1407 l 1,9,10
 1565 1404 1565 1404 1565 1392 c 1,11,12
 1488 1360 1488 1360 1388 1360 c 1,13,-1
 1388 1355 l 1,14,15
 1408 1355 1408 1355 1408 1345 c 0,16,17
 1405 1340 1405 1340 1362 1340 c 1,18,19
 1363 1329 1363 1329 1372 1329 c 2,20,-1
 1414 1329 l 1,21,-1
 1414 1319 l 1,22,23
 1338 1287 1338 1287 756 1173 c 1,24,25
 756 1160 756 1160 694 980 c 1,26,27
 820 1000 820 1000 897 1000 c 1,28,29
 1064 974 1064 974 1200 974 c 1,30,-1
 1200 964 l 1,31,-1
 1148 953 l 1,32,-1
 1148 948 l 1,33,-1
 1169 948 l 1,34,-1
 1205 953 l 1,35,-1
 1205 943 l 1,36,37
 1153 919 1153 919 918 839 c 1,38,-1
 918 833 l 1,39,-1
 1080 818 l 1,40,-1
 1080 807 l 1,41,-1
 1049 807 l 1,42,-1
 1049 802 l 1,43,-1
 1085 802 l 1,44,-1
 1085 792 l 1,45,46
 1031 760 1031 760 1012 760 c 1,47,-1
 1017 750 l 1,48,-1
 1017 745 l 1,49,50
 913 719 913 719 678 640 c 1,51,52
 569 622 569 622 569 604 c 1,53,54
 456 264 456 264 292 -64 c 1,55,-1
 177 -325 l 1,56,-1
 167 -325 l 1,57,58
 193 -246 193 -246 193 -236 c 2,59,-1
 193 -231 l 1,60,-1
 188 -231 l 1,61,-1
 156 -319 l 1,62,-1
 146 -319 l 1,63,64
 151 -284 151 -284 156 -272 c 1,65,66
 151 -263 151 -263 151 -252 c 0,67,68
 151 -237 151 -237 172 -147 c 1,69,-1
 172 -142 l 1,70,-1
 167 -142 l 1,71,-1
 26 -455 l 1,72,-1
 16 -455 l 1,73,-1
 42 -372 l 1,74,-1
 42 -366 l 1,75,-1
 37 -366 l 1,76,77
 10 -429 10 -429 10 -439 c 1,78,-1
 0 -439 l 1,79,-1
 0 -413 l 2,80,81
 0 -408 0 -408 5 -408 c 1,82,-1
 0 -398 l 1,83,-1
 0 -387 l 2,84,85
 0 -366 0 -366 42 -184 c 1,86,87
 37 -155 37 -155 37 -142 c 0,88,89
 120 439 120 439 240 828 c 1,90,91
 271 910 271 910 329 1120 c 1,92,-1
 276 1120 l 1,93,94
 183 1126 183 1126 183 1152 c 2,95,-1
 183 1157 l 1,96,-1
 188 1167 l 1,97,98
 171 1167 171 1167 156 1214 c 1,99,100
 166 1220 166 1220 177 1220 c 1,101,-1
 172 1246 l 1,102,103
 237 1298 237 1298 250 1298 c 1,104,-1
 245 1308 l 1,105,-1
 245 1329 l 2,106,107
 245 1334 245 1334 250 1334 c 1,108,-1
 245 1345 l 1,109,-1
 245 1355 l 1,110,111
 270 1400 270 1400 313 1423 c 0,112,113
 362 1449 362 1449 709 1486 c 1,114,-1
 709 1480 l 1,115,116
 715 1480 715 1480 715 1486 c 1,117,-1
 934 1496 l 2,0,1
38 -171 m 1,118,-1
 38 -181 l 1,119,-1
 42 -181 l 1,120,-1
 42 -171 l 1,121,-1
 38 -171 l 1,118,-1
EndSplineSet
Validated: 5
EndChar

StartChar: g
Encoding: 103 103 74
Width: 1417
GlyphClass: 2
Flags: W
LayerCount: 2
Fore
SplineSet
1198 1571 m 1,0,-1
 1198 1564 l 1,1,2
 1191 1564 1191 1564 1136 1541 c 1,3,-1
 1136 1538 l 1,4,-1
 1141 1538 l 1,5,6
 1194 1558 1194 1558 1207 1558 c 1,7,8
 1207 1550 1207 1550 1037 1436 c 1,9,-1
 1041 1436 l 1,10,11
 1127 1476 1127 1476 1392 1525 c 1,12,-1
 1392 1522 l 2,13,14
 1392 1516 1392 1516 1344 1505 c 1,15,-1
 1344 1502 l 1,16,-1
 1349 1502 l 1,17,18
 1394 1512 1394 1512 1396 1512 c 1,19,-1
 1396 1509 l 1,20,21
 1381 1494 1381 1494 1221 1407 c 1,22,-1
 1221 1400 l 1,23,-1
 1354 1400 l 1,24,-1
 1354 1394 l 1,25,-1
 1325 1390 l 1,26,-1
 1325 1387 l 1,27,-1
 1335 1387 l 1,28,-1
 1359 1390 l 1,29,-1
 1359 1384 l 1,30,31
 1252 1339 1252 1339 1217 1318 c 1,32,33
 1217 1307 1217 1307 1084 1265 c 1,34,35
 921 1202 921 1202 743 1111 c 1,36,37
 676 1111 676 1111 478 891 c 1,38,39
 483 884 483 884 483 881 c 1,40,41
 473 881 473 881 473 871 c 1,42,-1
 483 858 l 1,43,44
 459 812 459 812 360 667 c 1,45,46
 265 498 265 498 265 440 c 1,47,48
 270 422 270 422 270 414 c 1,49,50
 260 413 260 413 260 408 c 2,51,-1
 270 398 l 1,52,-1
 270 391 l 1,53,54
 250 391 250 391 241 309 c 1,55,56
 246 260 246 260 246 237 c 1,57,58
 251 237 251 237 251 233 c 1,59,60
 292 233 292 233 620 404 c 1,61,62
 688 446 688 446 791 486 c 1,63,64
 822 515 822 515 912 609 c 1,65,66
 809 577 809 577 587 555 c 1,67,68
 479 519 479 519 417 519 c 0,69,70
 372 519 372 519 341 542 c 1,71,72
 346 548 346 548 346 555 c 1,73,74
 340 555 340 555 322 582 c 1,75,76
 331 582 331 582 355 608 c 1,77,78
 389 616 389 616 402 628 c 1,79,80
 508 654 508 654 838 792 c 1,81,82
 1048 843 1048 843 1202 937 c 1,83,84
 1232 949 1232 949 1344 1012 c 1,85,-1
 1377 1016 l 1,86,87
 1382 1010 1382 1010 1382 999 c 1,88,-1
 1392 999 l 1,89,-1
 1392 1006 l 1,90,-1
 1401 1006 l 1,91,92
 1401 991 1401 991 1425 983 c 1,93,94
 1425 978 1425 978 1439 970 c 1,95,96
 1427 959 1427 959 1415 930 c 1,97,-1
 1420 917 l 2,98,99
 1420 911 1420 911 1451 797 c 1,100,101
 1407 622 1407 622 1346 487 c 1,102,103
 1234 382 1234 382 1152 307 c 128,-1,104
 1070 232 1070 232 846 124 c 0,105,106
 724 67 724 67 538 30 c 0,107,108
 411 3 411 3 289 3 c 1,109,110
 289 0 289 0 279 0 c 0,111,112
 170 0 170 0 71 105 c 1,113,-1
 28 138 l 1,114,-1
 38 148 l 1,115,116
 19 148 19 148 19 158 c 0,117,118
 19 161 19 161 24 161 c 1,119,-1
 19 168 l 1,120,-1
 24 197 l 1,121,122
 0 273 0 273 0 316 c 2,123,-1
 0 375 l 2,124,125
 0 405 0 405 7 584 c 1,126,127
 216 1253 216 1253 462 1423 c 1,128,129
 680 1518 680 1518 934 1552 c 1,130,131
 1166 1571 1166 1571 1198 1571 c 1,0,-1
EndSplineSet
Validated: 1
EndChar

StartChar: h
Encoding: 104 104 75
Width: 1274
GlyphClass: 2
Flags: W
LayerCount: 2
Fore
SplineSet
649 1688 m 1,0,1
 732 1658 732 1658 734 1577 c 1,2,3
 739 1577 739 1577 739 1574 c 2,4,-1
 740 1534 l 1,5,-1
 740 1533 l 2,6,7
 740 1451 740 1451 511 725 c 1,8,-1
 516 725 l 1,9,10
 650 745 650 745 697 745 c 2,11,-1
 728 745 l 1,12,13
 824 1059 824 1059 868 1356 c 1,14,-1
 868 1357 l 2,15,16
 868 1394 868 1394 919 1416 c 1,17,18
 919 1410 919 1410 934 1404 c 1,19,20
 979 1425 979 1425 979 1469 c 2,21,-1
 979 1471 l 1,22,23
 993 1506 993 1506 1009 1506 c 2,24,-1
 1035 1506 l 1,25,26
 1037 1515 1037 1515 1061 1522 c 1,27,28
 1066 1515 1066 1515 1066 1510 c 1,29,-1
 1092 1514 l 1,30,31
 1150 1473 1150 1473 1151 1416 c 1,32,33
 1158 1416 1158 1416 1166 1439 c 1,34,-1
 1192 1435 l 1,35,36
 1193 1443 1193 1443 1202 1443 c 1,37,38
 1202 1439 1202 1439 1207 1439 c 1,39,-1
 1203 1420 l 1,40,-1
 1203 1416 l 1,41,-1
 1208 1416 l 1,42,-1
 1234 1420 l 1,43,44
 1255 1400 1255 1400 1255 1396 c 256,45,46
 1255 1392 1255 1392 1250 1392 c 1,47,48
 1261 1358 1261 1358 1261 1353 c 2,49,-1
 1261 1352 l 2,50,51
 1261 1296 1261 1296 1116 717 c 1,52,53
 1071 477 1071 477 952 224 c 1,54,-1
 884 34 l 1,55,-1
 874 34 l 1,56,-1
 887 101 l 1,57,-1
 887 105 l 1,58,-1
 882 105 l 1,59,-1
 863 42 l 1,60,-1
 853 42 l 1,61,62
 853 46 853 46 858 46 c 1,63,64
 852 55 852 55 846 97 c 1,65,-1
 851 97 l 1,66,-1
 846 105 l 1,67,-1
 876 382 l 1,68,-1
 876 389 l 1,69,-1
 870 389 l 1,70,71
 828 216 828 216 721 -56 c 1,72,73
 702 -120 702 -120 702 -131 c 1,74,-1
 692 -131 l 1,75,-1
 691 -104 l 1,76,-1
 695 -80 l 1,77,-1
 695 -76 l 1,78,-1
 690 -76 l 1,79,80
 681 -108 681 -108 681 -124 c 1,81,-1
 671 -124 l 1,82,83
 654 -82 654 -82 654 -60 c 2,84,-1
 653 -45 l 2,85,86
 653 -23 653 -23 657 11 c 1,87,-1
 657 15 l 1,88,-1
 652 15 l 1,89,-1
 593 -124 l 1,90,-1
 583 -124 l 1,91,-1
 607 -41 l 1,92,-1
 607 -37 l 1,93,-1
 601 -37 l 1,94,95
 576 -112 576 -112 567 -112 c 2,96,-1
 562 -112 l 1,97,-1
 566 -84 l 1,98,-1
 566 -53 l 1,99,-1
 647 449 l 1,100,-1
 642 449 l 1,101,102
 463 396 463 396 411 370 c 1,103,104
 411 351 411 351 198 -242 c 1,105,-1
 188 -242 l 1,106,-1
 188 -238 l 2,107,108
 188 -229 188 -229 197 -179 c 1,109,-1
 197 -175 l 1,110,-1
 192 -175 l 1,111,112
 179 -238 179 -238 167 -238 c 1,113,114
 156 -191 156 -191 156 -183 c 2,115,-1
 156 -179 l 2,116,117
 156 -156 156 -156 163 -64 c 1,118,-1
 153 -68 l 1,119,-1
 136 -17 l 1,120,121
 140 60 140 60 153 161 c 1,122,-1
 153 165 l 1,123,-1
 147 165 l 1,124,125
 89 31 89 31 29 -92 c 1,126,-1
 19 -92 l 1,127,-1
 38 -25 l 1,128,-1
 38 -21 l 1,129,-1
 33 -21 l 1,130,131
 9 -80 9 -80 9 -88 c 1,132,-1
 -2 -88 l 1,133,-1
 -3 -41 l 1,134,-1
 -3 -40 l 2,135,136
 -3 1 -3 1 108 520 c 1,137,138
 251 1031 251 1031 454 1633 c 1,139,140
 472 1660 472 1660 500 1660 c 1,141,142
 510 1656 510 1656 515 1656 c 1,143,144
 520 1668 520 1668 546 1668 c 1,145,146
 546 1660 546 1660 551 1660 c 2,147,-1
 572 1668 l 1,148,149
 579 1664 579 1664 598 1664 c 1,150,151
 592 1672 592 1672 592 1676 c 0,152,153
 612 1688 612 1688 649 1688 c 1,0,1
EndSplineSet
Validated: 1
EndChar

StartChar: i
Encoding: 105 105 76
Width: 661
GlyphClass: 2
Flags: W
LayerCount: 2
Fore
SplineSet
626 1704 m 0,0,1
 641 1698 641 1698 641 1692 c 1,2,3
 645 1692 645 1692 645 1696 c 1,4,5
 667 1692 667 1692 677 1692 c 1,6,-1
 685 1696 l 1,7,8
 702 1696 702 1696 702 1674 c 2,9,-1
 702 1667 l 1,10,-1
 711 1671 l 1,11,-1
 715 1671 l 1,12,13
 735 1666 735 1666 735 1631 c 2,14,-1
 735 1621 l 1,15,16
 723 1485 723 1485 626 1386 c 1,17,18
 583 1373 583 1373 555 1349 c 1,19,-1
 551 1357 l 1,20,-1
 543 1353 l 1,21,22
 522 1390 522 1390 502 1390 c 1,23,24
 440 1345 440 1345 434 1345 c 1,25,-1
 435 1349 l 2,26,27
 439 1357 439 1357 440 1361 c 1,28,29
 432 1361 432 1361 431 1349 c 1,30,-1
 423 1349 l 1,31,-1
 421 1370 l 1,32,33
 424 1408 424 1408 424 1470 c 2,34,-1
 424 1502 l 1,35,36
 470 1628 470 1628 484 1642 c 1,37,38
 500 1642 500 1642 502 1667 c 1,39,-1
 511 1671 l 1,40,-1
 510 1659 l 1,41,-1
 522 1659 l 2,42,43
 530 1659 530 1659 531 1671 c 1,44,-1
 539 1671 l 1,45,46
 539 1654 539 1654 549 1654 c 0,47,48
 565 1654 565 1654 568 1687 c 1,49,-1
 584 1687 l 1,50,51
 601 1671 601 1671 603 1671 c 2,52,-1
 607 1671 l 1,53,-1
 607 1675 l 1,54,-1
 605 1696 l 1,55,56
 619 1704 619 1704 626 1704 c 0,0,1
378 1253 m 1,57,-1
 390 1253 l 1,58,59
 414 1228 414 1228 432 1228 c 1,60,61
 451 1249 451 1249 490 1249 c 2,62,-1
 494 1249 l 1,63,-1
 494 1246 l 2,64,65
 494 1232 494 1232 505 1232 c 1,66,67
 506 1240 506 1240 513 1240 c 1,68,69
 512 1233 512 1233 512 1229 c 0,70,71
 512 1220 512 1220 515 1220 c 2,72,-1
 536 1224 l 1,73,-1
 536 1223 l 2,74,75
 536 1214 536 1214 555 1211 c 1,76,-1
 559 1220 l 1,77,78
 583 1217 583 1217 583 1211 c 1,79,-1
 599 1220 l 1,80,81
 599 1216 599 1216 603 1216 c 1,82,-1
 598 1207 l 1,83,-1
 617 1191 l 1,84,85
 609 1189 609 1189 599 1170 c 1,86,87
 619 1170 619 1170 619 1121 c 1,88,89
 611 1036 611 1036 309 6 c 1,90,-1
 141 -411 l 1,91,-1
 133 -411 l 1,92,-1
 133 -407 l 1,93,-1
 141 -370 l 1,94,-1
 141 -366 l 1,95,-1
 137 -366 l 1,96,97
 127 -391 127 -391 125 -407 c 1,98,-1
 117 -407 l 1,99,100
 113 -380 113 -380 113 -369 c 2,101,-1
 113 -366 l 1,102,-1
 119 -300 l 1,103,104
 106 -251 106 -251 106 -195 c 0,105,106
 106 -174 106 -174 108 -151 c 2,107,-1
 121 6 l 1,108,-1
 121 8 l 2,109,110
 121 14 121 14 114 14 c 1,111,-1
 51 -155 l 1,112,-1
 43 -155 l 1,113,114
 44 -147 44 -147 61 -85 c 2,115,-1
 62 -81 l 1,116,-1
 58 -81 l 1,117,-1
 36 -143 l 1,118,-1
 28 -143 l 1,119,120
 29 -133 29 -133 30 -81 c 1,121,122
 135 530 135 530 230 832 c 0,123,124
 274 972 274 972 327 1220 c 1,125,126
 352 1220 352 1220 370 1249 c 1,127,-1
 378 1253 l 1,57,-1
EndSplineSet
Validated: 1
EndChar

StartChar: j
Encoding: 106 106 77
Width: 924
GlyphClass: 2
Flags: W
LayerCount: 2
Fore
SplineSet
610 1412 m 2,0,-1
 618 1412 l 1,1,2
 735 1405 735 1405 745 1405 c 2,3,-1
 801 1405 l 1,4,-1
 799 1399 l 1,5,6
 793 1399 793 1399 762 1392 c 1,7,-1
 762 1389 l 1,8,-1
 766 1389 l 1,9,10
 802 1395 802 1395 831 1395 c 1,11,12
 921 1381 921 1381 921 1363 c 2,13,-1
 921 1362 l 2,14,15
 920 1357 920 1357 883 1329 c 1,16,-1
 883 1326 l 1,17,18
 897 1326 897 1326 912 1309 c 1,19,-1
 911 1306 l 1,20,21
 897 1295 897 1295 896 1289 c 2,22,-1
 905 1272 l 1,23,-1
 905 1269 l 2,24,25
 904 1266 904 1266 900 1266 c 1,26,27
 900 1262 900 1262 904 1262 c 1,28,29
 875 1166 875 1166 851 1033 c 2,30,-1
 790 684 l 2,31,32
 790 681 790 681 786 681 c 1,33,-1
 786 680 l 2,34,35
 786 677 786 677 789 677 c 1,36,37
 749 445 749 445 562 39 c 1,38,39
 447 -171 447 -171 317 -330 c 1,40,41
 195 -471 195 -471 1 -630 c 1,42,43
 -170 -744 -170 -744 -260 -773 c 1,44,45
 -403 -839 -403 -839 -436 -839 c 1,46,-1
 -435 -832 l 1,47,48
 -421 -832 -421 -832 -400 -816 c 1,49,-1
 -404 -816 l 1,50,51
 -432 -826 -432 -826 -442 -826 c 1,52,53
 -440 -818 -440 -818 -271 -696 c 1,54,-1
 -275 -696 l 1,55,-1
 -518 -826 l 1,56,-1
 -522 -826 l 1,57,58
 -531 -819 -531 -819 -533 -819 c 0,59,60
 -541 -822 -541 -822 -545 -822 c 0,61,62
 -547 -817 -547 -817 -547 -814 c 2,63,-1
 -547 -812 l 1,64,-1
 -379 -653 l 1,65,-1
 -78 -347 l 1,66,67
 137 -102 137 -102 292 142 c 0,68,69
 396 303 396 303 429 491 c 1,70,71
 554 865 554 865 572 970 c 1,72,-1
 576 970 l 1,73,74
 540 1065 540 1065 540 1081 c 2,75,-1
 540 1083 l 1,76,-1
 544 1103 l 2,77,78
 544 1106 544 1106 548 1106 c 1,79,-1
 543 1119 l 1,80,81
 542 1114 542 1114 384 1103 c 1,82,83
 295 1103 295 1103 283 1143 c 1,84,85
 258 1143 258 1143 234 1163 c 1,86,-1
 235 1169 l 2,87,88
 238 1176 238 1176 245 1176 c 1,89,90
 242 1188 242 1188 230 1206 c 1,91,92
 250 1217 250 1217 254 1229 c 1,93,94
 259 1229 259 1229 273 1246 c 1,95,-1
 273 1249 l 1,96,-1
 267 1259 l 1,97,-1
 268 1266 l 1,98,99
 317 1319 317 1319 370 1319 c 1,100,-1
 370 1322 l 1,101,-1
 367 1329 l 1,102,-1
 384 1336 l 1,103,-1
 382 1342 l 1,104,-1
 383 1352 l 1,105,106
 440 1395 440 1395 499 1395 c 1,107,108
 555 1412 555 1412 610 1412 c 2,0,-1
EndSplineSet
Validated: 1
EndChar

StartChar: k
Encoding: 107 107 78
Width: 1351
GlyphClass: 2
Flags: W
LayerCount: 2
Fore
SplineSet
1506 1533 m 1,0,1
 1511 1527 1511 1527 1511 1524 c 2,2,-1
 1511 1523 l 1,3,-1
 1524 1526 l 1,4,-1
 1535 1502 l 1,5,6
 1507 1419 1507 1419 1352 1296 c 1,7,8
 1534 1401 1534 1401 1543 1401 c 1,9,-1
 1543 1397 l 1,10,-1
 1501 1360 l 1,11,-1
 1507 1360 l 1,12,13
 1548 1385 1548 1385 1549 1391 c 1,14,-1
 1562 1391 l 1,15,16
 1558 1359 1558 1359 1357 1153 c 0,17,18
 1227 1019 1227 1019 805 732 c 1,19,20
 671 622 671 622 670 614 c 1,21,22
 714 560 714 560 829 230 c 1,23,24
 871 150 871 150 919 -139 c 1,25,26
 950 -214 950 -214 957 -265 c 1,27,-1
 945 -265 l 1,28,-1
 940 -248 l 1,29,-1
 934 -248 l 1,30,-1
 932 -262 l 1,31,32
 895 -254 895 -254 822 -143 c 1,33,34
 788 -123 788 -123 634 81 c 1,35,36
 447 290 447 290 381 424 c 1,37,-1
 368 424 l 1,38,39
 292 379 292 379 282 278 c 1,40,-1
 118 -184 l 1,41,42
 111 -184 111 -184 108 -218 c 1,43,-1
 101 -218 l 2,44,45
 90 -218 90 -218 90 -200 c 0,46,47
 90 -195 90 -195 91 -190 c 1,48,-1
 85 -190 l 1,49,-1
 75 -221 l 1,50,51
 10 -210 10 -210 8 57 c 1,52,53
 16 139 16 139 39 295 c 1,54,-1
 53 790 l 1,55,56
 75 1000 75 1000 277 1458 c 1,57,58
 302 1499 302 1499 384 1499 c 2,59,-1
 403 1499 l 1,60,61
 403 1492 403 1492 409 1492 c 0,62,63
 422 1496 422 1496 429 1496 c 1,64,-1
 475 1448 l 1,65,-1
 473 1431 l 1,66,-1
 499 1428 l 1,67,-1
 499 1435 l 1,68,-1
 488 1445 l 1,69,-1
 488 1452 l 1,70,-1
 535 1469 l 1,71,-1
 541 1469 l 1,72,73
 559 1462 559 1462 662 1452 c 1,74,75
 705 1395 705 1395 705 1378 c 2,76,-1
 705 1377 l 1,77,-1
 485 865 l 1,78,79
 582 932 582 932 850 1167 c 1,80,-1
 1177 1465 l 1,81,82
 1195 1465 1195 1465 1217 1475 c 1,83,84
 1228 1475 1228 1475 1228 1465 c 2,85,-1
 1228 1462 l 1,86,-1
 1254 1462 l 1,87,88
 1259 1475 1259 1475 1275 1475 c 2,89,-1
 1281 1475 l 1,90,-1
 1300 1469 l 1,91,92
 1398 1505 1398 1505 1473 1526 c 0,93,94
 1495 1533 1495 1533 1506 1533 c 1,0,1
EndSplineSet
Validated: 1
EndChar

StartChar: l
Encoding: 108 108 79
Width: 774
GlyphClass: 2
Flags: W
LayerCount: 2
Fore
SplineSet
747 1732 m 1,0,-1
 751 1732 l 1,1,-1
 765 1723 l 1,2,-1
 786 1726 l 1,3,-1
 785 1723 l 1,4,-1
 794 1726 l 1,5,-1
 802 1726 l 1,6,7
 831 1689 831 1689 831 1665 c 0,8,9
 831 1660 831 1660 830 1656 c 0,10,11
 599 1075 599 1075 462 584 c 2,12,-1
 350 185 l 2,13,14
 280 -66 280 -66 190 -203 c 1,15,-1
 182 -203 l 1,16,-1
 188 -182 l 1,17,-1
 184 -182 l 1,18,-1
 174 -203 l 1,19,-1
 166 -203 l 1,20,21
 156 -192 156 -192 156 -172 c 0,22,23
 156 -167 156 -167 157 -160 c 2,24,-1
 162 -145 l 1,25,-1
 158 -145 l 1,26,-1
 150 -173 l 1,27,-1
 142 -173 l 1,28,-1
 145 -133 l 1,29,-1
 137 -133 l 1,30,31
 118 -188 118 -188 113 -206 c 1,32,-1
 105 -206 l 1,33,-1
 111 -170 l 1,34,-1
 107 -170 l 1,35,-1
 96 -209 l 1,36,-1
 88 -209 l 1,37,-1
 90 -203 l 1,38,-1
 86 -203 l 1,39,-1
 51 -327 l 1,40,-1
 43 -327 l 1,41,42
 45 -320 45 -320 51 -269 c 1,43,-1
 47 -269 l 1,44,-1
 41 -291 l 2,45,46
 35 -328 35 -328 34 -330 c 2,47,-1
 26 -330 l 1,48,49
 16 -264 16 -264 16 -218 c 0,50,51
 16 -179 16 -179 23 -154 c 1,52,53
 31 115 31 115 75 273 c 1,54,-1
 74 285 l 1,55,-1
 78 285 l 1,56,-1
 76 291 l 1,57,-1
 91 345 l 2,58,59
 92 348 92 348 92 350 c 0,60,61
 92 354 92 354 90 357 c 2,62,-1
 96 363 l 1,63,64
 120 519 120 519 130 554 c 2,65,-1
 142 600 l 2,66,67
 143 603 143 603 143 606 c 256,68,69
 143 609 143 609 142 612 c 0,70,71
 147 617 147 617 149 624 c 2,72,-1
 166 684 l 2,73,74
 168 689 168 689 168 693 c 256,75,76
 168 697 168 697 166 699 c 2,77,-1
 175 718 l 1,78,-1
 183 745 l 2,79,80
 184 749 184 749 184 751 c 0,81,82
 184 754 184 754 182 754 c 1,83,-1
 189 766 l 1,84,85
 284 1104 284 1104 504 1562 c 1,86,-1
 513 1565 l 1,87,-1
 521 1565 l 1,88,-1
 531 1559 l 1,89,-1
 539 1559 l 1,90,91
 559 1586 559 1586 599 1674 c 1,92,93
 657 1708 657 1708 661 1708 c 2,94,-1
 673 1708 l 1,95,-1
 680 1705 l 1,96,-1
 698 1711 l 1,97,98
 704 1708 704 1708 709 1708 c 0,99,100
 723 1724 723 1724 747 1732 c 1,0,-1
EndSplineSet
Validated: 1
EndChar

StartChar: m
Encoding: 109 109 80
Width: 1513
GlyphClass: 2
Flags: W
LayerCount: 2
Fore
SplineSet
1298 1490 m 0,0,1
 1307 1490 1307 1490 1307 1481 c 2,2,-1
 1307 1477 l 1,3,-1
 1319 1482 l 1,4,-1
 1337 1482 l 1,5,6
 1452 1472 1452 1472 1578 1472 c 0,7,8
 1617 1472 1617 1472 1657 1473 c 1,9,10
 1471 907 1471 907 1293 94 c 1,11,-1
 1193 -381 l 1,12,-1
 1182 -381 l 1,13,-1
 1183 -377 l 2,14,15
 1184 -370 1184 -370 1189 -317 c 1,16,-1
 1178 -317 l 1,17,-1
 1177 -347 l 1,18,-1
 1170 -381 l 1,19,-1
 1159 -381 l 1,20,21
 1137 -320 1137 -320 1132 -233 c 1,22,23
 1103 -130 1103 -130 1103 -100 c 0,24,25
 1103 -96 1103 -96 1104 -93 c 0,26,27
 1088 -66 1088 -66 1088 -27 c 0,28,29
 1088 -1 1088 -1 1095 31 c 1,30,-1
 1089 31 l 1,31,-1
 1071 -54 l 1,32,-1
 1060 -54 l 1,33,34
 1055 -38 1055 -38 1040 -38 c 0,35,36
 992 -38 992 -38 841 -199 c 1,37,38
 1009 501 1009 501 1049 688 c 1,39,-1
 1043 688 l 1,40,41
 885 354 885 354 835 277 c 1,42,43
 830 277 830 277 795 251 c 1,44,-1
 767 255 l 1,45,46
 766 249 766 249 747 243 c 0,47,48
 737 243 737 243 737 249 c 2,49,-1
 737 251 l 1,50,-1
 725 247 l 1,51,-1
 714 251 l 1,52,53
 712 243 712 243 682 234 c 1,54,-1
 666 243 l 1,55,-1
 660 243 l 1,56,-1
 650 221 l 1,57,-1
 644 192 l 2,58,59
 642 183 642 183 631 183 c 2,60,-1
 625 183 l 1,61,-1
 630 234 l 1,62,-1
 624 234 l 1,63,-1
 612 179 l 1,64,-1
 601 179 l 1,65,66
 576 224 576 224 543 535 c 0,67,68
 541 566 541 566 541 577 c 2,69,-1
 541 582 l 1,70,-1
 535 582 l 1,71,-1
 334 120 l 1,72,73
 251 110 251 110 240 56 c 0,74,75
 234 29 234 29 178 9 c 1,76,-1
 178 11 l 2,77,78
 178 18 178 18 168 18 c 1,79,80
 130 1 130 1 119 1 c 1,81,82
 66 35 66 35 57 35 c 2,83,-1
 32 26 l 1,84,85
 29 52 29 52 20 52 c 1,86,87
 18 46 18 46 0 39 c 1,88,-1
 0 40 l 2,89,90
 0 51 0 51 -27 77 c 1,91,-1
 -26 81 l 2,92,93
 -24 90 -24 90 -7 90 c 1,94,-1
 -6 94 l 1,95,96
 -21 115 -21 115 -25 115 c 1,97,98
 5 220 5 220 40 285 c 1,99,-1
 40 286 l 2,100,101
 40 289 40 289 35 289 c 1,102,103
 215 704 215 704 355 905 c 1,104,105
 499 1259 499 1259 600 1384 c 1,106,107
 631 1435 631 1435 645 1435 c 1,108,109
 649 1429 649 1429 649 1423 c 0,110,111
 649 1421 649 1421 648 1418 c 1,112,-1
 653 1418 l 1,113,-1
 657 1435 l 1,114,-1
 663 1435 l 1,115,116
 685 1418 685 1418 688 1418 c 2,117,-1
 717 1418 l 1,118,-1
 716 1414 l 1,119,-1
 722 1414 l 1,120,-1
 741 1422 l 1,121,122
 826 1395 826 1395 826 1286 c 0,123,124
 826 1249 826 1249 816 1202 c 1,125,126
 783 863 783 863 783 778 c 2,127,-1
 783 769 l 1,128,-1
 788 769 l 1,129,130
 1067 1271 1067 1271 1186 1397 c 1,131,132
 1219 1469 1219 1469 1265 1469 c 1,133,134
 1293 1490 1293 1490 1298 1490 c 0,0,1
EndSplineSet
Validated: 1
EndChar

StartChar: n
Encoding: 110 110 81
Width: 1219
GlyphClass: 2
Flags: W
LayerCount: 2
Fore
SplineSet
1187 1513 m 1,0,-1
 1199 1513 l 1,1,-1
 1192 1473 l 1,2,-1
 1198 1473 l 1,3,-1
 1207 1493 l 1,4,-1
 1209 1505 l 1,5,-1
 1221 1505 l 2,6,7
 1226 1505 1226 1505 1226 1474 c 0,8,9
 1226 1390 1226 1390 1189 1081 c 1,10,11
 1159 915 1159 915 1074 493 c 1,12,-1
 1068 493 l 1,13,-1
 1072 485 l 2,14,15
 1072 481 1072 481 1066 481 c 1,16,-1
 1066 480 l 2,17,18
 1066 477 1066 477 1071 477 c 1,19,20
 1055 417 1055 417 1050 389 c 2,21,-1
 1047 373 l 2,22,23
 1045 364 1045 364 1038 357 c 1,24,-1
 1038 356 l 2,25,26
 1038 353 1038 353 1043 353 c 1,27,28
 1028 299 1028 299 1023 273 c 2,29,-1
 1002 153 l 1,30,-1
 992 129 l 1,31,-1
 997 121 l 1,32,33
 992 91 992 91 938 -11 c 1,34,-1
 957 -107 l 1,35,36
 938 -98 938 -98 928 -67 c 1,37,-1
 922 -67 l 1,38,-1
 921 -75 l 1,39,40
 933 -93 933 -93 933 -106 c 0,41,42
 933 -109 933 -109 932 -111 c 1,43,44
 895 -81 895 -81 879 -75 c 1,45,-1
 868 -75 l 1,46,-1
 817 -91 l 1,47,48
 706 -91 706 -91 684 29 c 0,49,50
 683 46 683 46 683 61 c 0,51,52
 683 90 683 90 687 113 c 2,53,-1
 701 197 l 1,54,-1
 531 581 l 1,55,-1
 525 581 l 1,56,57
 522 563 522 563 515 557 c 1,58,-1
 515 556 l 2,59,60
 515 553 515 553 520 553 c 1,61,62
 519 545 519 545 513 545 c 1,63,64
 489 444 489 444 479 385 c 2,65,-1
 454 245 l 2,66,67
 452 231 452 231 442 209 c 1,68,-1
 442 208 l 2,69,70
 442 205 442 205 447 205 c 1,71,-1
 438 185 l 1,72,-1
 436 173 l 2,73,74
 407 9 407 9 354 9 c 0,75,76
 349 9 349 9 317 5 c 1,77,-1
 313 13 l 1,78,-1
 300 9 l 2,79,80
 296 9 296 9 263 37 c 1,81,-1
 256 29 l 1,82,-1
 271 13 l 1,83,84
 255 11 255 11 215 -39 c 1,85,-1
 170 -55 l 1,86,-1
 123 -55 l 1,87,88
 28 -33 28 -33 28 39 c 0,89,90
 28 49 28 49 30 61 c 2,91,-1
 49 169 l 2,92,93
 50 173 50 173 56 173 c 1,94,95
 56 177 56 177 50 177 c 1,96,97
 367 1105 367 1105 432 1269 c 1,98,99
 437 1269 437 1269 440 1281 c 1,100,101
 427 1304 427 1304 427 1368 c 2,102,-1
 427 1377 l 1,103,104
 440 1377 440 1377 461 1401 c 1,105,106
 484 1401 484 1401 485 1405 c 2,107,-1
 483 1425 l 1,108,109
 502 1425 502 1425 521 1477 c 1,110,-1
 533 1477 l 1,111,-1
 531 1465 l 1,112,-1
 543 1465 l 1,113,-1
 544 1473 l 1,114,-1
 550 1473 l 1,115,-1
 609 1433 l 1,116,-1
 612 1453 l 1,117,-1
 624 1453 l 1,118,119
 625 1442 625 1442 625 1433 c 256,120,121
 625 1424 625 1424 624 1417 c 1,122,-1
 630 1417 l 1,123,124
 636 1453 636 1453 648 1453 c 1,125,126
 673 1433 673 1433 675 1233 c 1,127,128
 799 753 799 753 809 677 c 1,129,-1
 815 677 l 1,130,-1
 824 697 l 1,131,-1
 880 913 l 1,132,-1
 886 913 l 1,133,-1
 886 914 l 2,134,135
 886 917 886 917 881 917 c 1,136,137
 926 1038 926 1038 982 1261 c 1,138,-1
 994 1261 l 1,139,140
 997 1276 997 1276 1024 1361 c 1,141,-1
 1036 1361 l 1,142,-1
 1033 1345 l 1,143,-1
 1032 1305 l 1,144,-1
 1038 1305 l 1,145,-1
 1045 1345 l 2,146,147
 1048 1353 1048 1353 1058 1353 c 2,148,-1
 1064 1353 l 1,149,150
 1071 1319 1071 1319 1071 1285 c 0,151,152
 1071 1259 1071 1259 1067 1233 c 1,153,-1
 1073 1233 l 1,154,155
 1102 1297 1102 1297 1187 1513 c 1,0,-1
EndSplineSet
Validated: 1
EndChar

StartChar: o
Encoding: 111 111 82
Width: 1354
GlyphClass: 2
Flags: W
LayerCount: 2
Fore
SplineSet
812 1488 m 2,0,-1
 869 1488 l 2,1,2
 1006 1488 1006 1488 1122 1300 c 1,3,4
 1149 1278 1149 1278 1190 1152 c 1,5,6
 1231 1120 1231 1120 1267 972 c 1,7,-1
 1272 972 l 1,8,-1
 1267 964 l 2,9,10
 1267 960 1267 960 1272 960 c 1,11,-1
 1267 952 l 1,12,-1
 1267 904 l 2,13,14
 1267 839 1267 839 1257 744 c 1,15,-1
 1288 640 l 1,16,17
 1288 491 1288 491 1081 220 c 1,18,-1
 962 120 l 1,19,-1
 952 124 l 1,20,21
 733 4 733 4 672 4 c 1,22,-1
 672 12 l 1,23,-1
 698 16 l 1,24,-1
 698 20 l 1,25,-1
 693 20 l 1,26,27
 604 0 604 0 522 0 c 0,28,29
 261 0 261 0 88 292 c 1,30,-1
 83 292 l 1,31,-1
 83 256 l 1,32,-1
 72 256 l 1,33,34
 72 266 72 266 62 312 c 1,35,-1
 57 312 l 1,36,-1
 57 264 l 1,37,-1
 47 264 l 1,38,39
 0 331 0 331 0 556 c 2,40,-1
 0 568 l 2,41,42
 0 806 0 806 155 1132 c 1,43,44
 293 1351 293 1351 507 1412 c 1,45,46
 746 1488 746 1488 812 1488 c 2,0,-1
327 483 m 1,47,-1
 317 483 l 1,48,-1
 317 487 l 1,49,50
 313 519 313 519 313 527 c 1,51,-1
 308 527 l 1,52,-1
 308 483 l 2,53,54
 308 470 308 470 341 425 c 1,55,56
 341 389 341 389 444 323 c 1,57,58
 491 316 491 316 529 316 c 2,59,-1
 533 316 l 2,60,61
 739 316 739 316 900 469 c 1,62,63
 994 570 994 570 994 774 c 2,64,-1
 994 825 l 2,65,66
 994 837 994 837 999 843 c 1,67,-1
 994 865 l 1,68,-1
 994 952 l 1,69,70
 956 1055 956 1055 881 1090 c 1,71,72
 798 1123 798 1123 745 1123 c 0,73,74
 660 1123 660 1123 468 1018 c 1,75,76
 407 991 407 991 407 898 c 1,77,78
 327 556 327 556 327 483 c 1,47,-1
1278 960 m 1,79,-1
 1288 960 l 1,80,-1
 1288 952 l 1,81,-1
 1278 952 l 1,82,-1
 1278 960 l 1,79,-1
57 324 m 1,83,-1
 57 316 l 1,84,-1
 62 316 l 1,85,-1
 62 324 l 1,86,-1
 57 324 l 1,83,-1
EndSplineSet
Validated: 1
EndChar

StartChar: p
Encoding: 112 112 83
Width: 1625
GlyphClass: 2
Flags: W
LayerCount: 2
Fore
SplineSet
896 1564 m 1,0,1
 1153 1564 1153 1564 1531 1467 c 1,2,3
 1605 1437 1605 1437 1629 1365 c 0,4,5
 1634 1359 1634 1359 1634 1348 c 0,6,7
 1634 1344 1634 1344 1633 1340 c 2,8,-1
 1630 1302 l 2,9,10
 1625 1240 1625 1240 1475 1102 c 1,11,12
 1403 965 1403 965 1086 719 c 1,13,14
 773 502 773 502 586 432 c 1,15,-1
 585 422 l 2,16,17
 568 221 568 221 258 -394 c 1,18,-1
 258 -399 l 1,19,-1
 245 -399 l 1,20,21
 247 -381 247 -381 264 -331 c 1,22,-1
 264 -326 l 1,23,-1
 258 -326 l 1,24,-1
 233 -394 l 1,25,-1
 221 -394 l 1,26,27
 214 -327 214 -327 214 -321 c 2,28,-1
 223 -297 l 1,29,-1
 210 -297 l 1,30,-1
 209 -312 l 1,31,-1
 197 -312 l 1,32,33
 213 -261 213 -261 214 -248 c 2,34,-1
 215 -244 l 1,35,-1
 209 -244 l 1,36,37
 193 -285 193 -285 192 -297 c 1,38,-1
 179 -297 l 1,39,-1
 181 -273 l 1,40,41
 169 -273 169 -273 160 -302 c 1,42,-1
 147 -302 l 1,43,-1
 152 -244 l 1,44,-1
 146 -244 l 1,45,-1
 136 -292 l 1,46,-1
 135 -297 l 1,47,-1
 123 -297 l 1,48,49
 107 -271 107 -271 107 -160 c 0,50,51
 107 -45 107 -45 124 160 c 0,52,53
 143 376 143 376 184 563 c 1,54,-1
 184 564 l 2,55,56
 184 568 184 568 178 568 c 1,57,58
 194 609 194 609 200 675 c 1,59,-1
 206 675 l 1,60,-1
 206 676 l 2,61,62
 206 680 206 680 200 680 c 1,63,-1
 350 1326 l 1,64,65
 338 1326 338 1326 338 1335 c 2,66,-1
 338 1336 l 1,67,-1
 339 1340 l 1,68,-1
 346 1350 l 1,69,-1
 149 1394 l 1,70,-1
 150 1404 l 1,71,-1
 181 1404 l 1,72,-1
 182 1409 l 1,73,74
 149 1409 149 1409 146 1423 c 1,75,76
 194 1438 194 1438 349 1457 c 1,77,78
 395 1474 395 1474 408 1496 c 1,79,-1
 409 1501 l 1,80,81
 399 1506 399 1506 378 1506 c 1,82,-1
 379 1515 l 1,83,-1
 410 1515 l 1,84,-1
 410 1520 l 1,85,86
 386 1520 386 1520 386 1529 c 2,87,-1
 386 1530 l 2,88,89
 388 1546 388 1546 896 1564 c 1,0,1
859 1207 m 1,90,91
 837 1211 837 1211 755 1211 c 1,92,93
 751 1166 751 1166 682 825 c 1,94,-1
 687 825 l 1,95,-1
 1070 1007 l 1,96,97
 1273 1171 1273 1171 1275 1203 c 1,98,-1
 1276 1207 l 1,99,100
 1202 1226 1202 1226 1138 1226 c 0,101,102
 1062 1226 1062 1226 859 1207 c 1,90,91
EndSplineSet
Validated: 1
EndChar

StartChar: q
Encoding: 113 113 84
Width: 1380
GlyphClass: 2
Flags: W
LayerCount: 2
Fore
SplineSet
598 1413 m 1,0,-1
 609 1409 l 2,1,2
 614 1409 614 1409 614 1413 c 1,3,4
 798 1413 798 1413 1032 1293 c 1,5,6
 1215 1180 1215 1180 1281 997 c 1,7,8
 1296 933 1296 933 1302 877 c 1,9,-1
 1296 877 l 1,10,-1
 1302 869 l 1,11,12
 1302 821 1302 821 1286 701 c 1,13,14
 1302 701 1302 701 1307 649 c 1,15,16
 1307 457 1307 457 990 109 c 0,17,18
 986 109 986 109 937 69 c 1,19,20
 957 -26 957 -26 968 -31 c 1,21,-1
 990 -31 l 1,22,-1
 990 -39 l 1,23,-1
 963 -39 l 1,24,-1
 963 -47 l 1,25,-1
 984 -47 l 1,26,-1
 984 -51 l 1,27,-1
 963 -71 l 1,28,29
 1032 -485 1032 -485 1032 -507 c 1,30,-1
 1021 -507 l 1,31,32
 1021 -494 1021 -494 1000 -423 c 1,33,-1
 995 -423 l 1,34,-1
 995 -427 l 1,35,-1
 1011 -511 l 1,36,-1
 1000 -511 l 1,37,38
 961 -452 961 -452 916 -331 c 0,39,40
 905 -305 905 -305 905 -299 c 1,41,-1
 900 -299 l 1,42,-1
 900 -307 l 1,43,44
 921 -430 921 -430 974 -631 c 1,45,-1
 963 -631 l 1,46,47
 937 -569 937 -569 937 -563 c 1,48,-1
 931 -563 l 1,49,-1
 931 -571 l 1,50,51
 947 -621 947 -621 947 -631 c 1,52,53
 896 -604 896 -604 730 -259 c 0,54,55
 715 -236 715 -236 651 -91 c 1,56,57
 469 -64 469 -64 355 9 c 1,58,59
 185 128 185 128 143 201 c 1,60,61
 -26 403 -26 403 -26 617 c 1,62,-1
 -21 617 l 1,63,64
 -21 621 -21 621 -26 621 c 1,65,66
 -26 874 -26 874 223 1181 c 1,67,68
 328 1268 328 1268 328 1281 c 0,69,70
 328 1297 328 1297 334 1297 c 1,71,-1
 328 1305 l 1,72,73
 328 1361 328 1361 492 1401 c 1,74,75
 543 1409 543 1409 598 1413 c 1,0,-1
365 1073 m 1,76,77
 373 1073 373 1073 381 1061 c 1,78,79
 371 1057 371 1057 365 1057 c 1,80,-1
 371 1049 l 1,81,-1
 371 1045 l 1,82,83
 353 1032 353 1032 323 997 c 1,84,-1
 328 989 l 1,85,86
 291 948 291 948 270 717 c 1,87,-1
 270 709 l 2,88,89
 270 431 270 431 551 305 c 1,90,91
 551 309 551 309 556 309 c 1,92,93
 508 498 508 498 450 689 c 1,94,95
 461 689 461 689 461 697 c 1,96,-1
 487 693 l 1,97,-1
 498 693 l 1,98,-1
 487 705 l 1,99,100
 490 729 490 729 503 729 c 2,101,-1
 524 725 l 1,102,103
 541 733 541 733 551 733 c 1,104,105
 551 729 551 729 572 721 c 0,106,107
 581 721 581 721 609 749 c 1,108,109
 630 749 630 749 630 757 c 1,110,111
 704 745 704 745 704 729 c 1,112,113
 752 698 752 698 842 393 c 1,114,-1
 847 393 l 1,115,116
 942 619 942 619 942 809 c 0,117,118
 942 1024 942 1024 762 1121 c 1,119,120
 591 1173 591 1173 561 1173 c 1,121,122
 488 1163 488 1163 365 1073 c 1,76,77
466 133 m 1,123,124
 533 85 533 85 566 85 c 2,125,-1
 603 85 l 1,126,-1
 603 89 l 2,127,128
 600 125 600 125 588 125 c 2,129,-1
 572 125 l 2,130,131
 541 125 541 125 466 133 c 1,123,124
EndSplineSet
Validated: 1
EndChar

StartChar: r
Encoding: 114 114 85
Width: 1536
GlyphClass: 2
Flags: W
LayerCount: 2
Fore
SplineSet
261 1720 m 2,1,-1
 320 1708 l 2,2,3
 329 1706 329 1706 337 1706 c 0,4,5
 343 1706 343 1706 348 1707 c 2,6,-1
 361 1701 l 2,7,8
 368 1702 368 1702 373 1702 c 256,9,10
 378 1702 378 1702 382 1701 c 1,11,-1
 380 1697 l 1,12,-1
 504 1686 l 1,13,14
 1193 1556 1193 1556 1562 1281 c 1,15,16
 1588 1222 1588 1222 1588 1185 c 0,17,18
 1588 1175 1588 1175 1586 1166 c 0,19,20
 1552 1040 1552 1040 1355 987 c 1,21,22
 1289 905 1289 905 869 801 c 1,23,-1
 1249 318 l 1,24,25
 1434 113 1434 113 1513 -234 c 0,26,27
 1512 -241 1512 -241 1507 -241 c 0,28,29
 1475 -241 1475 -241 1261 126 c 1,30,-1
 1533 -421 l 1,31,-1
 1406 -323 l 1,32,33
 1414 -336 1414 -336 1414 -343 c 2,34,-1
 1414 -346 l 1,35,-1
 1394 -342 l 1,36,37
 1350 -321 1350 -321 873 158 c 1,38,39
 696 375 696 375 488 690 c 1,40,-1
 481 691 l 1,41,42
 350 216 350 216 169 -136 c 0,43,44
 136 -200 136 -200 48 -419 c 1,45,-1
 35 -416 l 1,46,-1
 62 -317 l 1,47,-1
 56 -315 l 1,48,-1
 36 -363 l 1,49,-1
 25 -401 l 1,50,-1
 19 -399 l 1,51,52
 -34 -389 -34 -389 -61 -198 c 1,53,54
 -60 -110 -60 -110 -10 -38 c 1,55,-1
 24 26 l 1,56,57
 23 84 23 84 19 84 c 0,58,59
 17 84 17 84 15 77 c 1,60,-1
 15 82 l 1,61,62
 6 82 6 82 -116 -258 c 1,63,64
 -70 -67 -70 -67 -70 -46 c 2,65,-1
 -70 -43 l 1,66,67
 -71 -43 -71 -43 -73 -47 c 1,68,-1
 -106 21 l 1,69,70
 49 445 49 445 52 459 c 2,71,-1
 58 479 l 1,72,-1
 51 481 l 1,73,74
 -1 312 -1 312 -76 120 c 1,75,-1
 -123 32 l 1,76,77
 -145 6 -145 6 -154 6 c 0,78,79
 -161 6 -161 6 -161 19 c 0,80,81
 -161 82 -161 82 -4 456 c 1,82,83
 43 626 43 626 97 926 c 1,84,85
 129 1040 129 1040 155 1085 c 1,86,-1
 155 1087 l 2,87,88
 155 1089 155 1089 150 1090 c 1,89,90
 239 1263 239 1263 303 1493 c 1,91,92
 180 1530 180 1530 33 1675 c 1,93,-1
 191 1732 l 1,94,0
 219 1728 219 1728 261 1720 c 2,1,-1
791 1370 m 1,95,-1
 791 1368 l 1,96,97
 843 1359 843 1359 846 1358 c 2,98,-1
 845 1353 l 1,99,100
 842 1354 842 1354 768 1356 c 1,101,-1
 697 1363 l 1,102,-1
 687 1362 l 1,103,-1
 687 1350 l 2,104,105
 687 1339 687 1339 686 1332 c 2,106,-1
 627 1148 l 2,107,108
 623 1148 623 1148 623 1147 c 2,109,-1
 628 1146 l 1,110,111
 909 1169 909 1169 962 1197 c 1,112,113
 1145 1241 1145 1241 1149 1266 c 2,114,-1
 1151 1273 l 1,115,116
 1017 1330 1017 1330 802 1369 c 1,117,-1
 791 1370 l 1,95,-1
EndSplineSet
Validated: 1
EndChar

StartChar: s
Encoding: 115 115 86
Width: 1288
GlyphClass: 2
Flags: W
LayerCount: 2
Fore
SplineSet
1369 1475 m 1,0,-1
 1369 1464 l 1,1,-1
 1319 1449 l 1,2,-1
 1319 1443 l 1,3,-1
 1334 1443 l 1,4,5
 1354 1454 1354 1454 1369 1454 c 1,6,-1
 1369 1443 l 1,7,8
 1333 1410 1333 1410 1150 1285 c 1,9,-1
 1085 1227 l 1,10,11
 1090 1227 1090 1227 1090 1222 c 1,12,13
 1062 1206 1062 1206 1051 1206 c 1,14,-1
 1051 1201 l 1,15,-1
 1056 1201 l 1,16,17
 1083 1206 1083 1206 1095 1206 c 1,18,19
 1037 1139 1037 1139 787 948 c 1,20,21
 715 904 715 904 652 853 c 1,22,23
 740 852 740 852 1085 721 c 0,24,25
 1205 679 1205 679 1205 636 c 1,26,27
 1210 636 1210 636 1215 621 c 1,28,29
 1210 610 1210 610 1210 605 c 1,30,31
 1220 603 1220 603 1220 594 c 2,32,-1
 1220 589 l 2,33,34
 1220 585 1220 585 1205 573 c 1,35,36
 1215 556 1215 556 1215 542 c 1,37,-1
 1195 531 l 1,38,-1
 1200 520 l 1,39,-1
 1200 515 l 1,40,41
 1096 387 1096 387 911 262 c 0,42,43
 734 138 734 138 488 19 c 1,44,45
 443 -20 443 -20 259 -112 c 1,46,47
 39 -244 39 -244 15 -244 c 1,48,49
 15 -233 15 -233 65 -207 c 1,50,-1
 65 -202 l 1,51,-1
 60 -202 l 1,52,53
 23 -220 23 -220 5 -234 c 1,54,-1
 0 -234 l 1,55,-1
 0 -228 l 2,56,57
 0 -206 0 -206 184 -39 c 1,58,-1
 179 -39 l 1,59,60
 83 -81 83 -81 65 -81 c 1,61,62
 66 -68 66 -68 120 -44 c 1,63,-1
 120 -39 l 1,64,-1
 115 -39 l 1,65,66
 75 -60 75 -60 60 -60 c 2,67,-1
 55 -60 l 1,68,69
 96 -4 96 -4 294 162 c 1,70,71
 366 240 366 240 652 489 c 1,72,-1
 737 584 l 1,73,-1
 737 589 l 1,74,-1
 732 589 l 1,75,76
 520 631 520 631 468 631 c 0,77,78
 398 626 398 626 334 626 c 0,79,80
 192 626 192 626 164 679 c 1,81,82
 153 679 153 679 120 710 c 1,83,84
 120 700 120 700 110 700 c 1,85,86
 100 713 100 713 100 721 c 1,87,-1
 95 721 l 1,88,-1
 95 716 l 1,89,90
 100 706 100 706 100 694 c 1,91,-1
 95 694 l 1,92,93
 45 725 45 725 45 779 c 0,94,95
 45 999 45 999 383 1185 c 1,96,97
 800 1428 800 1428 936 1428 c 2,98,-1
 951 1428 l 2,99,100
 981 1428 981 1428 1066 1417 c 1,101,102
 1207 1438 1207 1438 1369 1475 c 1,0,-1
EndSplineSet
Validated: 1
EndChar

StartChar: t
Encoding: 116 116 87
Width: 1552
GlyphClass: 2
Flags: W
LayerCount: 2
Fore
SplineSet
918 1744 m 0,0,1
 979 1744 979 1744 1006 1641 c 1,2,3
 995 1605 995 1605 995 1575 c 1,4,5
 1083 1540 1083 1540 1083 1472 c 2,6,-1
 1083 1467 l 1,7,8
 1078 1441 1078 1441 1078 1430 c 1,9,-1
 1344 1449 l 1,10,-1
 1344 1439 l 1,11,-1
 1255 1425 l 1,12,-1
 1255 1420 l 1,13,-1
 1261 1420 l 1,14,-1
 1350 1430 l 1,15,-1
 1350 1420 l 1,16,17
 1343 1420 1343 1420 1308 1406 c 1,18,-1
 1308 1397 l 1,19,20
 1410 1397 1410 1397 1658 1420 c 1,21,-1
 1658 1406 l 1,22,-1
 1699 1406 l 1,23,-1
 1699 1402 l 2,24,25
 1699 1382 1699 1382 1498 1327 c 1,26,27
 1446 1303 1446 1303 1427 1303 c 1,28,-1
 1427 1298 l 1,29,-1
 1439 1298 l 2,30,31
 1449 1298 1449 1298 1557 1308 c 1,32,-1
 1557 1298 l 1,33,-1
 1480 1284 l 1,34,-1
 1480 1280 l 1,35,-1
 1486 1280 l 1,36,-1
 1557 1289 l 1,37,-1
 1557 1280 l 1,38,39
 1481 1230 1481 1230 1054 1101 c 1,40,41
 971 1090 971 1090 971 1059 c 1,42,43
 776 386 776 386 675 177 c 1,44,45
 622 77 622 77 509 -184 c 1,46,-1
 497 -184 l 1,47,48
 497 -173 497 -173 503 -165 c 1,49,-1
 503 -160 l 1,50,-1
 497 -160 l 1,51,-1
 491 -184 l 1,52,-1
 480 -184 l 1,53,-1
 474 -151 l 1,54,-1
 474 -85 l 1,55,56
 468 -85 468 -85 468 -90 c 1,57,58
 423 -85 423 -85 409 -81 c 1,59,60
 311 -263 311 -263 278 -301 c 1,61,-1
 278 -292 l 1,62,63
 302 -232 302 -232 302 -226 c 2,64,-1
 302 -221 l 1,65,-1
 296 -221 l 1,66,67
 266 -286 266 -286 266 -292 c 1,68,-1
 255 -292 l 1,69,-1
 255 -240 l 1,70,71
 379 351 379 351 509 717 c 1,72,73
 551 879 551 879 592 1012 c 1,74,75
 586 1012 586 1012 586 1017 c 1,76,-1
 557 1012 l 1,77,-1
 420 1012 l 2,78,79
 395 1012 395 1012 154 970 c 1,80,-1
 107 970 l 1,81,82
 76 998 76 998 59 998 c 1,83,-1
 59 1008 l 1,84,-1
 65 1017 l 1,85,-1
 30 1055 l 1,86,87
 0 1055 0 1055 0 1097 c 1,88,-1
 6 1097 l 2,89,90
 24 1097 24 1097 24 1106 c 2,91,-1
 18 1134 l 2,92,93
 18 1148 18 1148 71 1167 c 1,94,95
 71 1190 71 1190 130 1195 c 1,96,97
 130 1203 130 1203 184 1209 c 1,98,99
 184 1221 184 1221 166 1242 c 0,100,101
 166 1247 166 1247 195 1261 c 1,102,-1
 189 1270 l 1,103,104
 196 1297 196 1297 249 1312 c 1,105,106
 249 1327 249 1327 432 1350 c 1,107,108
 690 1397 690 1397 705 1406 c 1,109,110
 705 1552 705 1552 764 1561 c 1,111,112
 814 1729 814 1729 835 1735 c 1,113,114
 860 1730 860 1730 876 1730 c 1,115,116
 876 1744 876 1744 918 1744 c 0,0,1
EndSplineSet
Validated: 1
EndChar

StartChar: u
Encoding: 117 117 88
Width: 1222
GlyphClass: 2
Flags: W
LayerCount: 2
Fore
SplineSet
1140 1527 m 2,0,-1
 1152 1527 l 2,1,2
 1160 1527 1160 1527 1173 1508 c 1,3,-1
 1184 1513 l 1,4,5
 1210 1513 1210 1513 1234 1428 c 1,6,7
 1012 736 1012 736 997 515 c 1,8,9
 947 251 947 251 898 150 c 0,10,11
 880 122 880 122 836 -25 c 1,12,-1
 825 -25 l 1,13,-1
 828 18 l 1,14,-1
 822 18 l 1,15,-1
 815 -6 l 1,16,-1
 813 -25 l 1,17,-1
 802 -25 l 1,18,-1
 788 18 l 1,19,-1
 783 18 l 1,20,21
 761 -48 761 -48 757 -110 c 1,22,-1
 746 -110 l 1,23,24
 743 -88 743 -88 743 -70 c 0,25,26
 743 -61 743 -61 744 -53 c 1,27,-1
 738 -53 l 1,28,29
 738 -63 738 -63 732 -63 c 1,30,31
 732 -67 732 -67 737 -67 c 1,32,-1
 730 -91 l 1,33,34
 735 -100 735 -100 735 -105 c 1,35,-1
 724 -105 l 1,36,37
 692 -68 692 -68 692 48 c 0,38,39
 692 84 692 84 695 127 c 1,40,-1
 689 127 l 1,41,-1
 688 108 l 1,42,-1
 677 108 l 1,43,-1
 679 145 l 1,44,-1
 674 145 l 1,45,-1
 665 98 l 1,46,-1
 654 98 l 1,47,48
 640 142 640 142 639 202 c 1,49,50
 445 22 445 22 312 22 c 2,51,-1
 306 22 l 2,52,53
 60 22 60 22 40 387 c 1,54,-1
 45 458 l 1,55,-1
 45 461 l 2,56,57
 45 470 45 470 41 477 c 1,58,-1
 47 486 l 1,59,-1
 43 510 l 1,60,61
 50 519 50 519 50 524 c 256,62,63
 50 529 50 529 45 529 c 1,64,-1
 62 623 l 1,65,-1
 57 633 l 1,66,67
 126 965 126 965 211 1219 c 0,68,69
 275 1399 275 1399 302 1399 c 2,70,-1
 313 1399 l 2,71,72
 318 1399 318 1399 318 1395 c 1,73,74
 351 1401 351 1401 370 1409 c 1,75,76
 380 1404 380 1404 386 1404 c 2,77,-1
 415 1418 l 1,78,79
 416 1409 416 1409 426 1409 c 0,80,81
 437 1413 437 1413 443 1413 c 1,82,83
 443 1400 443 1400 514 1385 c 1,84,-1
 512 1361 l 1,85,86
 521 1361 521 1361 533 1342 c 1,87,-1
 532 1324 l 1,88,-1
 526 1314 l 1,89,90
 536 1313 536 1313 536 1306 c 2,91,-1
 536 1305 l 1,92,93
 528 1305 528 1305 518 1290 c 1,94,-1
 517 1276 l 1,95,96
 420 844 420 844 414 756 c 2,97,-1
 409 694 l 2,98,99
 408 655 408 655 408 621 c 0,100,101
 408 427 408 427 456 396 c 1,102,103
 650 532 650 532 652 562 c 2,104,-1
 653 571 l 2,105,106
 676 770 676 770 689 770 c 1,107,-1
 689 771 l 2,108,109
 689 775 689 775 684 775 c 1,110,111
 724 923 724 923 729 931 c 0,112,113
 729 936 729 936 723 936 c 1,114,115
 854 1418 854 1418 902 1480 c 1,116,-1
 924 1480 l 1,117,-1
 940 1470 l 1,118,-1
 951 1470 l 1,119,120
 953 1494 953 1494 975 1494 c 0,121,122
 1002 1494 1002 1494 1040 1456 c 1,123,124
 1042 1481 1042 1481 1078 1518 c 1,125,-1
 1084 1518 l 1,126,-1
 1105 1503 l 1,127,-1
 1122 1503 l 1,128,129
 1125 1527 1125 1527 1140 1527 c 2,0,-1
255 330 m 1,130,-1
 254 316 l 1,131,-1
 258 292 l 1,132,-1
 264 292 l 1,133,134
 265 306 265 306 270 306 c 1,135,136
 261 321 261 321 261 328 c 2,137,-1
 261 330 l 1,138,-1
 255 330 l 1,130,-1
282 231 m 1,139,-1
 281 226 l 2,140,141
 282 216 282 216 292 216 c 1,142,-1
 293 231 l 1,143,-1
 282 231 l 1,139,-1
297 212 m 1,144,-1
 297 207 l 2,145,146
 300 193 300 193 334 183 c 1,147,-1
 335 193 l 1,148,-1
 297 212 l 1,144,-1
EndSplineSet
Validated: 1
EndChar

StartChar: v
Encoding: 118 118 89
Width: 1127
GlyphClass: 2
Flags: W
LayerCount: 2
Fore
SplineSet
912 1630 m 1,0,-1
 925 1630 l 1,1,-1
 912 1583 l 1,2,-1
 912 1580 l 1,3,-1
 918 1580 l 1,4,-1
 937 1623 l 1,5,-1
 949 1623 l 1,6,7
 962 1577 962 1577 962 1565 c 0,8,9
 962 1543 962 1543 925 1327 c 1,10,-1
 925 1323 l 1,11,-1
 931 1323 l 1,12,13
 931 1330 931 1330 974 1403 c 1,14,-1
 986 1403 l 1,15,16
 968 1350 968 1350 962 1342 c 1,17,-1
 962 1338 l 1,18,-1
 968 1338 l 1,19,20
 999 1392 999 1392 999 1399 c 1,21,-1
 1011 1399 l 1,22,-1
 1011 1381 l 2,23,24
 1011 1369 1011 1369 1017 1363 c 1,25,26
 912 964 912 964 832 765 c 1,27,28
 641 356 641 356 512 242 c 1,29,30
 429 11 429 11 364 11 c 1,31,-1
 302 0 l 1,32,33
 223 0 223 0 185 58 c 1,34,-1
 179 76 l 1,35,-1
 191 79 l 1,36,37
 179 114 179 114 179 119 c 1,38,39
 191 119 191 119 191 126 c 2,40,-1
 191 130 l 2,41,42
 191 137 191 137 179 137 c 1,43,44
 179 144 179 144 197 216 c 1,45,46
 197 246 197 246 185 371 c 1,47,48
 173 370 173 370 173 364 c 0,49,50
 173 333 173 333 160 256 c 1,51,-1
 148 256 l 1,52,53
 148 274 148 274 142 310 c 1,54,-1
 136 310 l 1,55,-1
 136 256 l 1,56,-1
 123 256 l 1,57,58
 85 292 85 292 12 602 c 1,59,60
 6 658 6 658 6 718 c 2,61,-1
 6 833 l 2,62,63
 6 841 6 841 0 847 c 1,64,65
 6 854 6 854 6 858 c 0,66,67
 18 1066 18 1066 18 1118 c 1,68,-1
 25 1118 l 1,69,70
 25 1122 25 1122 18 1122 c 1,71,-1
 25 1136 l 1,72,73
 25 1327 25 1327 86 1327 c 2,74,-1
 105 1327 l 1,75,-1
 105 1316 l 1,76,77
 125 1316 125 1316 136 1352 c 1,78,-1
 129 1370 l 1,79,80
 129 1421 129 1421 154 1421 c 2,81,-1
 160 1421 l 1,82,-1
 173 1417 l 1,83,-1
 173 1421 l 1,84,-1
 166 1428 l 1,85,-1
 179 1432 l 1,86,87
 185 1425 185 1425 185 1421 c 1,88,-1
 191 1421 l 1,89,90
 216 1450 216 1450 259 1450 c 2,91,-1
 265 1450 l 1,92,-1
 284 1442 l 1,93,94
 295 1446 295 1446 302 1446 c 1,95,96
 302 1424 302 1424 345 1424 c 1,97,98
 345 1428 345 1428 351 1428 c 2,99,-1
 425 1370 l 1,100,101
 425 1355 425 1355 431 1342 c 1,102,-1
 425 1342 l 1,103,-1
 431 1334 l 1,104,-1
 431 956 l 2,105,106
 431 920 431 920 438 847 c 1,107,-1
 431 847 l 1,108,-1
 438 840 l 1,109,-1
 438 797 l 2,110,111
 438 778 438 778 444 736 c 1,112,-1
 450 736 l 1,113,114
 684 1248 684 1248 863 1533 c 1,115,-1
 912 1630 l 1,0,-1
EndSplineSet
Validated: 1
EndChar

StartChar: w
Encoding: 119 119 90
Width: 1486
GlyphClass: 2
Flags: W
LayerCount: 2
Fore
SplineSet
1377 1740 m 1,0,-1
 1389 1740 l 1,1,2
 1383 1682 1383 1682 1377 1675 c 1,3,-1
 1377 1670 l 1,4,-1
 1383 1670 l 1,5,6
 1401 1719 1401 1719 1401 1735 c 1,7,-1
 1413 1735 l 1,8,9
 1413 1730 1413 1730 1425 1650 c 1,10,11
 1425 1137 1425 1137 1171 392 c 1,12,13
 1072 51 1072 51 1013 -39 c 1,14,15
 999 -39 999 -39 989 -49 c 1,16,-1
 995 -59 l 1,17,-1
 995 -94 l 1,18,-1
 983 -94 l 1,19,20
 979 -49 979 -49 964 -49 c 1,21,-1
 964 -59 l 1,22,-1
 971 -94 l 1,23,-1
 958 -94 l 1,24,25
 958 -65 958 -65 861 -14 c 1,26,-1
 861 -9 l 1,27,-1
 825 -9 l 2,28,29
 808 -9 808 -9 789 1 c 1,30,-1
 795 11 l 1,31,-1
 795 16 l 1,32,-1
 782 11 l 1,33,-1
 776 11 l 1,34,35
 685 163 685 163 685 192 c 1,36,-1
 679 192 l 1,37,-1
 679 157 l 1,38,-1
 667 157 l 1,39,40
 631 207 631 207 546 392 c 1,41,-1
 534 397 l 1,42,43
 492 279 492 279 285 61 c 1,44,45
 255 61 255 61 188 -114 c 1,46,47
 162 -114 162 -114 152 -139 c 1,48,-1
 146 -139 l 1,49,-1
 133 -134 l 1,50,-1
 97 -139 l 1,51,52
 0 -104 0 -104 0 -34 c 0,53,54
 0 11 0 11 55 117 c 1,55,56
 12 485 12 485 12 638 c 2,57,-1
 12 663 l 1,58,59
 38 1439 38 1439 97 1439 c 1,60,-1
 103 1449 l 1,61,-1
 97 1474 l 1,62,63
 123 1478 123 1478 140 1515 c 1,64,65
 186 1530 186 1530 206 1530 c 1,66,-1
 218 1525 l 1,67,68
 229 1530 229 1530 243 1530 c 1,69,-1
 285 1504 l 1,70,71
 285 1494 285 1494 315 1454 c 1,72,73
 334 1369 334 1369 334 1279 c 2,74,-1
 334 1074 l 2,75,76
 334 948 334 948 328 718 c 1,77,-1
 328 713 l 1,78,-1
 334 713 l 1,79,80
 376 818 376 818 461 933 c 1,81,82
 437 1060 437 1060 437 1104 c 1,83,-1
 491 1149 l 2,84,85
 497 1149 497 1149 497 1144 c 1,86,87
 522 1154 522 1154 540 1154 c 1,88,89
 590 1135 590 1135 613 1114 c 1,90,-1
 643 1114 l 1,91,-1
 643 1109 l 1,92,-1
 649 1109 l 1,93,-1
 649 1119 l 1,94,-1
 661 1119 l 1,95,96
 661 1100 661 1100 734 1044 c 1,97,98
 813 958 813 958 910 557 c 1,99,-1
 922 557 l 1,100,101
 979 745 979 745 1159 1109 c 1,102,103
 1213 1289 1213 1289 1377 1740 c 1,0,-1
795 227 m 1,104,-1
 795 212 l 1,105,106
 801 160 801 160 801 152 c 1,107,-1
 807 152 l 1,108,-1
 813 197 l 1,109,110
 801 217 801 217 801 227 c 1,111,-1
 795 227 l 1,104,-1
EndSplineSet
Validated: 1
EndChar

StartChar: x
Encoding: 120 120 91
Width: 1247
GlyphClass: 2
Flags: W
LayerCount: 2
Fore
SplineSet
1302 1564 m 1,0,-1
 1300 1553 l 1,1,2
 1276 1522 1276 1522 1274 1509 c 1,3,4
 1313 1548 1313 1548 1320 1548 c 1,5,-1
 1313 1499 l 1,6,7
 1291 1440 1291 1440 1154 1193 c 1,8,-1
 1153 1187 l 1,9,-1
 1160 1187 l 1,10,-1
 1193 1226 l 1,11,-1
 1207 1226 l 1,12,-1
 1206 1220 l 1,13,-1
 1164 1166 l 1,14,-1
 1171 1166 l 1,15,16
 1202 1206 1202 1206 1218 1209 c 1,17,-1
 1217 1198 l 2,18,19
 1210 1155 1210 1155 1018 855 c 0,20,21
 1016 845 1016 845 989 795 c 1,22,23
 1171 209 1171 209 1171 189 c 1,24,-1
 1158 189 l 1,25,-1
 1122 276 l 1,26,-1
 1115 276 l 1,27,-1
 1114 271 l 1,28,-1
 1143 183 l 1,29,-1
 1129 183 l 1,30,31
 1081 233 1081 233 941 451 c 1,32,-1
 940 445 l 1,33,34
 1023 256 1023 256 1194 -237 c 1,35,-1
 1193 -242 l 1,36,-1
 1169 -221 l 1,37,-1
 1168 -226 l 1,38,-1
 1189 -270 l 1,39,40
 1181 -280 1181 -280 1180 -286 c 1,41,-1
 1173 -286 l 1,42,43
 1100 -224 1100 -224 833 172 c 1,44,-1
 664 385 l 1,45,-1
 658 385 l 1,46,47
 388 63 388 63 300 -111 c 0,48,49
 272 -171 272 -171 258 -171 c 2,50,-1
 244 -171 l 1,51,-1
 219 -155 l 1,52,-1
 212 -155 l 1,53,54
 208 -188 208 -188 173 -188 c 1,55,56
 115 -175 115 -175 9 -90 c 1,57,58
 9 -55 9 -55 -10 -30 c 1,59,60
 -2 -19 -2 -19 -1 -13 c 1,61,-1
 -44 20 l 1,62,-1
 -42 36 l 2,63,64
 -41 41 -41 41 -34 41 c 1,65,-1
 -40 52 l 1,66,-1
 -39 58 l 2,67,68
 -32 108 -32 108 475 696 c 1,69,-1
 482 696 l 1,70,-1
 316 1029 l 1,71,-1
 313 1056 l 1,72,73
 323 1056 323 1056 336 1073 c 1,74,75
 210 1284 210 1284 210 1301 c 2,76,-1
 210 1302 l 1,77,78
 235 1357 235 1357 273 1357 c 1,79,-1
 274 1362 l 1,80,81
 269 1371 269 1371 269 1376 c 2,82,-1
 269 1378 l 1,83,84
 276 1378 276 1378 277 1384 c 1,85,-1
 290 1378 l 1,86,-1
 304 1384 l 1,87,88
 317 1378 317 1378 324 1378 c 1,89,90
 328 1389 328 1389 339 1389 c 2,91,-1
 353 1389 l 2,92,93
 363 1389 363 1389 371 1373 c 1,94,-1
 420 1378 l 1,95,-1
 467 1373 l 1,96,97
 468 1384 468 1384 496 1384 c 1,98,-1
 493 1411 l 1,99,100
 516 1444 516 1444 525 1444 c 2,101,-1
 600 1444 l 2,102,103
 718 1444 718 1444 849 1117 c 1,104,105
 1003 1286 1003 1286 1295 1564 c 1,106,-1
 1302 1564 l 1,0,-1
EndSplineSet
Validated: 1
EndChar

StartChar: y
Encoding: 121 121 92
Width: 1317
GlyphClass: 2
Flags: W
LayerCount: 2
Fore
SplineSet
1317 1682 m 1,0,-1
 1317 1680 l 2,1,2
 1317 1672 1317 1672 1329 1672 c 2,3,-1
 1348 1677 l 1,4,5
 1414 1677 1414 1677 1414 1555 c 2,6,-1
 1414 1548 l 1,7,-1
 1390 1514 l 1,8,-1
 1374 1479 l 1,9,10
 1380 1449 1380 1449 1380 1427 c 0,11,12
 1380 1401 1380 1401 1372 1385 c 0,13,14
 1357 1353 1357 1353 929 757 c 1,15,16
 582 228 582 228 409 54 c 1,17,18
 197 -221 197 -221 178 -262 c 1,19,-1
 153 -262 l 1,20,-1
 159 -247 l 1,21,22
 142 -249 142 -249 138 -257 c 1,23,24
 141 -264 141 -264 141 -268 c 0,25,26
 141 -270 141 -270 140 -272 c 2,27,-1
 123 -272 l 1,28,29
 83 -228 83 -228 83 -175 c 0,30,31
 83 -150 83 -150 91 -124 c 1,32,-1
 91 -112 l 2,33,34
 91 -15 91 -15 151 114 c 2,35,-1
 183 183 l 1,36,37
 291 380 291 380 299 396 c 2,38,-1
 306 411 l 2,39,40
 308 416 308 416 316 416 c 0,41,42
 317 417 317 417 317 418 c 0,43,44
 317 421 317 421 310 421 c 1,45,-1
 335 455 l 1,46,-1
 355 500 l 1,47,-1
 359 524 l 1,48,-1
 367 524 l 1,49,-1
 343 618 l 1,50,-1
 335 618 l 1,51,-1
 333 613 l 1,52,53
 316 541 316 541 310 529 c 1,54,-1
 294 529 l 1,55,-1
 298 574 l 1,56,-1
 289 574 l 1,57,-1
 282 559 l 1,58,-1
 275 524 l 1,59,-1
 258 524 l 1,60,61
 229 553 229 553 55 1029 c 1,62,63
 43 1112 43 1112 43 1177 c 0,64,65
 43 1274 43 1274 70 1331 c 0,66,67
 82 1357 82 1357 151 1380 c 1,68,69
 165 1375 165 1375 174 1375 c 1,70,71
 189 1394 189 1394 258 1410 c 1,72,73
 270 1405 270 1405 289 1405 c 1,74,75
 310 1425 310 1425 345 1435 c 1,76,-1
 371 1420 l 1,77,78
 379 1430 379 1430 393 1430 c 2,79,-1
 410 1430 l 1,80,81
 451 1421 451 1421 475 1390 c 1,82,83
 530 1390 530 1390 560 994 c 1,84,85
 560 881 560 881 575 881 c 1,86,87
 881 1359 881 1359 928 1425 c 1,88,-1
 954 1425 l 1,89,-1
 968 1420 l 1,90,91
 976 1438 976 1438 1054 1459 c 1,92,93
 1188 1662 1188 1662 1240 1662 c 1,94,-1
 1269 1652 l 1,95,96
 1283 1682 1283 1682 1317 1682 c 1,0,-1
EndSplineSet
Validated: 1
EndChar

StartChar: z
Encoding: 122 122 93
Width: 1421
GlyphClass: 2
Flags: W
LayerCount: 2
Fore
SplineSet
1429 1504 m 1,0,-1
 1442 1483 l 1,1,2
 1436 1483 1436 1483 1436 1478 c 1,3,4
 1440 1478 1440 1478 1440 1475 c 2,5,-1
 1440 1473 l 1,6,7
 1448 1473 1448 1473 1489 1494 c 1,8,-1
 1489 1489 l 1,9,-1
 1476 1473 l 1,10,-1
 1486 1468 l 1,11,12
 1489 1478 1489 1478 1498 1478 c 2,13,-1
 1503 1478 l 1,14,-1
 1502 1473 l 1,15,-1
 1451 1365 l 1,16,17
 1443 1365 1443 1365 1374 1293 c 1,18,19
 1315 1205 1315 1205 1210 1081 c 1,20,21
 1125 989 1125 989 1124 983 c 1,22,-1
 1245 1071 l 1,23,-1
 1244 1066 l 1,24,-1
 1172 994 l 1,25,-1
 1177 994 l 1,26,27
 1212 1023 1212 1023 1252 1050 c 1,28,-1
 1251 1045 l 1,29,30
 1219 980 1219 980 1033 772 c 1,31,32
 853 551 853 551 601 303 c 1,33,-1
 606 303 l 1,34,35
 1016 458 1016 458 1211 458 c 1,36,37
 1211 463 1211 463 1453 499 c 1,38,-1
 1452 489 l 1,39,40
 1393 473 1393 473 1388 473 c 1,41,-1
 1387 468 l 1,42,-1
 1403 468 l 1,43,44
 1443 478 1443 478 1451 478 c 1,45,-1
 1450 473 l 1,46,47
 1408 426 1408 426 1288 385 c 1,48,-1
 1287 380 l 1,49,-1
 1292 380 l 1,50,51
 1354 401 1354 401 1362 401 c 1,52,-1
 1362 396 l 1,53,-1
 1286 334 l 1,54,-1
 1296 334 l 1,55,56
 1331 344 1331 344 1344 344 c 1,57,-1
 1343 334 l 1,58,59
 1266 308 1266 308 1262 308 c 2,60,-1
 1261 303 l 1,61,-1
 1271 303 l 1,62,63
 1298 313 1298 313 1341 324 c 1,64,-1
 1340 313 l 1,65,66
 1222 236 1222 236 1190 236 c 1,67,68
 754 28 754 28 554 -32 c 1,69,70
 247 -138 247 -138 45 -176 c 1,71,-1
 39 -176 l 1,72,73
 -6 -171 -6 -171 -16 -166 c 1,74,75
 -72 -233 -72 -233 -77 -233 c 1,76,-1
 -76 -228 l 2,77,78
 -75 -219 -75 -219 -48 -171 c 1,79,80
 -83 -207 -83 -207 -126 -254 c 1,81,-1
 -136 -254 l 1,82,83
 -135 -245 -135 -245 -114 -207 c 1,84,85
 -125 -207 -125 -207 -139 -238 c 1,86,-1
 -150 -238 l 1,87,88
 -126 -153 -126 -153 -102 -120 c 1,89,90
 -122 -120 -122 -120 -134 -89 c 1,91,92
 -123 -84 -123 -84 -118 -84 c 1,93,-1
 -113 -53 l 1,94,95
 -31 9 -31 9 -17 9 c 1,96,-1
 191 318 l 1,97,-1
 174 308 l 1,98,-1
 169 308 l 1,99,-1
 170 313 l 1,100,-1
 225 375 l 1,101,-1
 225 380 l 1,102,-1
 162 329 l 1,103,-1
 163 339 l 1,104,105
 200 416 200 416 453 721 c 1,106,107
 572 884 572 884 695 1009 c 1,108,-1
 690 1009 l 1,109,110
 568 964 568 964 121 922 c 1,111,-1
 122 932 l 1,112,113
 130 932 130 932 170 942 c 1,114,-1
 171 947 l 1,115,-1
 160 947 l 1,116,-1
 124 942 l 1,117,-1
 125 952 l 1,118,119
 208 1009 208 1009 236 1009 c 1,120,-1
 237 1014 l 1,121,-1
 221 1014 l 2,122,123
 218 1014 218 1014 190 1009 c 1,124,-1
 190 1014 l 1,125,126
 230 1052 230 1052 312 1076 c 1,127,-1
 313 1081 l 1,128,-1
 242 1092 l 1,129,-1
 180 1086 l 1,130,131
 121 1086 121 1086 113 1123 c 1,132,133
 104 1123 104 1123 104 1130 c 2,134,-1
 104 1133 l 1,135,136
 111 1133 111 1133 122 1148 c 1,137,138
 113 1148 113 1148 113 1156 c 2,139,-1
 113 1159 l 1,140,-1
 216 1236 l 1,141,142
 111 1236 111 1236 78 1282 c 1,143,-1
 85 1293 l 1,144,145
 71 1293 71 1293 71 1302 c 2,146,-1
 71 1303 l 2,147,148
 72 1307 72 1307 89 1318 c 1,149,150
 86 1326 86 1326 86 1331 c 2,151,-1
 86 1334 l 1,152,153
 154 1394 154 1394 540 1447 c 1,154,155
 688 1458 688 1458 773 1458 c 2,156,-1
 778 1458 l 2,157,158
 852 1458 852 1458 1118 1416 c 1,159,160
 1136 1440 1136 1440 1186 1463 c 1,161,-1
 1202 1463 l 1,162,163
 1216 1442 1216 1442 1261 1442 c 0,164,165
 1264 1442 1264 1442 1429 1504 c 1,0,-1
EndSplineSet
Validated: 1
EndChar

